G75*
G70*
%OFA0B0*%
%FSLAX25Y25*%
%IPPOS*%
%LPD*%
%AMOC8*
5,1,8,0,0,1.08239X$1,22.5*
%
%ADD195C,0.01000*%
%ADD52C,0.01600*%
%ADD89C,0.00800*%
X0010000Y0010000D02*
G75*
%LPD*%
D89*
X0041098Y0078024D02*
X0044638Y0080384D01*
X0041098Y0082744D01*
X0044638Y0085104D02*
X0044638Y0078024D01*
X0047168Y0083924D02*
X0051888Y0079204D01*
X0051888Y0078024D01*
X0055598Y0078024D02*
X0055598Y0085104D01*
X0059138Y0081564D01*
X0054418Y0081564D01*
X0051888Y0085104D02*
X0047168Y0085104D01*
X0047168Y0083924D01*
X0063432Y0099652D02*
X0063432Y0100832D01*
X0063432Y0103192D02*
X0063432Y0107912D01*
X0067142Y0104372D02*
X0065962Y0103192D01*
X0065962Y0102012D01*
X0070682Y0102012D01*
X0070682Y0103192D02*
X0069502Y0104372D01*
X0067142Y0104372D01*
X0070682Y0103192D02*
X0070682Y0100832D01*
X0069502Y0099652D01*
X0067142Y0099652D01*
X0073213Y0099652D02*
X0076753Y0099652D01*
X0077933Y0100832D01*
X0077933Y0103192D01*
X0076753Y0104372D01*
X0073213Y0104372D01*
X0073213Y0106732D02*
X0073213Y0099652D01*
X0080406Y0099652D02*
X0082766Y0099652D01*
X0081586Y0099652D02*
X0081586Y0104372D01*
X0082766Y0104372D01*
X0081586Y0106732D02*
X0081586Y0107912D01*
X0082247Y0111463D02*
X0081067Y0112643D01*
X0081067Y0115003D01*
X0082247Y0116183D01*
X0084607Y0116183D01*
X0085787Y0115003D01*
X0085787Y0112643D01*
X0084607Y0111463D01*
X0082247Y0111463D01*
X0078537Y0112643D02*
X0078537Y0115003D01*
X0077357Y0116183D01*
X0074997Y0116183D01*
X0073817Y0115003D01*
X0073817Y0113823D01*
X0078537Y0113823D01*
X0078537Y0112643D02*
X0077357Y0111463D01*
X0074997Y0111463D01*
X0071287Y0111463D02*
X0067747Y0111463D01*
X0066567Y0112643D01*
X0067747Y0113823D01*
X0070107Y0113823D01*
X0071287Y0115003D01*
X0070107Y0116183D01*
X0066567Y0116183D01*
X0082276Y0122094D02*
X0083456Y0120914D01*
X0084636Y0120914D01*
X0085816Y0123274D02*
X0082276Y0123274D01*
X0082276Y0122094D02*
X0082276Y0127994D01*
X0086996Y0124454D02*
X0085816Y0123274D01*
X0086996Y0124454D02*
X0086996Y0127994D01*
X0089497Y0127994D02*
X0090677Y0127994D01*
X0093037Y0125634D01*
X0093037Y0123274D02*
X0093037Y0127994D01*
X0095568Y0126814D02*
X0095568Y0125634D01*
X0100288Y0125634D01*
X0100288Y0126814D02*
X0099108Y0127994D01*
X0096748Y0127994D01*
X0095568Y0126814D01*
X0096748Y0123274D02*
X0099108Y0123274D01*
X0100288Y0124454D01*
X0100288Y0126814D01*
X0102761Y0127994D02*
X0105121Y0127994D01*
X0103941Y0129174D02*
X0103941Y0124454D01*
X0102761Y0123274D01*
X0107595Y0123274D02*
X0108775Y0124454D01*
X0108775Y0129174D01*
X0109955Y0127994D02*
X0107595Y0127994D01*
X0112485Y0126814D02*
X0112485Y0123274D01*
X0116025Y0123274D01*
X0117205Y0124454D01*
X0116025Y0125634D01*
X0112485Y0125634D01*
X0112485Y0126814D02*
X0113665Y0127994D01*
X0116025Y0127994D01*
X0119735Y0127994D02*
X0120915Y0126814D01*
X0124455Y0126814D01*
X0120915Y0126814D02*
X0119735Y0125634D01*
X0119735Y0124454D01*
X0120915Y0123274D01*
X0124455Y0123274D01*
X0124455Y0130354D01*
X0120915Y0130354D01*
X0119735Y0129174D01*
X0119735Y0127994D01*
X0116110Y0118543D02*
X0116110Y0111463D01*
X0119650Y0111463D01*
X0120830Y0112643D01*
X0120830Y0115003D01*
X0119650Y0116183D01*
X0116110Y0116183D01*
X0113580Y0115003D02*
X0112400Y0116183D01*
X0110040Y0116183D01*
X0108860Y0115003D01*
X0108860Y0113823D01*
X0113580Y0113823D01*
X0113580Y0112643D02*
X0113580Y0115003D01*
X0113580Y0112643D02*
X0112400Y0111463D01*
X0110040Y0111463D01*
X0106330Y0111463D02*
X0106330Y0116183D01*
X0106330Y0113823D02*
X0103970Y0116183D01*
X0102790Y0116183D01*
X0115748Y0157303D02*
X0116710Y0156905D01*
X0117661Y0156483D01*
X0118602Y0156038D01*
X0119531Y0155570D01*
X0120449Y0155079D01*
X0121354Y0154566D01*
X0122247Y0154031D01*
X0123126Y0153475D01*
X0123991Y0152896D01*
X0124842Y0152297D01*
X0125678Y0151677D01*
X0126498Y0151037D01*
X0127303Y0150376D01*
X0128091Y0149697D01*
X0128862Y0148998D01*
X0129615Y0148280D01*
X0130351Y0147544D01*
X0131069Y0146790D01*
X0131767Y0146019D01*
X0132447Y0145231D01*
X0133107Y0144427D01*
X0133748Y0143606D01*
X0134367Y0142770D01*
X0134967Y0141920D01*
X0135545Y0141054D01*
X0136101Y0140175D01*
X0136636Y0139282D01*
X0137149Y0138377D01*
X0137640Y0137459D01*
X0138108Y0136529D01*
X0138552Y0135589D01*
X0138974Y0134637D01*
X0139372Y0133676D01*
X0139747Y0132705D01*
X0140097Y0131725D01*
X0140424Y0130737D01*
X0140726Y0129741D01*
X0141003Y0128738D01*
X0141256Y0127728D01*
X0141484Y0126713D01*
X0141687Y0125692D01*
X0141865Y0124667D01*
X0142018Y0123638D01*
X0142145Y0122605D01*
X0142247Y0121569D01*
X0142323Y0120531D01*
X0142374Y0119492D01*
X0142400Y0118451D01*
X0142400Y0117411D01*
X0142374Y0116370D01*
X0142323Y0115331D01*
X0142246Y0114293D01*
X0142144Y0113257D01*
X0142017Y0112225D01*
X0141864Y0111195D01*
X0141686Y0110170D01*
X0141483Y0109149D01*
X0141255Y0108134D01*
X0141002Y0107124D01*
X0140725Y0106121D01*
X0140423Y0105126D01*
X0140096Y0104137D01*
X0139745Y0103158D01*
X0139371Y0102187D01*
X0138973Y0101225D01*
X0138551Y0100274D01*
X0138106Y0099333D01*
X0137638Y0098404D01*
X0137147Y0097486D01*
X0136634Y0096580D01*
X0136099Y0095688D01*
X0135543Y0094809D01*
X0134964Y0093943D01*
X0134365Y0093092D01*
X0133745Y0092257D01*
X0133105Y0091436D01*
X0132445Y0090632D01*
X0131765Y0089844D01*
X0131066Y0089073D01*
X0130348Y0088319D01*
X0129613Y0087583D01*
X0128859Y0086866D01*
X0128088Y0086167D01*
X0127300Y0085487D01*
X0126495Y0084827D01*
X0125675Y0084187D01*
X0124839Y0083567D01*
X0123988Y0082968D01*
X0123123Y0082389D01*
X0122244Y0081833D01*
X0121351Y0081298D01*
X0120446Y0080785D01*
X0119528Y0080294D01*
X0118598Y0079826D01*
X0117657Y0079381D01*
X0116706Y0078960D01*
X0115745Y0078561D01*
X0114774Y0078187D01*
X0113794Y0077836D01*
X0112806Y0077510D01*
X0111810Y0077208D01*
X0110807Y0076930D01*
X0109797Y0076677D01*
X0108782Y0076449D01*
X0107761Y0076246D01*
X0106736Y0076068D01*
X0105706Y0075916D01*
X0104674Y0075788D01*
X0103638Y0075686D01*
X0102600Y0075610D01*
X0101561Y0075559D01*
X0100520Y0075533D01*
X0099480Y0075533D01*
X0098439Y0075559D01*
X0097400Y0075610D01*
X0096362Y0075686D01*
X0095326Y0075788D01*
X0094294Y0075916D01*
X0093264Y0076068D01*
X0092239Y0076246D01*
X0091218Y0076449D01*
X0090203Y0076677D01*
X0089193Y0076930D01*
X0088190Y0077208D01*
X0087194Y0077510D01*
X0086206Y0077836D01*
X0085226Y0078187D01*
X0084255Y0078561D01*
X0083294Y0078960D01*
X0082343Y0079381D01*
X0081402Y0079826D01*
X0080472Y0080294D01*
X0079554Y0080785D01*
X0078649Y0081298D01*
X0077756Y0081833D01*
X0076877Y0082389D01*
X0076012Y0082968D01*
X0075161Y0083567D01*
X0074325Y0084187D01*
X0073505Y0084827D01*
X0072700Y0085487D01*
X0071912Y0086167D01*
X0071141Y0086866D01*
X0070387Y0087583D01*
X0069652Y0088319D01*
X0068934Y0089073D01*
X0068235Y0089844D01*
X0067555Y0090632D01*
X0066895Y0091436D01*
X0066255Y0092257D01*
X0065635Y0093092D01*
X0065036Y0093943D01*
X0064457Y0094809D01*
X0063901Y0095688D01*
X0063366Y0096580D01*
X0062853Y0097486D01*
X0062362Y0098404D01*
X0061894Y0099333D01*
X0061449Y0100274D01*
X0061027Y0101225D01*
X0060629Y0102187D01*
X0060255Y0103158D01*
X0059904Y0104137D01*
X0059577Y0105126D01*
X0059275Y0106121D01*
X0058998Y0107124D01*
X0058745Y0108134D01*
X0058517Y0109149D01*
X0058314Y0110170D01*
X0058136Y0111195D01*
X0057983Y0112225D01*
X0057856Y0113257D01*
X0057754Y0114293D01*
X0057677Y0115331D01*
X0057626Y0116370D01*
X0057600Y0117411D01*
X0057600Y0118451D01*
X0057626Y0119492D01*
X0057677Y0120531D01*
X0057753Y0121569D01*
X0057855Y0122605D01*
X0057982Y0123638D01*
X0058135Y0124667D01*
X0058313Y0125692D01*
X0058516Y0126713D01*
X0058744Y0127728D01*
X0058997Y0128738D01*
X0059274Y0129741D01*
X0059576Y0130737D01*
X0059903Y0131725D01*
X0060253Y0132705D01*
X0060628Y0133676D01*
X0061026Y0134637D01*
X0061448Y0135589D01*
X0061892Y0136529D01*
X0062360Y0137459D01*
X0062851Y0138377D01*
X0063364Y0139282D01*
X0063899Y0140175D01*
X0064455Y0141054D01*
X0065033Y0141920D01*
X0065633Y0142770D01*
X0066252Y0143606D01*
X0066893Y0144427D01*
X0067553Y0145231D01*
X0068233Y0146019D01*
X0068931Y0146790D01*
X0069649Y0147544D01*
X0070385Y0148280D01*
X0071138Y0148998D01*
X0071909Y0149697D01*
X0072697Y0150376D01*
X0073502Y0151037D01*
X0074322Y0151677D01*
X0075158Y0152297D01*
X0076009Y0152896D01*
X0076874Y0153475D01*
X0077753Y0154031D01*
X0078646Y0154566D01*
X0079551Y0155079D01*
X0080469Y0155570D01*
X0081398Y0156038D01*
X0082339Y0156483D01*
X0083290Y0156905D01*
X0084252Y0157303D01*
X0084252Y0169114D01*
X0115748Y0169114D01*
X0115748Y0157303D01*
X0143825Y0136520D02*
X0147049Y0137384D01*
X0146027Y0137974D02*
X0149092Y0136204D01*
X0147912Y0134160D02*
X0151452Y0140291D01*
X0148387Y0142061D01*
X0146775Y0141629D01*
X0145595Y0139585D01*
X0146027Y0137974D01*
X0150694Y0133917D02*
X0151126Y0132305D01*
X0153169Y0131125D01*
X0154781Y0131557D01*
X0153054Y0138004D01*
X0150694Y0133917D01*
X0153054Y0138004D02*
X0154666Y0138436D01*
X0156709Y0137256D01*
X0157141Y0135644D01*
X0154781Y0131557D01*
X0156973Y0130291D02*
X0157404Y0128679D01*
X0159448Y0127499D01*
X0161060Y0127931D01*
X0159333Y0134379D01*
X0156973Y0130291D01*
X0161060Y0127931D02*
X0163420Y0132019D01*
X0162988Y0133631D01*
X0160945Y0134811D01*
X0159333Y0134379D01*
X0162661Y0125644D02*
X0166749Y0123284D01*
X0164705Y0124464D02*
X0168245Y0130596D01*
X0169109Y0127372D01*
X0166250Y0145315D02*
X0162913Y0148653D01*
X0164582Y0146984D02*
X0169588Y0151991D01*
X0169588Y0148653D01*
X0165296Y0154614D02*
X0165296Y0156283D01*
X0163627Y0157952D01*
X0161958Y0157952D01*
X0161958Y0151277D01*
X0160289Y0151277D01*
X0158620Y0152945D01*
X0158620Y0154614D01*
X0161958Y0157952D01*
X0159334Y0158906D02*
X0156831Y0156403D01*
X0155162Y0156403D01*
X0152659Y0158906D01*
X0155997Y0162244D01*
X0153373Y0163199D02*
X0151705Y0164868D01*
X0150870Y0160696D02*
X0155877Y0165702D01*
X0152539Y0169040D01*
X0165296Y0154614D02*
X0161958Y0151277D01*
X0140164Y0118543D02*
X0140164Y0111463D01*
X0140164Y0115003D02*
X0138984Y0116183D01*
X0136624Y0116183D01*
X0135444Y0115003D01*
X0135444Y0111463D01*
X0132914Y0112643D02*
X0132914Y0115003D01*
X0131734Y0116183D01*
X0129374Y0116183D01*
X0128194Y0115003D01*
X0128194Y0112643D01*
X0129374Y0111463D01*
X0131734Y0111463D01*
X0132914Y0112643D01*
X0125664Y0111463D02*
X0123304Y0111463D01*
X0124484Y0111463D02*
X0124484Y0118543D01*
X0125664Y0118543D01*
X0116601Y0106732D02*
X0116601Y0099652D01*
X0119074Y0099652D02*
X0120254Y0100832D01*
X0120254Y0105552D01*
X0121434Y0104372D02*
X0119074Y0104372D01*
X0116601Y0103192D02*
X0115421Y0104372D01*
X0113061Y0104372D01*
X0111881Y0103192D01*
X0111881Y0099652D01*
X0109351Y0099652D02*
X0106991Y0099652D01*
X0108171Y0099652D02*
X0108171Y0104372D01*
X0109351Y0104372D01*
X0108171Y0106732D02*
X0108171Y0107912D01*
X0104517Y0103192D02*
X0103337Y0102012D01*
X0100977Y0102012D01*
X0099797Y0100832D01*
X0100977Y0099652D01*
X0104517Y0099652D01*
X0104517Y0103192D02*
X0103337Y0104372D01*
X0099797Y0104372D01*
X0090677Y0109103D02*
X0089497Y0109103D01*
X0088317Y0110283D01*
X0088317Y0116183D01*
X0091858Y0116183D01*
X0093038Y0115003D01*
X0093038Y0112643D01*
X0091858Y0111463D01*
X0088317Y0111463D01*
X0088837Y0104372D02*
X0085297Y0104372D01*
X0086477Y0102012D02*
X0088837Y0102012D01*
X0090017Y0103192D01*
X0088837Y0104372D01*
X0086477Y0102012D02*
X0085297Y0100832D01*
X0086477Y0099652D01*
X0090017Y0099652D01*
X0056638Y0137855D02*
X0052551Y0135495D01*
X0054595Y0136675D02*
X0051054Y0142806D01*
X0054278Y0141942D01*
X0047409Y0139339D02*
X0045797Y0139771D01*
X0043754Y0138591D01*
X0043322Y0136979D01*
X0049769Y0135251D01*
X0049338Y0133639D01*
X0047294Y0132459D01*
X0045682Y0132891D01*
X0043322Y0136979D01*
X0041130Y0135714D02*
X0039519Y0136146D01*
X0037475Y0134966D01*
X0037043Y0133354D01*
X0043491Y0131626D01*
X0043059Y0130014D01*
X0041015Y0128834D01*
X0039403Y0129266D01*
X0037043Y0133354D01*
X0034262Y0133111D02*
X0031196Y0131341D01*
X0030764Y0129729D01*
X0031944Y0127685D01*
X0033556Y0127253D01*
X0036622Y0129023D01*
X0037802Y0126979D02*
X0034262Y0133111D01*
X0034578Y0127843D02*
X0033714Y0124619D01*
X0043491Y0131626D02*
X0041130Y0135714D01*
X0047409Y0139339D02*
X0049769Y0135251D01*
X0036554Y0148870D02*
X0031548Y0153876D01*
X0028211Y0150538D01*
X0032383Y0149704D02*
X0034051Y0151373D01*
X0035006Y0153996D02*
X0038344Y0150659D01*
X0040847Y0153162D01*
X0040847Y0154831D01*
X0038344Y0157334D01*
X0039298Y0159957D02*
X0045974Y0159957D01*
X0045974Y0158289D01*
X0044305Y0156620D01*
X0042636Y0156620D01*
X0039298Y0159957D01*
X0039298Y0161626D01*
X0040967Y0163295D01*
X0042636Y0163295D01*
X0045974Y0159957D01*
X0048597Y0160912D02*
X0051935Y0164250D01*
X0050266Y0162581D02*
X0045260Y0167587D01*
X0048597Y0167587D01*
X0131215Y0103192D02*
X0131215Y0099652D01*
X0131215Y0103192D02*
X0132395Y0104372D01*
X0135935Y0104372D01*
X0135935Y0099652D01*
X0138465Y0100832D02*
X0138465Y0103192D01*
X0139645Y0104372D01*
X0142005Y0104372D01*
X0143185Y0103192D01*
X0143185Y0100832D01*
X0142005Y0099652D01*
X0139645Y0099652D01*
X0138465Y0100832D01*
X0143423Y0084999D02*
X0143423Y0077919D01*
X0143423Y0080279D02*
X0139883Y0082639D01*
X0143423Y0080279D02*
X0139883Y0077919D01*
X0145953Y0083819D02*
X0150673Y0079099D01*
X0150673Y0077919D01*
X0154383Y0077919D02*
X0154383Y0084999D01*
X0157923Y0081459D01*
X0153203Y0081459D01*
X0150673Y0084999D02*
X0145953Y0084999D01*
X0145953Y0083819D01*
D52*
X0010000Y0100000D02*
X0010027Y0102209D01*
X0010108Y0104416D01*
X0010244Y0106621D01*
X0010433Y0108822D01*
X0010677Y0111017D01*
X0010974Y0113206D01*
X0011325Y0115387D01*
X0011729Y0117558D01*
X0012187Y0119719D01*
X0012697Y0121868D01*
X0013260Y0124004D01*
X0013875Y0126126D01*
X0014542Y0128231D01*
X0015261Y0130320D01*
X0016031Y0132391D01*
X0016851Y0134442D01*
X0017721Y0136472D01*
X0018641Y0138480D01*
X0019610Y0140465D01*
X0020627Y0142426D01*
X0021692Y0144361D01*
X0022804Y0146269D01*
X0023963Y0148150D01*
X0025168Y0150001D01*
X0026417Y0151823D01*
X0027711Y0153613D01*
X0029049Y0155371D01*
X0030429Y0157095D01*
X0031851Y0158786D01*
X0033314Y0160440D01*
X0034818Y0162059D01*
X0036360Y0163640D01*
X0037941Y0165182D01*
X0039560Y0166686D01*
X0041214Y0168149D01*
X0042905Y0169571D01*
X0044629Y0170951D01*
X0046387Y0172289D01*
X0048177Y0173583D01*
X0049999Y0174832D01*
X0051850Y0176037D01*
X0053731Y0177196D01*
X0055639Y0178308D01*
X0057574Y0179373D01*
X0059535Y0180390D01*
X0061520Y0181359D01*
X0063528Y0182279D01*
X0065558Y0183149D01*
X0067609Y0183969D01*
X0069680Y0184739D01*
X0071769Y0185458D01*
X0073874Y0186125D01*
X0075996Y0186740D01*
X0078132Y0187303D01*
X0080281Y0187813D01*
X0082442Y0188271D01*
X0084613Y0188675D01*
X0086794Y0189026D01*
X0088983Y0189323D01*
X0091178Y0189567D01*
X0093379Y0189756D01*
X0095584Y0189892D01*
X0097791Y0189973D01*
X0100000Y0190000D01*
X0102209Y0189973D01*
X0104416Y0189892D01*
X0106621Y0189756D01*
X0108822Y0189567D01*
X0111017Y0189323D01*
X0113206Y0189026D01*
X0115387Y0188675D01*
X0117558Y0188271D01*
X0119719Y0187813D01*
X0121868Y0187303D01*
X0124004Y0186740D01*
X0126126Y0186125D01*
X0128231Y0185458D01*
X0130320Y0184739D01*
X0132391Y0183969D01*
X0134442Y0183149D01*
X0136472Y0182279D01*
X0138480Y0181359D01*
X0140465Y0180390D01*
X0142426Y0179373D01*
X0144361Y0178308D01*
X0146269Y0177196D01*
X0148150Y0176037D01*
X0150001Y0174832D01*
X0151823Y0173583D01*
X0153613Y0172289D01*
X0155371Y0170951D01*
X0157095Y0169571D01*
X0158786Y0168149D01*
X0160440Y0166686D01*
X0162059Y0165182D01*
X0163640Y0163640D01*
X0165182Y0162059D01*
X0166686Y0160440D01*
X0168149Y0158786D01*
X0169571Y0157095D01*
X0170951Y0155371D01*
X0172289Y0153613D01*
X0173583Y0151823D01*
X0174832Y0150001D01*
X0176037Y0148150D01*
X0177196Y0146269D01*
X0178308Y0144361D01*
X0179373Y0142426D01*
X0180390Y0140465D01*
X0181359Y0138480D01*
X0182279Y0136472D01*
X0183149Y0134442D01*
X0183969Y0132391D01*
X0184739Y0130320D01*
X0185458Y0128231D01*
X0186125Y0126126D01*
X0186740Y0124004D01*
X0187303Y0121868D01*
X0187813Y0119719D01*
X0188271Y0117558D01*
X0188675Y0115387D01*
X0189026Y0113206D01*
X0189323Y0111017D01*
X0189567Y0108822D01*
X0189756Y0106621D01*
X0189892Y0104416D01*
X0189973Y0102209D01*
X0190000Y0100000D01*
X0189973Y0097791D01*
X0189892Y0095584D01*
X0189756Y0093379D01*
X0189567Y0091178D01*
X0189323Y0088983D01*
X0189026Y0086794D01*
X0188675Y0084613D01*
X0188271Y0082442D01*
X0187813Y0080281D01*
X0187303Y0078132D01*
X0186740Y0075996D01*
X0186125Y0073874D01*
X0185458Y0071769D01*
X0184739Y0069680D01*
X0183969Y0067609D01*
X0183149Y0065558D01*
X0182279Y0063528D01*
X0181359Y0061520D01*
X0180390Y0059535D01*
X0179373Y0057574D01*
X0178308Y0055639D01*
X0177196Y0053731D01*
X0176037Y0051850D01*
X0174832Y0049999D01*
X0173583Y0048177D01*
X0172289Y0046387D01*
X0170951Y0044629D01*
X0169571Y0042905D01*
X0168149Y0041214D01*
X0166686Y0039560D01*
X0165182Y0037941D01*
X0163640Y0036360D01*
X0162059Y0034818D01*
X0160440Y0033314D01*
X0158786Y0031851D01*
X0157095Y0030429D01*
X0155371Y0029049D01*
X0153613Y0027711D01*
X0151823Y0026417D01*
X0150001Y0025168D01*
X0148150Y0023963D01*
X0146269Y0022804D01*
X0144361Y0021692D01*
X0142426Y0020627D01*
X0140465Y0019610D01*
X0138480Y0018641D01*
X0136472Y0017721D01*
X0134442Y0016851D01*
X0132391Y0016031D01*
X0130320Y0015261D01*
X0128231Y0014542D01*
X0126126Y0013875D01*
X0124004Y0013260D01*
X0121868Y0012697D01*
X0119719Y0012187D01*
X0117558Y0011729D01*
X0115387Y0011325D01*
X0113206Y0010974D01*
X0111017Y0010677D01*
X0108822Y0010433D01*
X0106621Y0010244D01*
X0104416Y0010108D01*
X0102209Y0010027D01*
X0100000Y0010000D01*
X0097791Y0010027D01*
X0095584Y0010108D01*
X0093379Y0010244D01*
X0091178Y0010433D01*
X0088983Y0010677D01*
X0086794Y0010974D01*
X0084613Y0011325D01*
X0082442Y0011729D01*
X0080281Y0012187D01*
X0078132Y0012697D01*
X0075996Y0013260D01*
X0073874Y0013875D01*
X0071769Y0014542D01*
X0069680Y0015261D01*
X0067609Y0016031D01*
X0065558Y0016851D01*
X0063528Y0017721D01*
X0061520Y0018641D01*
X0059535Y0019610D01*
X0057574Y0020627D01*
X0055639Y0021692D01*
X0053731Y0022804D01*
X0051850Y0023963D01*
X0049999Y0025168D01*
X0048177Y0026417D01*
X0046387Y0027711D01*
X0044629Y0029049D01*
X0042905Y0030429D01*
X0041214Y0031851D01*
X0039560Y0033314D01*
X0037941Y0034818D01*
X0036360Y0036360D01*
X0034818Y0037941D01*
X0033314Y0039560D01*
X0031851Y0041214D01*
X0030429Y0042905D01*
X0029049Y0044629D01*
X0027711Y0046387D01*
X0026417Y0048177D01*
X0025168Y0049999D01*
X0023963Y0051850D01*
X0022804Y0053731D01*
X0021692Y0055639D01*
X0020627Y0057574D01*
X0019610Y0059535D01*
X0018641Y0061520D01*
X0017721Y0063528D01*
X0016851Y0065558D01*
X0016031Y0067609D01*
X0015261Y0069680D01*
X0014542Y0071769D01*
X0013875Y0073874D01*
X0013260Y0075996D01*
X0012697Y0078132D01*
X0012187Y0080281D01*
X0011729Y0082442D01*
X0011325Y0084613D01*
X0010974Y0086794D01*
X0010677Y0088983D01*
X0010433Y0091178D01*
X0010244Y0093379D01*
X0010108Y0095584D01*
X0010027Y0097791D01*
X0010000Y0100000D01*
D89*
X0021583Y0074553D02*
X0017380Y0070350D01*
X0017380Y0074553D01*
X0017380Y0076795D02*
X0023685Y0076795D01*
X0017380Y0080999D01*
X0023685Y0080999D01*
X0022634Y0083241D02*
X0023685Y0084291D01*
X0023685Y0086393D01*
X0022634Y0087444D01*
X0021583Y0087444D01*
X0020532Y0086393D01*
X0019481Y0087444D01*
X0018430Y0087444D01*
X0017380Y0086393D01*
X0017380Y0084291D01*
X0018430Y0083241D01*
X0020532Y0085342D02*
X0020532Y0086393D01*
X0021583Y0089686D02*
X0020532Y0090737D01*
X0020532Y0093890D01*
X0018430Y0093890D02*
X0022634Y0093890D01*
X0023685Y0092839D01*
X0023685Y0090737D01*
X0022634Y0089686D01*
X0021583Y0089686D01*
X0018430Y0089686D02*
X0017380Y0090737D01*
X0017380Y0092839D01*
X0018430Y0093890D01*
X0018430Y0096132D02*
X0022634Y0100335D01*
X0018430Y0100335D01*
X0017380Y0099284D01*
X0017380Y0097182D01*
X0018430Y0096132D01*
X0022634Y0096132D01*
X0023685Y0097182D01*
X0023685Y0099284D01*
X0022634Y0100335D01*
X0020532Y0102577D02*
X0020532Y0106781D01*
X0017380Y0105730D02*
X0023685Y0105730D01*
X0020532Y0102577D01*
X0021583Y0074553D02*
X0022634Y0074553D01*
X0023685Y0073502D01*
X0023685Y0071400D01*
X0022634Y0070350D01*
X0175742Y0068885D02*
X0179946Y0073089D01*
X0180997Y0073089D01*
X0182048Y0072038D01*
X0182048Y0069936D01*
X0180997Y0068885D01*
X0175742Y0068885D02*
X0175742Y0073089D01*
X0175742Y0075331D02*
X0182048Y0075331D01*
X0175742Y0079534D01*
X0182048Y0079534D01*
X0180997Y0081776D02*
X0182048Y0082827D01*
X0182048Y0084929D01*
X0180997Y0085980D01*
X0179946Y0085980D01*
X0178895Y0084929D01*
X0177844Y0085980D01*
X0176793Y0085980D01*
X0175742Y0084929D01*
X0175742Y0082827D01*
X0176793Y0081776D01*
X0178895Y0083878D02*
X0178895Y0084929D01*
X0179946Y0088222D02*
X0178895Y0089273D01*
X0178895Y0092425D01*
X0176793Y0092425D02*
X0180997Y0092425D01*
X0182048Y0091375D01*
X0182048Y0089273D01*
X0180997Y0088222D01*
X0179946Y0088222D01*
X0176793Y0088222D02*
X0175742Y0089273D01*
X0175742Y0091375D01*
X0176793Y0092425D01*
X0176793Y0094667D02*
X0180997Y0098871D01*
X0176793Y0098871D01*
X0175742Y0097820D01*
X0175742Y0095718D01*
X0176793Y0094667D01*
X0180997Y0094667D01*
X0182048Y0095718D01*
X0182048Y0097820D01*
X0180997Y0098871D01*
X0178895Y0101113D02*
X0178895Y0105316D01*
X0175742Y0104265D02*
X0182048Y0104265D01*
X0178895Y0101113D01*
D195*
X0010500Y0010500D02*
X0010500Y0190500D01*
X0010500Y0190500D02*
X0190500Y0190500D01*
X0190500Y0010500D01*
X0010500Y0010500D01*
X0010000Y0200000D02*
G75*
%LPD*%
D89*
X0041098Y0268024D02*
X0044638Y0270384D01*
X0041098Y0272744D01*
X0044638Y0275104D02*
X0044638Y0268024D01*
X0047168Y0273924D02*
X0051888Y0269204D01*
X0051888Y0268024D01*
X0055598Y0268024D02*
X0055598Y0275104D01*
X0059138Y0271564D01*
X0054418Y0271564D01*
X0051888Y0275104D02*
X0047168Y0275104D01*
X0047168Y0273924D01*
X0063432Y0289652D02*
X0063432Y0290832D01*
X0063432Y0293192D02*
X0063432Y0297912D01*
X0067142Y0294372D02*
X0065962Y0293192D01*
X0065962Y0292012D01*
X0070682Y0292012D01*
X0070682Y0293192D02*
X0069502Y0294372D01*
X0067142Y0294372D01*
X0070682Y0293192D02*
X0070682Y0290832D01*
X0069502Y0289652D01*
X0067142Y0289652D01*
X0073213Y0289652D02*
X0076753Y0289652D01*
X0077933Y0290832D01*
X0077933Y0293192D01*
X0076753Y0294372D01*
X0073213Y0294372D01*
X0073213Y0296732D02*
X0073213Y0289652D01*
X0080406Y0289652D02*
X0082766Y0289652D01*
X0081586Y0289652D02*
X0081586Y0294372D01*
X0082766Y0294372D01*
X0081586Y0296732D02*
X0081586Y0297912D01*
X0082247Y0301463D02*
X0081067Y0302643D01*
X0081067Y0305003D01*
X0082247Y0306183D01*
X0084607Y0306183D01*
X0085787Y0305003D01*
X0085787Y0302643D01*
X0084607Y0301463D01*
X0082247Y0301463D01*
X0078537Y0302643D02*
X0078537Y0305003D01*
X0077357Y0306183D01*
X0074997Y0306183D01*
X0073817Y0305003D01*
X0073817Y0303823D01*
X0078537Y0303823D01*
X0078537Y0302643D02*
X0077357Y0301463D01*
X0074997Y0301463D01*
X0071287Y0301463D02*
X0067747Y0301463D01*
X0066567Y0302643D01*
X0067747Y0303823D01*
X0070107Y0303823D01*
X0071287Y0305003D01*
X0070107Y0306183D01*
X0066567Y0306183D01*
X0082276Y0312094D02*
X0083456Y0310914D01*
X0084636Y0310914D01*
X0085816Y0313274D02*
X0082276Y0313274D01*
X0082276Y0312094D02*
X0082276Y0317994D01*
X0086996Y0314454D02*
X0085816Y0313274D01*
X0086996Y0314454D02*
X0086996Y0317994D01*
X0089497Y0317994D02*
X0090677Y0317994D01*
X0093037Y0315634D01*
X0093037Y0313274D02*
X0093037Y0317994D01*
X0095568Y0316814D02*
X0095568Y0315634D01*
X0100288Y0315634D01*
X0100288Y0316814D02*
X0099108Y0317994D01*
X0096748Y0317994D01*
X0095568Y0316814D01*
X0096748Y0313274D02*
X0099108Y0313274D01*
X0100288Y0314454D01*
X0100288Y0316814D01*
X0102761Y0317994D02*
X0105121Y0317994D01*
X0103941Y0319174D02*
X0103941Y0314454D01*
X0102761Y0313274D01*
X0107595Y0313274D02*
X0108775Y0314454D01*
X0108775Y0319174D01*
X0109955Y0317994D02*
X0107595Y0317994D01*
X0112485Y0316814D02*
X0112485Y0313274D01*
X0116025Y0313274D01*
X0117205Y0314454D01*
X0116025Y0315634D01*
X0112485Y0315634D01*
X0112485Y0316814D02*
X0113665Y0317994D01*
X0116025Y0317994D01*
X0119735Y0317994D02*
X0120915Y0316814D01*
X0124455Y0316814D01*
X0120915Y0316814D02*
X0119735Y0315634D01*
X0119735Y0314454D01*
X0120915Y0313274D01*
X0124455Y0313274D01*
X0124455Y0320354D01*
X0120915Y0320354D01*
X0119735Y0319174D01*
X0119735Y0317994D01*
X0116110Y0308543D02*
X0116110Y0301463D01*
X0119650Y0301463D01*
X0120830Y0302643D01*
X0120830Y0305003D01*
X0119650Y0306183D01*
X0116110Y0306183D01*
X0113580Y0305003D02*
X0112400Y0306183D01*
X0110040Y0306183D01*
X0108860Y0305003D01*
X0108860Y0303823D01*
X0113580Y0303823D01*
X0113580Y0302643D02*
X0113580Y0305003D01*
X0113580Y0302643D02*
X0112400Y0301463D01*
X0110040Y0301463D01*
X0106330Y0301463D02*
X0106330Y0306183D01*
X0106330Y0303823D02*
X0103970Y0306183D01*
X0102790Y0306183D01*
X0115748Y0347303D02*
X0116710Y0346905D01*
X0117661Y0346483D01*
X0118602Y0346038D01*
X0119531Y0345570D01*
X0120449Y0345079D01*
X0121354Y0344566D01*
X0122247Y0344031D01*
X0123126Y0343475D01*
X0123991Y0342896D01*
X0124842Y0342297D01*
X0125678Y0341677D01*
X0126498Y0341037D01*
X0127303Y0340376D01*
X0128091Y0339697D01*
X0128862Y0338998D01*
X0129615Y0338280D01*
X0130351Y0337544D01*
X0131069Y0336790D01*
X0131767Y0336019D01*
X0132447Y0335231D01*
X0133107Y0334427D01*
X0133748Y0333606D01*
X0134367Y0332770D01*
X0134967Y0331920D01*
X0135545Y0331054D01*
X0136101Y0330175D01*
X0136636Y0329282D01*
X0137149Y0328377D01*
X0137640Y0327459D01*
X0138108Y0326529D01*
X0138552Y0325589D01*
X0138974Y0324637D01*
X0139372Y0323676D01*
X0139747Y0322705D01*
X0140097Y0321725D01*
X0140424Y0320737D01*
X0140726Y0319741D01*
X0141003Y0318738D01*
X0141256Y0317728D01*
X0141484Y0316713D01*
X0141687Y0315692D01*
X0141865Y0314667D01*
X0142018Y0313638D01*
X0142145Y0312605D01*
X0142247Y0311569D01*
X0142323Y0310531D01*
X0142374Y0309492D01*
X0142400Y0308451D01*
X0142400Y0307411D01*
X0142374Y0306370D01*
X0142323Y0305331D01*
X0142246Y0304293D01*
X0142144Y0303257D01*
X0142017Y0302225D01*
X0141864Y0301195D01*
X0141686Y0300170D01*
X0141483Y0299149D01*
X0141255Y0298134D01*
X0141002Y0297124D01*
X0140725Y0296121D01*
X0140423Y0295126D01*
X0140096Y0294137D01*
X0139745Y0293158D01*
X0139371Y0292187D01*
X0138973Y0291225D01*
X0138551Y0290274D01*
X0138106Y0289333D01*
X0137638Y0288404D01*
X0137147Y0287486D01*
X0136634Y0286580D01*
X0136099Y0285688D01*
X0135543Y0284809D01*
X0134964Y0283943D01*
X0134365Y0283092D01*
X0133745Y0282257D01*
X0133105Y0281436D01*
X0132445Y0280632D01*
X0131765Y0279844D01*
X0131066Y0279073D01*
X0130348Y0278319D01*
X0129613Y0277583D01*
X0128859Y0276866D01*
X0128088Y0276167D01*
X0127300Y0275487D01*
X0126495Y0274827D01*
X0125675Y0274187D01*
X0124839Y0273567D01*
X0123988Y0272968D01*
X0123123Y0272389D01*
X0122244Y0271833D01*
X0121351Y0271298D01*
X0120446Y0270785D01*
X0119528Y0270294D01*
X0118598Y0269826D01*
X0117657Y0269381D01*
X0116706Y0268960D01*
X0115745Y0268561D01*
X0114774Y0268187D01*
X0113794Y0267836D01*
X0112806Y0267510D01*
X0111810Y0267208D01*
X0110807Y0266930D01*
X0109797Y0266677D01*
X0108782Y0266449D01*
X0107761Y0266246D01*
X0106736Y0266068D01*
X0105706Y0265916D01*
X0104674Y0265788D01*
X0103638Y0265686D01*
X0102600Y0265610D01*
X0101561Y0265559D01*
X0100520Y0265533D01*
X0099480Y0265533D01*
X0098439Y0265559D01*
X0097400Y0265610D01*
X0096362Y0265686D01*
X0095326Y0265788D01*
X0094294Y0265916D01*
X0093264Y0266068D01*
X0092239Y0266246D01*
X0091218Y0266449D01*
X0090203Y0266677D01*
X0089193Y0266930D01*
X0088190Y0267208D01*
X0087194Y0267510D01*
X0086206Y0267836D01*
X0085226Y0268187D01*
X0084255Y0268561D01*
X0083294Y0268960D01*
X0082343Y0269381D01*
X0081402Y0269826D01*
X0080472Y0270294D01*
X0079554Y0270785D01*
X0078649Y0271298D01*
X0077756Y0271833D01*
X0076877Y0272389D01*
X0076012Y0272968D01*
X0075161Y0273567D01*
X0074325Y0274187D01*
X0073505Y0274827D01*
X0072700Y0275487D01*
X0071912Y0276167D01*
X0071141Y0276866D01*
X0070387Y0277583D01*
X0069652Y0278319D01*
X0068934Y0279073D01*
X0068235Y0279844D01*
X0067555Y0280632D01*
X0066895Y0281436D01*
X0066255Y0282257D01*
X0065635Y0283092D01*
X0065036Y0283943D01*
X0064457Y0284809D01*
X0063901Y0285688D01*
X0063366Y0286580D01*
X0062853Y0287486D01*
X0062362Y0288404D01*
X0061894Y0289333D01*
X0061449Y0290274D01*
X0061027Y0291225D01*
X0060629Y0292187D01*
X0060255Y0293158D01*
X0059904Y0294137D01*
X0059577Y0295126D01*
X0059275Y0296121D01*
X0058998Y0297124D01*
X0058745Y0298134D01*
X0058517Y0299149D01*
X0058314Y0300170D01*
X0058136Y0301195D01*
X0057983Y0302225D01*
X0057856Y0303257D01*
X0057754Y0304293D01*
X0057677Y0305331D01*
X0057626Y0306370D01*
X0057600Y0307411D01*
X0057600Y0308451D01*
X0057626Y0309492D01*
X0057677Y0310531D01*
X0057753Y0311569D01*
X0057855Y0312605D01*
X0057982Y0313638D01*
X0058135Y0314667D01*
X0058313Y0315692D01*
X0058516Y0316713D01*
X0058744Y0317728D01*
X0058997Y0318738D01*
X0059274Y0319741D01*
X0059576Y0320737D01*
X0059903Y0321725D01*
X0060253Y0322705D01*
X0060628Y0323676D01*
X0061026Y0324637D01*
X0061448Y0325589D01*
X0061892Y0326529D01*
X0062360Y0327459D01*
X0062851Y0328377D01*
X0063364Y0329282D01*
X0063899Y0330175D01*
X0064455Y0331054D01*
X0065033Y0331920D01*
X0065633Y0332770D01*
X0066252Y0333606D01*
X0066893Y0334427D01*
X0067553Y0335231D01*
X0068233Y0336019D01*
X0068931Y0336790D01*
X0069649Y0337544D01*
X0070385Y0338280D01*
X0071138Y0338998D01*
X0071909Y0339697D01*
X0072697Y0340376D01*
X0073502Y0341037D01*
X0074322Y0341677D01*
X0075158Y0342297D01*
X0076009Y0342896D01*
X0076874Y0343475D01*
X0077753Y0344031D01*
X0078646Y0344566D01*
X0079551Y0345079D01*
X0080469Y0345570D01*
X0081398Y0346038D01*
X0082339Y0346483D01*
X0083290Y0346905D01*
X0084252Y0347303D01*
X0084252Y0359114D01*
X0115748Y0359114D01*
X0115748Y0347303D01*
X0143825Y0326520D02*
X0147049Y0327384D01*
X0146027Y0327974D02*
X0149092Y0326204D01*
X0147912Y0324160D02*
X0151452Y0330291D01*
X0148387Y0332061D01*
X0146775Y0331629D01*
X0145595Y0329585D01*
X0146027Y0327974D01*
X0150694Y0323917D02*
X0151126Y0322305D01*
X0153169Y0321125D01*
X0154781Y0321557D01*
X0153054Y0328004D01*
X0150694Y0323917D01*
X0153054Y0328004D02*
X0154666Y0328436D01*
X0156709Y0327256D01*
X0157141Y0325644D01*
X0154781Y0321557D01*
X0156973Y0320291D02*
X0157404Y0318679D01*
X0159448Y0317499D01*
X0161060Y0317931D01*
X0159333Y0324379D01*
X0156973Y0320291D01*
X0161060Y0317931D02*
X0163420Y0322019D01*
X0162988Y0323631D01*
X0160945Y0324811D01*
X0159333Y0324379D01*
X0162661Y0315644D02*
X0166749Y0313284D01*
X0164705Y0314464D02*
X0168245Y0320596D01*
X0169109Y0317372D01*
X0166250Y0335315D02*
X0162913Y0338653D01*
X0164582Y0336984D02*
X0169588Y0341991D01*
X0169588Y0338653D01*
X0165296Y0344614D02*
X0165296Y0346283D01*
X0163627Y0347952D01*
X0161958Y0347952D01*
X0161958Y0341277D01*
X0160289Y0341277D01*
X0158620Y0342945D01*
X0158620Y0344614D01*
X0161958Y0347952D01*
X0159334Y0348906D02*
X0156831Y0346403D01*
X0155162Y0346403D01*
X0152659Y0348906D01*
X0155997Y0352244D01*
X0153373Y0353199D02*
X0151705Y0354868D01*
X0150870Y0350696D02*
X0155877Y0355702D01*
X0152539Y0359040D01*
X0165296Y0344614D02*
X0161958Y0341277D01*
X0140164Y0308543D02*
X0140164Y0301463D01*
X0140164Y0305003D02*
X0138984Y0306183D01*
X0136624Y0306183D01*
X0135444Y0305003D01*
X0135444Y0301463D01*
X0132914Y0302643D02*
X0132914Y0305003D01*
X0131734Y0306183D01*
X0129374Y0306183D01*
X0128194Y0305003D01*
X0128194Y0302643D01*
X0129374Y0301463D01*
X0131734Y0301463D01*
X0132914Y0302643D01*
X0125664Y0301463D02*
X0123304Y0301463D01*
X0124484Y0301463D02*
X0124484Y0308543D01*
X0125664Y0308543D01*
X0116601Y0296732D02*
X0116601Y0289652D01*
X0119074Y0289652D02*
X0120254Y0290832D01*
X0120254Y0295552D01*
X0121434Y0294372D02*
X0119074Y0294372D01*
X0116601Y0293192D02*
X0115421Y0294372D01*
X0113061Y0294372D01*
X0111881Y0293192D01*
X0111881Y0289652D01*
X0109351Y0289652D02*
X0106991Y0289652D01*
X0108171Y0289652D02*
X0108171Y0294372D01*
X0109351Y0294372D01*
X0108171Y0296732D02*
X0108171Y0297912D01*
X0104517Y0293192D02*
X0103337Y0292012D01*
X0100977Y0292012D01*
X0099797Y0290832D01*
X0100977Y0289652D01*
X0104517Y0289652D01*
X0104517Y0293192D02*
X0103337Y0294372D01*
X0099797Y0294372D01*
X0090677Y0299103D02*
X0089497Y0299103D01*
X0088317Y0300283D01*
X0088317Y0306183D01*
X0091858Y0306183D01*
X0093038Y0305003D01*
X0093038Y0302643D01*
X0091858Y0301463D01*
X0088317Y0301463D01*
X0088837Y0294372D02*
X0085297Y0294372D01*
X0086477Y0292012D02*
X0088837Y0292012D01*
X0090017Y0293192D01*
X0088837Y0294372D01*
X0086477Y0292012D02*
X0085297Y0290832D01*
X0086477Y0289652D01*
X0090017Y0289652D01*
X0056638Y0327855D02*
X0052551Y0325495D01*
X0054595Y0326675D02*
X0051054Y0332806D01*
X0054278Y0331942D01*
X0047409Y0329339D02*
X0045797Y0329771D01*
X0043754Y0328591D01*
X0043322Y0326979D01*
X0049769Y0325251D01*
X0049338Y0323639D01*
X0047294Y0322459D01*
X0045682Y0322891D01*
X0043322Y0326979D01*
X0041130Y0325714D02*
X0039519Y0326146D01*
X0037475Y0324966D01*
X0037043Y0323354D01*
X0043491Y0321626D01*
X0043059Y0320014D01*
X0041015Y0318834D01*
X0039403Y0319266D01*
X0037043Y0323354D01*
X0034262Y0323111D02*
X0031196Y0321341D01*
X0030764Y0319729D01*
X0031944Y0317685D01*
X0033556Y0317253D01*
X0036622Y0319023D01*
X0037802Y0316979D02*
X0034262Y0323111D01*
X0034578Y0317843D02*
X0033714Y0314619D01*
X0043491Y0321626D02*
X0041130Y0325714D01*
X0047409Y0329339D02*
X0049769Y0325251D01*
X0036554Y0338870D02*
X0031548Y0343876D01*
X0028211Y0340538D01*
X0032383Y0339704D02*
X0034051Y0341373D01*
X0035006Y0343996D02*
X0038344Y0340659D01*
X0040847Y0343162D01*
X0040847Y0344831D01*
X0038344Y0347334D01*
X0039298Y0349957D02*
X0045974Y0349957D01*
X0045974Y0348289D01*
X0044305Y0346620D01*
X0042636Y0346620D01*
X0039298Y0349957D01*
X0039298Y0351626D01*
X0040967Y0353295D01*
X0042636Y0353295D01*
X0045974Y0349957D01*
X0048597Y0350912D02*
X0051935Y0354250D01*
X0050266Y0352581D02*
X0045260Y0357587D01*
X0048597Y0357587D01*
X0131215Y0293192D02*
X0131215Y0289652D01*
X0131215Y0293192D02*
X0132395Y0294372D01*
X0135935Y0294372D01*
X0135935Y0289652D01*
X0138465Y0290832D02*
X0138465Y0293192D01*
X0139645Y0294372D01*
X0142005Y0294372D01*
X0143185Y0293192D01*
X0143185Y0290832D01*
X0142005Y0289652D01*
X0139645Y0289652D01*
X0138465Y0290832D01*
X0143423Y0274999D02*
X0143423Y0267919D01*
X0143423Y0270279D02*
X0139883Y0272639D01*
X0143423Y0270279D02*
X0139883Y0267919D01*
X0145953Y0273819D02*
X0150673Y0269099D01*
X0150673Y0267919D01*
X0154383Y0267919D02*
X0154383Y0274999D01*
X0157923Y0271459D01*
X0153203Y0271459D01*
X0150673Y0274999D02*
X0145953Y0274999D01*
X0145953Y0273819D01*
D52*
X0010000Y0290000D02*
X0010027Y0292209D01*
X0010108Y0294416D01*
X0010244Y0296621D01*
X0010433Y0298822D01*
X0010677Y0301017D01*
X0010974Y0303206D01*
X0011325Y0305387D01*
X0011729Y0307558D01*
X0012187Y0309719D01*
X0012697Y0311868D01*
X0013260Y0314004D01*
X0013875Y0316126D01*
X0014542Y0318231D01*
X0015261Y0320320D01*
X0016031Y0322391D01*
X0016851Y0324442D01*
X0017721Y0326472D01*
X0018641Y0328480D01*
X0019610Y0330465D01*
X0020627Y0332426D01*
X0021692Y0334361D01*
X0022804Y0336269D01*
X0023963Y0338150D01*
X0025168Y0340001D01*
X0026417Y0341823D01*
X0027711Y0343613D01*
X0029049Y0345371D01*
X0030429Y0347095D01*
X0031851Y0348786D01*
X0033314Y0350440D01*
X0034818Y0352059D01*
X0036360Y0353640D01*
X0037941Y0355182D01*
X0039560Y0356686D01*
X0041214Y0358149D01*
X0042905Y0359571D01*
X0044629Y0360951D01*
X0046387Y0362289D01*
X0048177Y0363583D01*
X0049999Y0364832D01*
X0051850Y0366037D01*
X0053731Y0367196D01*
X0055639Y0368308D01*
X0057574Y0369373D01*
X0059535Y0370390D01*
X0061520Y0371359D01*
X0063528Y0372279D01*
X0065558Y0373149D01*
X0067609Y0373969D01*
X0069680Y0374739D01*
X0071769Y0375458D01*
X0073874Y0376125D01*
X0075996Y0376740D01*
X0078132Y0377303D01*
X0080281Y0377813D01*
X0082442Y0378271D01*
X0084613Y0378675D01*
X0086794Y0379026D01*
X0088983Y0379323D01*
X0091178Y0379567D01*
X0093379Y0379756D01*
X0095584Y0379892D01*
X0097791Y0379973D01*
X0100000Y0380000D01*
X0102209Y0379973D01*
X0104416Y0379892D01*
X0106621Y0379756D01*
X0108822Y0379567D01*
X0111017Y0379323D01*
X0113206Y0379026D01*
X0115387Y0378675D01*
X0117558Y0378271D01*
X0119719Y0377813D01*
X0121868Y0377303D01*
X0124004Y0376740D01*
X0126126Y0376125D01*
X0128231Y0375458D01*
X0130320Y0374739D01*
X0132391Y0373969D01*
X0134442Y0373149D01*
X0136472Y0372279D01*
X0138480Y0371359D01*
X0140465Y0370390D01*
X0142426Y0369373D01*
X0144361Y0368308D01*
X0146269Y0367196D01*
X0148150Y0366037D01*
X0150001Y0364832D01*
X0151823Y0363583D01*
X0153613Y0362289D01*
X0155371Y0360951D01*
X0157095Y0359571D01*
X0158786Y0358149D01*
X0160440Y0356686D01*
X0162059Y0355182D01*
X0163640Y0353640D01*
X0165182Y0352059D01*
X0166686Y0350440D01*
X0168149Y0348786D01*
X0169571Y0347095D01*
X0170951Y0345371D01*
X0172289Y0343613D01*
X0173583Y0341823D01*
X0174832Y0340001D01*
X0176037Y0338150D01*
X0177196Y0336269D01*
X0178308Y0334361D01*
X0179373Y0332426D01*
X0180390Y0330465D01*
X0181359Y0328480D01*
X0182279Y0326472D01*
X0183149Y0324442D01*
X0183969Y0322391D01*
X0184739Y0320320D01*
X0185458Y0318231D01*
X0186125Y0316126D01*
X0186740Y0314004D01*
X0187303Y0311868D01*
X0187813Y0309719D01*
X0188271Y0307558D01*
X0188675Y0305387D01*
X0189026Y0303206D01*
X0189323Y0301017D01*
X0189567Y0298822D01*
X0189756Y0296621D01*
X0189892Y0294416D01*
X0189973Y0292209D01*
X0190000Y0290000D01*
X0189973Y0287791D01*
X0189892Y0285584D01*
X0189756Y0283379D01*
X0189567Y0281178D01*
X0189323Y0278983D01*
X0189026Y0276794D01*
X0188675Y0274613D01*
X0188271Y0272442D01*
X0187813Y0270281D01*
X0187303Y0268132D01*
X0186740Y0265996D01*
X0186125Y0263874D01*
X0185458Y0261769D01*
X0184739Y0259680D01*
X0183969Y0257609D01*
X0183149Y0255558D01*
X0182279Y0253528D01*
X0181359Y0251520D01*
X0180390Y0249535D01*
X0179373Y0247574D01*
X0178308Y0245639D01*
X0177196Y0243731D01*
X0176037Y0241850D01*
X0174832Y0239999D01*
X0173583Y0238177D01*
X0172289Y0236387D01*
X0170951Y0234629D01*
X0169571Y0232905D01*
X0168149Y0231214D01*
X0166686Y0229560D01*
X0165182Y0227941D01*
X0163640Y0226360D01*
X0162059Y0224818D01*
X0160440Y0223314D01*
X0158786Y0221851D01*
X0157095Y0220429D01*
X0155371Y0219049D01*
X0153613Y0217711D01*
X0151823Y0216417D01*
X0150001Y0215168D01*
X0148150Y0213963D01*
X0146269Y0212804D01*
X0144361Y0211692D01*
X0142426Y0210627D01*
X0140465Y0209610D01*
X0138480Y0208641D01*
X0136472Y0207721D01*
X0134442Y0206851D01*
X0132391Y0206031D01*
X0130320Y0205261D01*
X0128231Y0204542D01*
X0126126Y0203875D01*
X0124004Y0203260D01*
X0121868Y0202697D01*
X0119719Y0202187D01*
X0117558Y0201729D01*
X0115387Y0201325D01*
X0113206Y0200974D01*
X0111017Y0200677D01*
X0108822Y0200433D01*
X0106621Y0200244D01*
X0104416Y0200108D01*
X0102209Y0200027D01*
X0100000Y0200000D01*
X0097791Y0200027D01*
X0095584Y0200108D01*
X0093379Y0200244D01*
X0091178Y0200433D01*
X0088983Y0200677D01*
X0086794Y0200974D01*
X0084613Y0201325D01*
X0082442Y0201729D01*
X0080281Y0202187D01*
X0078132Y0202697D01*
X0075996Y0203260D01*
X0073874Y0203875D01*
X0071769Y0204542D01*
X0069680Y0205261D01*
X0067609Y0206031D01*
X0065558Y0206851D01*
X0063528Y0207721D01*
X0061520Y0208641D01*
X0059535Y0209610D01*
X0057574Y0210627D01*
X0055639Y0211692D01*
X0053731Y0212804D01*
X0051850Y0213963D01*
X0049999Y0215168D01*
X0048177Y0216417D01*
X0046387Y0217711D01*
X0044629Y0219049D01*
X0042905Y0220429D01*
X0041214Y0221851D01*
X0039560Y0223314D01*
X0037941Y0224818D01*
X0036360Y0226360D01*
X0034818Y0227941D01*
X0033314Y0229560D01*
X0031851Y0231214D01*
X0030429Y0232905D01*
X0029049Y0234629D01*
X0027711Y0236387D01*
X0026417Y0238177D01*
X0025168Y0239999D01*
X0023963Y0241850D01*
X0022804Y0243731D01*
X0021692Y0245639D01*
X0020627Y0247574D01*
X0019610Y0249535D01*
X0018641Y0251520D01*
X0017721Y0253528D01*
X0016851Y0255558D01*
X0016031Y0257609D01*
X0015261Y0259680D01*
X0014542Y0261769D01*
X0013875Y0263874D01*
X0013260Y0265996D01*
X0012697Y0268132D01*
X0012187Y0270281D01*
X0011729Y0272442D01*
X0011325Y0274613D01*
X0010974Y0276794D01*
X0010677Y0278983D01*
X0010433Y0281178D01*
X0010244Y0283379D01*
X0010108Y0285584D01*
X0010027Y0287791D01*
X0010000Y0290000D01*
D89*
X0021583Y0264553D02*
X0017380Y0260350D01*
X0017380Y0264553D01*
X0017380Y0266795D02*
X0023685Y0266795D01*
X0017380Y0270999D01*
X0023685Y0270999D01*
X0022634Y0273241D02*
X0023685Y0274291D01*
X0023685Y0276393D01*
X0022634Y0277444D01*
X0021583Y0277444D01*
X0020532Y0276393D01*
X0019481Y0277444D01*
X0018430Y0277444D01*
X0017380Y0276393D01*
X0017380Y0274291D01*
X0018430Y0273241D01*
X0020532Y0275342D02*
X0020532Y0276393D01*
X0021583Y0279686D02*
X0020532Y0280737D01*
X0020532Y0283890D01*
X0018430Y0283890D02*
X0022634Y0283890D01*
X0023685Y0282839D01*
X0023685Y0280737D01*
X0022634Y0279686D01*
X0021583Y0279686D01*
X0018430Y0279686D02*
X0017380Y0280737D01*
X0017380Y0282839D01*
X0018430Y0283890D01*
X0018430Y0286132D02*
X0022634Y0290335D01*
X0018430Y0290335D01*
X0017380Y0289284D01*
X0017380Y0287182D01*
X0018430Y0286132D01*
X0022634Y0286132D01*
X0023685Y0287182D01*
X0023685Y0289284D01*
X0022634Y0290335D01*
X0020532Y0292577D02*
X0020532Y0296781D01*
X0017380Y0295730D02*
X0023685Y0295730D01*
X0020532Y0292577D01*
X0021583Y0264553D02*
X0022634Y0264553D01*
X0023685Y0263502D01*
X0023685Y0261400D01*
X0022634Y0260350D01*
X0175742Y0258885D02*
X0179946Y0263089D01*
X0180997Y0263089D01*
X0182048Y0262038D01*
X0182048Y0259936D01*
X0180997Y0258885D01*
X0175742Y0258885D02*
X0175742Y0263089D01*
X0175742Y0265331D02*
X0182048Y0265331D01*
X0175742Y0269534D01*
X0182048Y0269534D01*
X0180997Y0271776D02*
X0182048Y0272827D01*
X0182048Y0274929D01*
X0180997Y0275980D01*
X0179946Y0275980D01*
X0178895Y0274929D01*
X0177844Y0275980D01*
X0176793Y0275980D01*
X0175742Y0274929D01*
X0175742Y0272827D01*
X0176793Y0271776D01*
X0178895Y0273878D02*
X0178895Y0274929D01*
X0179946Y0278222D02*
X0178895Y0279273D01*
X0178895Y0282425D01*
X0176793Y0282425D02*
X0180997Y0282425D01*
X0182048Y0281375D01*
X0182048Y0279273D01*
X0180997Y0278222D01*
X0179946Y0278222D01*
X0176793Y0278222D02*
X0175742Y0279273D01*
X0175742Y0281375D01*
X0176793Y0282425D01*
X0176793Y0284667D02*
X0180997Y0288871D01*
X0176793Y0288871D01*
X0175742Y0287820D01*
X0175742Y0285718D01*
X0176793Y0284667D01*
X0180997Y0284667D01*
X0182048Y0285718D01*
X0182048Y0287820D01*
X0180997Y0288871D01*
X0178895Y0291113D02*
X0178895Y0295316D01*
X0175742Y0294265D02*
X0182048Y0294265D01*
X0178895Y0291113D01*
D195*
X0010500Y0199500D02*
X0010500Y0379500D01*
X0010500Y0379500D02*
X0190500Y0379500D01*
X0190500Y0379500D02*
X0190500Y0199500D01*
X0010500Y0199500D01*
X0200000Y0010000D02*
G75*
%LPD*%
D89*
X0231098Y0078024D02*
X0234638Y0080384D01*
X0231098Y0082744D01*
X0234638Y0085104D02*
X0234638Y0078024D01*
X0237168Y0083924D02*
X0241888Y0079204D01*
X0241888Y0078024D01*
X0245598Y0078024D02*
X0245598Y0085104D01*
X0249138Y0081564D01*
X0244418Y0081564D01*
X0241888Y0085104D02*
X0237168Y0085104D01*
X0237168Y0083924D01*
X0253432Y0099652D02*
X0253432Y0100832D01*
X0253432Y0103192D02*
X0253432Y0107912D01*
X0257142Y0104372D02*
X0255962Y0103192D01*
X0255962Y0102012D01*
X0260682Y0102012D01*
X0260682Y0103192D02*
X0259502Y0104372D01*
X0257142Y0104372D01*
X0260682Y0103192D02*
X0260682Y0100832D01*
X0259502Y0099652D01*
X0257142Y0099652D01*
X0263213Y0099652D02*
X0266753Y0099652D01*
X0267933Y0100832D01*
X0267933Y0103192D01*
X0266753Y0104372D01*
X0263213Y0104372D01*
X0263213Y0106732D02*
X0263213Y0099652D01*
X0270406Y0099652D02*
X0272766Y0099652D01*
X0271586Y0099652D02*
X0271586Y0104372D01*
X0272766Y0104372D01*
X0271586Y0106732D02*
X0271586Y0107912D01*
X0272247Y0111463D02*
X0271067Y0112643D01*
X0271067Y0115003D01*
X0272247Y0116183D01*
X0274607Y0116183D01*
X0275787Y0115003D01*
X0275787Y0112643D01*
X0274607Y0111463D01*
X0272247Y0111463D01*
X0268537Y0112643D02*
X0268537Y0115003D01*
X0267357Y0116183D01*
X0264997Y0116183D01*
X0263817Y0115003D01*
X0263817Y0113823D01*
X0268537Y0113823D01*
X0268537Y0112643D02*
X0267357Y0111463D01*
X0264997Y0111463D01*
X0261287Y0111463D02*
X0257747Y0111463D01*
X0256567Y0112643D01*
X0257747Y0113823D01*
X0260107Y0113823D01*
X0261287Y0115003D01*
X0260107Y0116183D01*
X0256567Y0116183D01*
X0272276Y0122094D02*
X0273456Y0120914D01*
X0274636Y0120914D01*
X0275816Y0123274D02*
X0272276Y0123274D01*
X0272276Y0122094D02*
X0272276Y0127994D01*
X0276996Y0124454D02*
X0275816Y0123274D01*
X0276996Y0124454D02*
X0276996Y0127994D01*
X0279497Y0127994D02*
X0280677Y0127994D01*
X0283037Y0125634D01*
X0283037Y0123274D02*
X0283037Y0127994D01*
X0285568Y0126814D02*
X0285568Y0125634D01*
X0290288Y0125634D01*
X0290288Y0126814D02*
X0289108Y0127994D01*
X0286748Y0127994D01*
X0285568Y0126814D01*
X0286748Y0123274D02*
X0289108Y0123274D01*
X0290288Y0124454D01*
X0290288Y0126814D01*
X0292761Y0127994D02*
X0295121Y0127994D01*
X0293941Y0129174D02*
X0293941Y0124454D01*
X0292761Y0123274D01*
X0297595Y0123274D02*
X0298775Y0124454D01*
X0298775Y0129174D01*
X0299955Y0127994D02*
X0297595Y0127994D01*
X0302485Y0126814D02*
X0302485Y0123274D01*
X0306025Y0123274D01*
X0307205Y0124454D01*
X0306025Y0125634D01*
X0302485Y0125634D01*
X0302485Y0126814D02*
X0303665Y0127994D01*
X0306025Y0127994D01*
X0309735Y0127994D02*
X0310915Y0126814D01*
X0314455Y0126814D01*
X0310915Y0126814D02*
X0309735Y0125634D01*
X0309735Y0124454D01*
X0310915Y0123274D01*
X0314455Y0123274D01*
X0314455Y0130354D01*
X0310915Y0130354D01*
X0309735Y0129174D01*
X0309735Y0127994D01*
X0306110Y0118543D02*
X0306110Y0111463D01*
X0309650Y0111463D01*
X0310830Y0112643D01*
X0310830Y0115003D01*
X0309650Y0116183D01*
X0306110Y0116183D01*
X0303580Y0115003D02*
X0302400Y0116183D01*
X0300040Y0116183D01*
X0298860Y0115003D01*
X0298860Y0113823D01*
X0303580Y0113823D01*
X0303580Y0112643D02*
X0303580Y0115003D01*
X0303580Y0112643D02*
X0302400Y0111463D01*
X0300040Y0111463D01*
X0296330Y0111463D02*
X0296330Y0116183D01*
X0296330Y0113823D02*
X0293970Y0116183D01*
X0292790Y0116183D01*
X0305748Y0157303D02*
X0306710Y0156905D01*
X0307661Y0156483D01*
X0308602Y0156038D01*
X0309531Y0155570D01*
X0310449Y0155079D01*
X0311354Y0154566D01*
X0312247Y0154031D01*
X0313126Y0153475D01*
X0313991Y0152896D01*
X0314842Y0152297D01*
X0315678Y0151677D01*
X0316498Y0151037D01*
X0317303Y0150376D01*
X0318091Y0149697D01*
X0318862Y0148998D01*
X0319615Y0148280D01*
X0320351Y0147544D01*
X0321069Y0146790D01*
X0321767Y0146019D01*
X0322447Y0145231D01*
X0323107Y0144427D01*
X0323748Y0143606D01*
X0324367Y0142770D01*
X0324967Y0141920D01*
X0325545Y0141054D01*
X0326101Y0140175D01*
X0326636Y0139282D01*
X0327149Y0138377D01*
X0327640Y0137459D01*
X0328108Y0136529D01*
X0328552Y0135589D01*
X0328974Y0134637D01*
X0329372Y0133676D01*
X0329747Y0132705D01*
X0330097Y0131725D01*
X0330424Y0130737D01*
X0330726Y0129741D01*
X0331003Y0128738D01*
X0331256Y0127728D01*
X0331484Y0126713D01*
X0331687Y0125692D01*
X0331865Y0124667D01*
X0332018Y0123638D01*
X0332145Y0122605D01*
X0332247Y0121569D01*
X0332323Y0120531D01*
X0332374Y0119492D01*
X0332400Y0118451D01*
X0332400Y0117411D01*
X0332374Y0116370D01*
X0332323Y0115331D01*
X0332246Y0114293D01*
X0332144Y0113257D01*
X0332017Y0112225D01*
X0331864Y0111195D01*
X0331686Y0110170D01*
X0331483Y0109149D01*
X0331255Y0108134D01*
X0331002Y0107124D01*
X0330725Y0106121D01*
X0330423Y0105126D01*
X0330096Y0104137D01*
X0329745Y0103158D01*
X0329371Y0102187D01*
X0328973Y0101225D01*
X0328551Y0100274D01*
X0328106Y0099333D01*
X0327638Y0098404D01*
X0327147Y0097486D01*
X0326634Y0096580D01*
X0326099Y0095688D01*
X0325543Y0094809D01*
X0324964Y0093943D01*
X0324365Y0093092D01*
X0323745Y0092257D01*
X0323105Y0091436D01*
X0322445Y0090632D01*
X0321765Y0089844D01*
X0321066Y0089073D01*
X0320348Y0088319D01*
X0319613Y0087583D01*
X0318859Y0086866D01*
X0318088Y0086167D01*
X0317300Y0085487D01*
X0316495Y0084827D01*
X0315675Y0084187D01*
X0314839Y0083567D01*
X0313988Y0082968D01*
X0313123Y0082389D01*
X0312244Y0081833D01*
X0311351Y0081298D01*
X0310446Y0080785D01*
X0309528Y0080294D01*
X0308598Y0079826D01*
X0307657Y0079381D01*
X0306706Y0078960D01*
X0305745Y0078561D01*
X0304774Y0078187D01*
X0303794Y0077836D01*
X0302806Y0077510D01*
X0301810Y0077208D01*
X0300807Y0076930D01*
X0299797Y0076677D01*
X0298782Y0076449D01*
X0297761Y0076246D01*
X0296736Y0076068D01*
X0295706Y0075916D01*
X0294674Y0075788D01*
X0293638Y0075686D01*
X0292600Y0075610D01*
X0291561Y0075559D01*
X0290520Y0075533D01*
X0289480Y0075533D01*
X0288439Y0075559D01*
X0287400Y0075610D01*
X0286362Y0075686D01*
X0285326Y0075788D01*
X0284294Y0075916D01*
X0283264Y0076068D01*
X0282239Y0076246D01*
X0281218Y0076449D01*
X0280203Y0076677D01*
X0279193Y0076930D01*
X0278190Y0077208D01*
X0277194Y0077510D01*
X0276206Y0077836D01*
X0275226Y0078187D01*
X0274255Y0078561D01*
X0273294Y0078960D01*
X0272343Y0079381D01*
X0271402Y0079826D01*
X0270472Y0080294D01*
X0269554Y0080785D01*
X0268649Y0081298D01*
X0267756Y0081833D01*
X0266877Y0082389D01*
X0266012Y0082968D01*
X0265161Y0083567D01*
X0264325Y0084187D01*
X0263505Y0084827D01*
X0262700Y0085487D01*
X0261912Y0086167D01*
X0261141Y0086866D01*
X0260387Y0087583D01*
X0259652Y0088319D01*
X0258934Y0089073D01*
X0258235Y0089844D01*
X0257555Y0090632D01*
X0256895Y0091436D01*
X0256255Y0092257D01*
X0255635Y0093092D01*
X0255036Y0093943D01*
X0254457Y0094809D01*
X0253901Y0095688D01*
X0253366Y0096580D01*
X0252853Y0097486D01*
X0252362Y0098404D01*
X0251894Y0099333D01*
X0251449Y0100274D01*
X0251027Y0101225D01*
X0250629Y0102187D01*
X0250255Y0103158D01*
X0249904Y0104137D01*
X0249577Y0105126D01*
X0249275Y0106121D01*
X0248998Y0107124D01*
X0248745Y0108134D01*
X0248517Y0109149D01*
X0248314Y0110170D01*
X0248136Y0111195D01*
X0247983Y0112225D01*
X0247856Y0113257D01*
X0247754Y0114293D01*
X0247677Y0115331D01*
X0247626Y0116370D01*
X0247600Y0117411D01*
X0247600Y0118451D01*
X0247626Y0119492D01*
X0247677Y0120531D01*
X0247753Y0121569D01*
X0247855Y0122605D01*
X0247982Y0123638D01*
X0248135Y0124667D01*
X0248313Y0125692D01*
X0248516Y0126713D01*
X0248744Y0127728D01*
X0248997Y0128738D01*
X0249274Y0129741D01*
X0249576Y0130737D01*
X0249903Y0131725D01*
X0250253Y0132705D01*
X0250628Y0133676D01*
X0251026Y0134637D01*
X0251448Y0135589D01*
X0251892Y0136529D01*
X0252360Y0137459D01*
X0252851Y0138377D01*
X0253364Y0139282D01*
X0253899Y0140175D01*
X0254455Y0141054D01*
X0255033Y0141920D01*
X0255633Y0142770D01*
X0256252Y0143606D01*
X0256893Y0144427D01*
X0257553Y0145231D01*
X0258233Y0146019D01*
X0258931Y0146790D01*
X0259649Y0147544D01*
X0260385Y0148280D01*
X0261138Y0148998D01*
X0261909Y0149697D01*
X0262697Y0150376D01*
X0263502Y0151037D01*
X0264322Y0151677D01*
X0265158Y0152297D01*
X0266009Y0152896D01*
X0266874Y0153475D01*
X0267753Y0154031D01*
X0268646Y0154566D01*
X0269551Y0155079D01*
X0270469Y0155570D01*
X0271398Y0156038D01*
X0272339Y0156483D01*
X0273290Y0156905D01*
X0274252Y0157303D01*
X0274252Y0169114D01*
X0305748Y0169114D01*
X0305748Y0157303D01*
X0333825Y0136520D02*
X0337049Y0137384D01*
X0336027Y0137974D02*
X0339092Y0136204D01*
X0337912Y0134160D02*
X0341452Y0140291D01*
X0338387Y0142061D01*
X0336775Y0141629D01*
X0335595Y0139585D01*
X0336027Y0137974D01*
X0340694Y0133917D02*
X0341126Y0132305D01*
X0343169Y0131125D01*
X0344781Y0131557D01*
X0343054Y0138004D01*
X0340694Y0133917D01*
X0343054Y0138004D02*
X0344666Y0138436D01*
X0346709Y0137256D01*
X0347141Y0135644D01*
X0344781Y0131557D01*
X0346973Y0130291D02*
X0347404Y0128679D01*
X0349448Y0127499D01*
X0351060Y0127931D01*
X0349333Y0134379D01*
X0346973Y0130291D01*
X0351060Y0127931D02*
X0353420Y0132019D01*
X0352988Y0133631D01*
X0350945Y0134811D01*
X0349333Y0134379D01*
X0352661Y0125644D02*
X0356749Y0123284D01*
X0354705Y0124464D02*
X0358245Y0130596D01*
X0359109Y0127372D01*
X0356250Y0145315D02*
X0352913Y0148653D01*
X0354582Y0146984D02*
X0359588Y0151991D01*
X0359588Y0148653D01*
X0355296Y0154614D02*
X0355296Y0156283D01*
X0353627Y0157952D01*
X0351958Y0157952D01*
X0351958Y0151277D01*
X0350289Y0151277D01*
X0348620Y0152945D01*
X0348620Y0154614D01*
X0351958Y0157952D01*
X0349334Y0158906D02*
X0346831Y0156403D01*
X0345162Y0156403D01*
X0342659Y0158906D01*
X0345997Y0162244D01*
X0343373Y0163199D02*
X0341705Y0164868D01*
X0340870Y0160696D02*
X0345877Y0165702D01*
X0342539Y0169040D01*
X0355296Y0154614D02*
X0351958Y0151277D01*
X0330164Y0118543D02*
X0330164Y0111463D01*
X0330164Y0115003D02*
X0328984Y0116183D01*
X0326624Y0116183D01*
X0325444Y0115003D01*
X0325444Y0111463D01*
X0322914Y0112643D02*
X0322914Y0115003D01*
X0321734Y0116183D01*
X0319374Y0116183D01*
X0318194Y0115003D01*
X0318194Y0112643D01*
X0319374Y0111463D01*
X0321734Y0111463D01*
X0322914Y0112643D01*
X0315664Y0111463D02*
X0313304Y0111463D01*
X0314484Y0111463D02*
X0314484Y0118543D01*
X0315664Y0118543D01*
X0306601Y0106732D02*
X0306601Y0099652D01*
X0309074Y0099652D02*
X0310254Y0100832D01*
X0310254Y0105552D01*
X0311434Y0104372D02*
X0309074Y0104372D01*
X0306601Y0103192D02*
X0305421Y0104372D01*
X0303061Y0104372D01*
X0301881Y0103192D01*
X0301881Y0099652D01*
X0299351Y0099652D02*
X0296991Y0099652D01*
X0298171Y0099652D02*
X0298171Y0104372D01*
X0299351Y0104372D01*
X0298171Y0106732D02*
X0298171Y0107912D01*
X0294517Y0103192D02*
X0293337Y0102012D01*
X0290977Y0102012D01*
X0289797Y0100832D01*
X0290977Y0099652D01*
X0294517Y0099652D01*
X0294517Y0103192D02*
X0293337Y0104372D01*
X0289797Y0104372D01*
X0280677Y0109103D02*
X0279497Y0109103D01*
X0278317Y0110283D01*
X0278317Y0116183D01*
X0281858Y0116183D01*
X0283038Y0115003D01*
X0283038Y0112643D01*
X0281858Y0111463D01*
X0278317Y0111463D01*
X0278837Y0104372D02*
X0275297Y0104372D01*
X0276477Y0102012D02*
X0278837Y0102012D01*
X0280017Y0103192D01*
X0278837Y0104372D01*
X0276477Y0102012D02*
X0275297Y0100832D01*
X0276477Y0099652D01*
X0280017Y0099652D01*
X0246638Y0137855D02*
X0242551Y0135495D01*
X0244595Y0136675D02*
X0241054Y0142806D01*
X0244278Y0141942D01*
X0237409Y0139339D02*
X0235797Y0139771D01*
X0233754Y0138591D01*
X0233322Y0136979D01*
X0239769Y0135251D01*
X0239338Y0133639D01*
X0237294Y0132459D01*
X0235682Y0132891D01*
X0233322Y0136979D01*
X0231130Y0135714D02*
X0229519Y0136146D01*
X0227475Y0134966D01*
X0227043Y0133354D01*
X0233491Y0131626D01*
X0233059Y0130014D01*
X0231015Y0128834D01*
X0229403Y0129266D01*
X0227043Y0133354D01*
X0224262Y0133111D02*
X0221196Y0131341D01*
X0220764Y0129729D01*
X0221944Y0127685D01*
X0223556Y0127253D01*
X0226622Y0129023D01*
X0227802Y0126979D02*
X0224262Y0133111D01*
X0224578Y0127843D02*
X0223714Y0124619D01*
X0233491Y0131626D02*
X0231130Y0135714D01*
X0237409Y0139339D02*
X0239769Y0135251D01*
X0226554Y0148870D02*
X0221548Y0153876D01*
X0218211Y0150538D01*
X0222383Y0149704D02*
X0224051Y0151373D01*
X0225006Y0153996D02*
X0228344Y0150659D01*
X0230847Y0153162D01*
X0230847Y0154831D01*
X0228344Y0157334D01*
X0229298Y0159957D02*
X0235974Y0159957D01*
X0235974Y0158289D01*
X0234305Y0156620D01*
X0232636Y0156620D01*
X0229298Y0159957D01*
X0229298Y0161626D01*
X0230967Y0163295D01*
X0232636Y0163295D01*
X0235974Y0159957D01*
X0238597Y0160912D02*
X0241935Y0164250D01*
X0240266Y0162581D02*
X0235260Y0167587D01*
X0238597Y0167587D01*
X0321215Y0103192D02*
X0321215Y0099652D01*
X0321215Y0103192D02*
X0322395Y0104372D01*
X0325935Y0104372D01*
X0325935Y0099652D01*
X0328465Y0100832D02*
X0328465Y0103192D01*
X0329645Y0104372D01*
X0332005Y0104372D01*
X0333185Y0103192D01*
X0333185Y0100832D01*
X0332005Y0099652D01*
X0329645Y0099652D01*
X0328465Y0100832D01*
X0333423Y0084999D02*
X0333423Y0077919D01*
X0333423Y0080279D02*
X0329883Y0082639D01*
X0333423Y0080279D02*
X0329883Y0077919D01*
X0335953Y0083819D02*
X0340673Y0079099D01*
X0340673Y0077919D01*
X0344383Y0077919D02*
X0344383Y0084999D01*
X0347923Y0081459D01*
X0343203Y0081459D01*
X0340673Y0084999D02*
X0335953Y0084999D01*
X0335953Y0083819D01*
D52*
X0200000Y0100000D02*
X0200027Y0102209D01*
X0200108Y0104416D01*
X0200244Y0106621D01*
X0200433Y0108822D01*
X0200677Y0111017D01*
X0200974Y0113206D01*
X0201325Y0115387D01*
X0201729Y0117558D01*
X0202187Y0119719D01*
X0202697Y0121868D01*
X0203260Y0124004D01*
X0203875Y0126126D01*
X0204542Y0128231D01*
X0205261Y0130320D01*
X0206031Y0132391D01*
X0206851Y0134442D01*
X0207721Y0136472D01*
X0208641Y0138480D01*
X0209610Y0140465D01*
X0210627Y0142426D01*
X0211692Y0144361D01*
X0212804Y0146269D01*
X0213963Y0148150D01*
X0215168Y0150001D01*
X0216417Y0151823D01*
X0217711Y0153613D01*
X0219049Y0155371D01*
X0220429Y0157095D01*
X0221851Y0158786D01*
X0223314Y0160440D01*
X0224818Y0162059D01*
X0226360Y0163640D01*
X0227941Y0165182D01*
X0229560Y0166686D01*
X0231214Y0168149D01*
X0232905Y0169571D01*
X0234629Y0170951D01*
X0236387Y0172289D01*
X0238177Y0173583D01*
X0239999Y0174832D01*
X0241850Y0176037D01*
X0243731Y0177196D01*
X0245639Y0178308D01*
X0247574Y0179373D01*
X0249535Y0180390D01*
X0251520Y0181359D01*
X0253528Y0182279D01*
X0255558Y0183149D01*
X0257609Y0183969D01*
X0259680Y0184739D01*
X0261769Y0185458D01*
X0263874Y0186125D01*
X0265996Y0186740D01*
X0268132Y0187303D01*
X0270281Y0187813D01*
X0272442Y0188271D01*
X0274613Y0188675D01*
X0276794Y0189026D01*
X0278983Y0189323D01*
X0281178Y0189567D01*
X0283379Y0189756D01*
X0285584Y0189892D01*
X0287791Y0189973D01*
X0290000Y0190000D01*
X0292209Y0189973D01*
X0294416Y0189892D01*
X0296621Y0189756D01*
X0298822Y0189567D01*
X0301017Y0189323D01*
X0303206Y0189026D01*
X0305387Y0188675D01*
X0307558Y0188271D01*
X0309719Y0187813D01*
X0311868Y0187303D01*
X0314004Y0186740D01*
X0316126Y0186125D01*
X0318231Y0185458D01*
X0320320Y0184739D01*
X0322391Y0183969D01*
X0324442Y0183149D01*
X0326472Y0182279D01*
X0328480Y0181359D01*
X0330465Y0180390D01*
X0332426Y0179373D01*
X0334361Y0178308D01*
X0336269Y0177196D01*
X0338150Y0176037D01*
X0340001Y0174832D01*
X0341823Y0173583D01*
X0343613Y0172289D01*
X0345371Y0170951D01*
X0347095Y0169571D01*
X0348786Y0168149D01*
X0350440Y0166686D01*
X0352059Y0165182D01*
X0353640Y0163640D01*
X0355182Y0162059D01*
X0356686Y0160440D01*
X0358149Y0158786D01*
X0359571Y0157095D01*
X0360951Y0155371D01*
X0362289Y0153613D01*
X0363583Y0151823D01*
X0364832Y0150001D01*
X0366037Y0148150D01*
X0367196Y0146269D01*
X0368308Y0144361D01*
X0369373Y0142426D01*
X0370390Y0140465D01*
X0371359Y0138480D01*
X0372279Y0136472D01*
X0373149Y0134442D01*
X0373969Y0132391D01*
X0374739Y0130320D01*
X0375458Y0128231D01*
X0376125Y0126126D01*
X0376740Y0124004D01*
X0377303Y0121868D01*
X0377813Y0119719D01*
X0378271Y0117558D01*
X0378675Y0115387D01*
X0379026Y0113206D01*
X0379323Y0111017D01*
X0379567Y0108822D01*
X0379756Y0106621D01*
X0379892Y0104416D01*
X0379973Y0102209D01*
X0380000Y0100000D01*
X0379973Y0097791D01*
X0379892Y0095584D01*
X0379756Y0093379D01*
X0379567Y0091178D01*
X0379323Y0088983D01*
X0379026Y0086794D01*
X0378675Y0084613D01*
X0378271Y0082442D01*
X0377813Y0080281D01*
X0377303Y0078132D01*
X0376740Y0075996D01*
X0376125Y0073874D01*
X0375458Y0071769D01*
X0374739Y0069680D01*
X0373969Y0067609D01*
X0373149Y0065558D01*
X0372279Y0063528D01*
X0371359Y0061520D01*
X0370390Y0059535D01*
X0369373Y0057574D01*
X0368308Y0055639D01*
X0367196Y0053731D01*
X0366037Y0051850D01*
X0364832Y0049999D01*
X0363583Y0048177D01*
X0362289Y0046387D01*
X0360951Y0044629D01*
X0359571Y0042905D01*
X0358149Y0041214D01*
X0356686Y0039560D01*
X0355182Y0037941D01*
X0353640Y0036360D01*
X0352059Y0034818D01*
X0350440Y0033314D01*
X0348786Y0031851D01*
X0347095Y0030429D01*
X0345371Y0029049D01*
X0343613Y0027711D01*
X0341823Y0026417D01*
X0340001Y0025168D01*
X0338150Y0023963D01*
X0336269Y0022804D01*
X0334361Y0021692D01*
X0332426Y0020627D01*
X0330465Y0019610D01*
X0328480Y0018641D01*
X0326472Y0017721D01*
X0324442Y0016851D01*
X0322391Y0016031D01*
X0320320Y0015261D01*
X0318231Y0014542D01*
X0316126Y0013875D01*
X0314004Y0013260D01*
X0311868Y0012697D01*
X0309719Y0012187D01*
X0307558Y0011729D01*
X0305387Y0011325D01*
X0303206Y0010974D01*
X0301017Y0010677D01*
X0298822Y0010433D01*
X0296621Y0010244D01*
X0294416Y0010108D01*
X0292209Y0010027D01*
X0290000Y0010000D01*
X0287791Y0010027D01*
X0285584Y0010108D01*
X0283379Y0010244D01*
X0281178Y0010433D01*
X0278983Y0010677D01*
X0276794Y0010974D01*
X0274613Y0011325D01*
X0272442Y0011729D01*
X0270281Y0012187D01*
X0268132Y0012697D01*
X0265996Y0013260D01*
X0263874Y0013875D01*
X0261769Y0014542D01*
X0259680Y0015261D01*
X0257609Y0016031D01*
X0255558Y0016851D01*
X0253528Y0017721D01*
X0251520Y0018641D01*
X0249535Y0019610D01*
X0247574Y0020627D01*
X0245639Y0021692D01*
X0243731Y0022804D01*
X0241850Y0023963D01*
X0239999Y0025168D01*
X0238177Y0026417D01*
X0236387Y0027711D01*
X0234629Y0029049D01*
X0232905Y0030429D01*
X0231214Y0031851D01*
X0229560Y0033314D01*
X0227941Y0034818D01*
X0226360Y0036360D01*
X0224818Y0037941D01*
X0223314Y0039560D01*
X0221851Y0041214D01*
X0220429Y0042905D01*
X0219049Y0044629D01*
X0217711Y0046387D01*
X0216417Y0048177D01*
X0215168Y0049999D01*
X0213963Y0051850D01*
X0212804Y0053731D01*
X0211692Y0055639D01*
X0210627Y0057574D01*
X0209610Y0059535D01*
X0208641Y0061520D01*
X0207721Y0063528D01*
X0206851Y0065558D01*
X0206031Y0067609D01*
X0205261Y0069680D01*
X0204542Y0071769D01*
X0203875Y0073874D01*
X0203260Y0075996D01*
X0202697Y0078132D01*
X0202187Y0080281D01*
X0201729Y0082442D01*
X0201325Y0084613D01*
X0200974Y0086794D01*
X0200677Y0088983D01*
X0200433Y0091178D01*
X0200244Y0093379D01*
X0200108Y0095584D01*
X0200027Y0097791D01*
X0200000Y0100000D01*
D89*
X0211583Y0074553D02*
X0207380Y0070350D01*
X0207380Y0074553D01*
X0207380Y0076795D02*
X0213685Y0076795D01*
X0207380Y0080999D01*
X0213685Y0080999D01*
X0212634Y0083241D02*
X0213685Y0084291D01*
X0213685Y0086393D01*
X0212634Y0087444D01*
X0211583Y0087444D01*
X0210532Y0086393D01*
X0209481Y0087444D01*
X0208430Y0087444D01*
X0207380Y0086393D01*
X0207380Y0084291D01*
X0208430Y0083241D01*
X0210532Y0085342D02*
X0210532Y0086393D01*
X0211583Y0089686D02*
X0210532Y0090737D01*
X0210532Y0093890D01*
X0208430Y0093890D02*
X0212634Y0093890D01*
X0213685Y0092839D01*
X0213685Y0090737D01*
X0212634Y0089686D01*
X0211583Y0089686D01*
X0208430Y0089686D02*
X0207380Y0090737D01*
X0207380Y0092839D01*
X0208430Y0093890D01*
X0208430Y0096132D02*
X0212634Y0100335D01*
X0208430Y0100335D01*
X0207380Y0099284D01*
X0207380Y0097182D01*
X0208430Y0096132D01*
X0212634Y0096132D01*
X0213685Y0097182D01*
X0213685Y0099284D01*
X0212634Y0100335D01*
X0210532Y0102577D02*
X0210532Y0106781D01*
X0207380Y0105730D02*
X0213685Y0105730D01*
X0210532Y0102577D01*
X0211583Y0074553D02*
X0212634Y0074553D01*
X0213685Y0073502D01*
X0213685Y0071400D01*
X0212634Y0070350D01*
X0365742Y0068885D02*
X0369946Y0073089D01*
X0370997Y0073089D01*
X0372048Y0072038D01*
X0372048Y0069936D01*
X0370997Y0068885D01*
X0365742Y0068885D02*
X0365742Y0073089D01*
X0365742Y0075331D02*
X0372048Y0075331D01*
X0365742Y0079534D01*
X0372048Y0079534D01*
X0370997Y0081776D02*
X0372048Y0082827D01*
X0372048Y0084929D01*
X0370997Y0085980D01*
X0369946Y0085980D01*
X0368895Y0084929D01*
X0367844Y0085980D01*
X0366793Y0085980D01*
X0365742Y0084929D01*
X0365742Y0082827D01*
X0366793Y0081776D01*
X0368895Y0083878D02*
X0368895Y0084929D01*
X0369946Y0088222D02*
X0368895Y0089273D01*
X0368895Y0092425D01*
X0366793Y0092425D02*
X0370997Y0092425D01*
X0372048Y0091375D01*
X0372048Y0089273D01*
X0370997Y0088222D01*
X0369946Y0088222D01*
X0366793Y0088222D02*
X0365742Y0089273D01*
X0365742Y0091375D01*
X0366793Y0092425D01*
X0366793Y0094667D02*
X0370997Y0098871D01*
X0366793Y0098871D01*
X0365742Y0097820D01*
X0365742Y0095718D01*
X0366793Y0094667D01*
X0370997Y0094667D01*
X0372048Y0095718D01*
X0372048Y0097820D01*
X0370997Y0098871D01*
X0368895Y0101113D02*
X0368895Y0105316D01*
X0365742Y0104265D02*
X0372048Y0104265D01*
X0368895Y0101113D01*
D195*
X0199500Y0010500D02*
X0199500Y0190500D01*
X0379500Y0190500D01*
X0379500Y0010500D01*
X0379500Y0010500D02*
X0199500Y0010500D01*
X0200000Y0200000D02*
G75*
%LPD*%
D89*
X0231098Y0268024D02*
X0234638Y0270384D01*
X0231098Y0272744D01*
X0234638Y0275104D02*
X0234638Y0268024D01*
X0237168Y0273924D02*
X0241888Y0269204D01*
X0241888Y0268024D01*
X0245598Y0268024D02*
X0245598Y0275104D01*
X0249138Y0271564D01*
X0244418Y0271564D01*
X0241888Y0275104D02*
X0237168Y0275104D01*
X0237168Y0273924D01*
X0253432Y0289652D02*
X0253432Y0290832D01*
X0253432Y0293192D02*
X0253432Y0297912D01*
X0257142Y0294372D02*
X0255962Y0293192D01*
X0255962Y0292012D01*
X0260682Y0292012D01*
X0260682Y0293192D02*
X0259502Y0294372D01*
X0257142Y0294372D01*
X0260682Y0293192D02*
X0260682Y0290832D01*
X0259502Y0289652D01*
X0257142Y0289652D01*
X0263213Y0289652D02*
X0266753Y0289652D01*
X0267933Y0290832D01*
X0267933Y0293192D01*
X0266753Y0294372D01*
X0263213Y0294372D01*
X0263213Y0296732D02*
X0263213Y0289652D01*
X0270406Y0289652D02*
X0272766Y0289652D01*
X0271586Y0289652D02*
X0271586Y0294372D01*
X0272766Y0294372D01*
X0271586Y0296732D02*
X0271586Y0297912D01*
X0272247Y0301463D02*
X0271067Y0302643D01*
X0271067Y0305003D01*
X0272247Y0306183D01*
X0274607Y0306183D01*
X0275787Y0305003D01*
X0275787Y0302643D01*
X0274607Y0301463D01*
X0272247Y0301463D01*
X0268537Y0302643D02*
X0268537Y0305003D01*
X0267357Y0306183D01*
X0264997Y0306183D01*
X0263817Y0305003D01*
X0263817Y0303823D01*
X0268537Y0303823D01*
X0268537Y0302643D02*
X0267357Y0301463D01*
X0264997Y0301463D01*
X0261287Y0301463D02*
X0257747Y0301463D01*
X0256567Y0302643D01*
X0257747Y0303823D01*
X0260107Y0303823D01*
X0261287Y0305003D01*
X0260107Y0306183D01*
X0256567Y0306183D01*
X0272276Y0312094D02*
X0273456Y0310914D01*
X0274636Y0310914D01*
X0275816Y0313274D02*
X0272276Y0313274D01*
X0272276Y0312094D02*
X0272276Y0317994D01*
X0276996Y0314454D02*
X0275816Y0313274D01*
X0276996Y0314454D02*
X0276996Y0317994D01*
X0279497Y0317994D02*
X0280677Y0317994D01*
X0283037Y0315634D01*
X0283037Y0313274D02*
X0283037Y0317994D01*
X0285568Y0316814D02*
X0285568Y0315634D01*
X0290288Y0315634D01*
X0290288Y0316814D02*
X0289108Y0317994D01*
X0286748Y0317994D01*
X0285568Y0316814D01*
X0286748Y0313274D02*
X0289108Y0313274D01*
X0290288Y0314454D01*
X0290288Y0316814D01*
X0292761Y0317994D02*
X0295121Y0317994D01*
X0293941Y0319174D02*
X0293941Y0314454D01*
X0292761Y0313274D01*
X0297595Y0313274D02*
X0298775Y0314454D01*
X0298775Y0319174D01*
X0299955Y0317994D02*
X0297595Y0317994D01*
X0302485Y0316814D02*
X0302485Y0313274D01*
X0306025Y0313274D01*
X0307205Y0314454D01*
X0306025Y0315634D01*
X0302485Y0315634D01*
X0302485Y0316814D02*
X0303665Y0317994D01*
X0306025Y0317994D01*
X0309735Y0317994D02*
X0310915Y0316814D01*
X0314455Y0316814D01*
X0310915Y0316814D02*
X0309735Y0315634D01*
X0309735Y0314454D01*
X0310915Y0313274D01*
X0314455Y0313274D01*
X0314455Y0320354D01*
X0310915Y0320354D01*
X0309735Y0319174D01*
X0309735Y0317994D01*
X0306110Y0308543D02*
X0306110Y0301463D01*
X0309650Y0301463D01*
X0310830Y0302643D01*
X0310830Y0305003D01*
X0309650Y0306183D01*
X0306110Y0306183D01*
X0303580Y0305003D02*
X0302400Y0306183D01*
X0300040Y0306183D01*
X0298860Y0305003D01*
X0298860Y0303823D01*
X0303580Y0303823D01*
X0303580Y0302643D02*
X0303580Y0305003D01*
X0303580Y0302643D02*
X0302400Y0301463D01*
X0300040Y0301463D01*
X0296330Y0301463D02*
X0296330Y0306183D01*
X0296330Y0303823D02*
X0293970Y0306183D01*
X0292790Y0306183D01*
X0305748Y0347303D02*
X0306710Y0346905D01*
X0307661Y0346483D01*
X0308602Y0346038D01*
X0309531Y0345570D01*
X0310449Y0345079D01*
X0311354Y0344566D01*
X0312247Y0344031D01*
X0313126Y0343475D01*
X0313991Y0342896D01*
X0314842Y0342297D01*
X0315678Y0341677D01*
X0316498Y0341037D01*
X0317303Y0340376D01*
X0318091Y0339697D01*
X0318862Y0338998D01*
X0319615Y0338280D01*
X0320351Y0337544D01*
X0321069Y0336790D01*
X0321767Y0336019D01*
X0322447Y0335231D01*
X0323107Y0334427D01*
X0323748Y0333606D01*
X0324367Y0332770D01*
X0324967Y0331920D01*
X0325545Y0331054D01*
X0326101Y0330175D01*
X0326636Y0329282D01*
X0327149Y0328377D01*
X0327640Y0327459D01*
X0328108Y0326529D01*
X0328552Y0325589D01*
X0328974Y0324637D01*
X0329372Y0323676D01*
X0329747Y0322705D01*
X0330097Y0321725D01*
X0330424Y0320737D01*
X0330726Y0319741D01*
X0331003Y0318738D01*
X0331256Y0317728D01*
X0331484Y0316713D01*
X0331687Y0315692D01*
X0331865Y0314667D01*
X0332018Y0313638D01*
X0332145Y0312605D01*
X0332247Y0311569D01*
X0332323Y0310531D01*
X0332374Y0309492D01*
X0332400Y0308451D01*
X0332400Y0307411D01*
X0332374Y0306370D01*
X0332323Y0305331D01*
X0332246Y0304293D01*
X0332144Y0303257D01*
X0332017Y0302225D01*
X0331864Y0301195D01*
X0331686Y0300170D01*
X0331483Y0299149D01*
X0331255Y0298134D01*
X0331002Y0297124D01*
X0330725Y0296121D01*
X0330423Y0295126D01*
X0330096Y0294137D01*
X0329745Y0293158D01*
X0329371Y0292187D01*
X0328973Y0291225D01*
X0328551Y0290274D01*
X0328106Y0289333D01*
X0327638Y0288404D01*
X0327147Y0287486D01*
X0326634Y0286580D01*
X0326099Y0285688D01*
X0325543Y0284809D01*
X0324964Y0283943D01*
X0324365Y0283092D01*
X0323745Y0282257D01*
X0323105Y0281436D01*
X0322445Y0280632D01*
X0321765Y0279844D01*
X0321066Y0279073D01*
X0320348Y0278319D01*
X0319613Y0277583D01*
X0318859Y0276866D01*
X0318088Y0276167D01*
X0317300Y0275487D01*
X0316495Y0274827D01*
X0315675Y0274187D01*
X0314839Y0273567D01*
X0313988Y0272968D01*
X0313123Y0272389D01*
X0312244Y0271833D01*
X0311351Y0271298D01*
X0310446Y0270785D01*
X0309528Y0270294D01*
X0308598Y0269826D01*
X0307657Y0269381D01*
X0306706Y0268960D01*
X0305745Y0268561D01*
X0304774Y0268187D01*
X0303794Y0267836D01*
X0302806Y0267510D01*
X0301810Y0267208D01*
X0300807Y0266930D01*
X0299797Y0266677D01*
X0298782Y0266449D01*
X0297761Y0266246D01*
X0296736Y0266068D01*
X0295706Y0265916D01*
X0294674Y0265788D01*
X0293638Y0265686D01*
X0292600Y0265610D01*
X0291561Y0265559D01*
X0290520Y0265533D01*
X0289480Y0265533D01*
X0288439Y0265559D01*
X0287400Y0265610D01*
X0286362Y0265686D01*
X0285326Y0265788D01*
X0284294Y0265916D01*
X0283264Y0266068D01*
X0282239Y0266246D01*
X0281218Y0266449D01*
X0280203Y0266677D01*
X0279193Y0266930D01*
X0278190Y0267208D01*
X0277194Y0267510D01*
X0276206Y0267836D01*
X0275226Y0268187D01*
X0274255Y0268561D01*
X0273294Y0268960D01*
X0272343Y0269381D01*
X0271402Y0269826D01*
X0270472Y0270294D01*
X0269554Y0270785D01*
X0268649Y0271298D01*
X0267756Y0271833D01*
X0266877Y0272389D01*
X0266012Y0272968D01*
X0265161Y0273567D01*
X0264325Y0274187D01*
X0263505Y0274827D01*
X0262700Y0275487D01*
X0261912Y0276167D01*
X0261141Y0276866D01*
X0260387Y0277583D01*
X0259652Y0278319D01*
X0258934Y0279073D01*
X0258235Y0279844D01*
X0257555Y0280632D01*
X0256895Y0281436D01*
X0256255Y0282257D01*
X0255635Y0283092D01*
X0255036Y0283943D01*
X0254457Y0284809D01*
X0253901Y0285688D01*
X0253366Y0286580D01*
X0252853Y0287486D01*
X0252362Y0288404D01*
X0251894Y0289333D01*
X0251449Y0290274D01*
X0251027Y0291225D01*
X0250629Y0292187D01*
X0250255Y0293158D01*
X0249904Y0294137D01*
X0249577Y0295126D01*
X0249275Y0296121D01*
X0248998Y0297124D01*
X0248745Y0298134D01*
X0248517Y0299149D01*
X0248314Y0300170D01*
X0248136Y0301195D01*
X0247983Y0302225D01*
X0247856Y0303257D01*
X0247754Y0304293D01*
X0247677Y0305331D01*
X0247626Y0306370D01*
X0247600Y0307411D01*
X0247600Y0308451D01*
X0247626Y0309492D01*
X0247677Y0310531D01*
X0247753Y0311569D01*
X0247855Y0312605D01*
X0247982Y0313638D01*
X0248135Y0314667D01*
X0248313Y0315692D01*
X0248516Y0316713D01*
X0248744Y0317728D01*
X0248997Y0318738D01*
X0249274Y0319741D01*
X0249576Y0320737D01*
X0249903Y0321725D01*
X0250253Y0322705D01*
X0250628Y0323676D01*
X0251026Y0324637D01*
X0251448Y0325589D01*
X0251892Y0326529D01*
X0252360Y0327459D01*
X0252851Y0328377D01*
X0253364Y0329282D01*
X0253899Y0330175D01*
X0254455Y0331054D01*
X0255033Y0331920D01*
X0255633Y0332770D01*
X0256252Y0333606D01*
X0256893Y0334427D01*
X0257553Y0335231D01*
X0258233Y0336019D01*
X0258931Y0336790D01*
X0259649Y0337544D01*
X0260385Y0338280D01*
X0261138Y0338998D01*
X0261909Y0339697D01*
X0262697Y0340376D01*
X0263502Y0341037D01*
X0264322Y0341677D01*
X0265158Y0342297D01*
X0266009Y0342896D01*
X0266874Y0343475D01*
X0267753Y0344031D01*
X0268646Y0344566D01*
X0269551Y0345079D01*
X0270469Y0345570D01*
X0271398Y0346038D01*
X0272339Y0346483D01*
X0273290Y0346905D01*
X0274252Y0347303D01*
X0274252Y0359114D01*
X0305748Y0359114D01*
X0305748Y0347303D01*
X0333825Y0326520D02*
X0337049Y0327384D01*
X0336027Y0327974D02*
X0339092Y0326204D01*
X0337912Y0324160D02*
X0341452Y0330291D01*
X0338387Y0332061D01*
X0336775Y0331629D01*
X0335595Y0329585D01*
X0336027Y0327974D01*
X0340694Y0323917D02*
X0341126Y0322305D01*
X0343169Y0321125D01*
X0344781Y0321557D01*
X0343054Y0328004D01*
X0340694Y0323917D01*
X0343054Y0328004D02*
X0344666Y0328436D01*
X0346709Y0327256D01*
X0347141Y0325644D01*
X0344781Y0321557D01*
X0346973Y0320291D02*
X0347404Y0318679D01*
X0349448Y0317499D01*
X0351060Y0317931D01*
X0349333Y0324379D01*
X0346973Y0320291D01*
X0351060Y0317931D02*
X0353420Y0322019D01*
X0352988Y0323631D01*
X0350945Y0324811D01*
X0349333Y0324379D01*
X0352661Y0315644D02*
X0356749Y0313284D01*
X0354705Y0314464D02*
X0358245Y0320596D01*
X0359109Y0317372D01*
X0356250Y0335315D02*
X0352913Y0338653D01*
X0354582Y0336984D02*
X0359588Y0341991D01*
X0359588Y0338653D01*
X0355296Y0344614D02*
X0355296Y0346283D01*
X0353627Y0347952D01*
X0351958Y0347952D01*
X0351958Y0341277D01*
X0350289Y0341277D01*
X0348620Y0342945D01*
X0348620Y0344614D01*
X0351958Y0347952D01*
X0349334Y0348906D02*
X0346831Y0346403D01*
X0345162Y0346403D01*
X0342659Y0348906D01*
X0345997Y0352244D01*
X0343373Y0353199D02*
X0341705Y0354868D01*
X0340870Y0350696D02*
X0345877Y0355702D01*
X0342539Y0359040D01*
X0355296Y0344614D02*
X0351958Y0341277D01*
X0330164Y0308543D02*
X0330164Y0301463D01*
X0330164Y0305003D02*
X0328984Y0306183D01*
X0326624Y0306183D01*
X0325444Y0305003D01*
X0325444Y0301463D01*
X0322914Y0302643D02*
X0322914Y0305003D01*
X0321734Y0306183D01*
X0319374Y0306183D01*
X0318194Y0305003D01*
X0318194Y0302643D01*
X0319374Y0301463D01*
X0321734Y0301463D01*
X0322914Y0302643D01*
X0315664Y0301463D02*
X0313304Y0301463D01*
X0314484Y0301463D02*
X0314484Y0308543D01*
X0315664Y0308543D01*
X0306601Y0296732D02*
X0306601Y0289652D01*
X0309074Y0289652D02*
X0310254Y0290832D01*
X0310254Y0295552D01*
X0311434Y0294372D02*
X0309074Y0294372D01*
X0306601Y0293192D02*
X0305421Y0294372D01*
X0303061Y0294372D01*
X0301881Y0293192D01*
X0301881Y0289652D01*
X0299351Y0289652D02*
X0296991Y0289652D01*
X0298171Y0289652D02*
X0298171Y0294372D01*
X0299351Y0294372D01*
X0298171Y0296732D02*
X0298171Y0297912D01*
X0294517Y0293192D02*
X0293337Y0292012D01*
X0290977Y0292012D01*
X0289797Y0290832D01*
X0290977Y0289652D01*
X0294517Y0289652D01*
X0294517Y0293192D02*
X0293337Y0294372D01*
X0289797Y0294372D01*
X0280677Y0299103D02*
X0279497Y0299103D01*
X0278317Y0300283D01*
X0278317Y0306183D01*
X0281858Y0306183D01*
X0283038Y0305003D01*
X0283038Y0302643D01*
X0281858Y0301463D01*
X0278317Y0301463D01*
X0278837Y0294372D02*
X0275297Y0294372D01*
X0276477Y0292012D02*
X0278837Y0292012D01*
X0280017Y0293192D01*
X0278837Y0294372D01*
X0276477Y0292012D02*
X0275297Y0290832D01*
X0276477Y0289652D01*
X0280017Y0289652D01*
X0246638Y0327855D02*
X0242551Y0325495D01*
X0244595Y0326675D02*
X0241054Y0332806D01*
X0244278Y0331942D01*
X0237409Y0329339D02*
X0235797Y0329771D01*
X0233754Y0328591D01*
X0233322Y0326979D01*
X0239769Y0325251D01*
X0239338Y0323639D01*
X0237294Y0322459D01*
X0235682Y0322891D01*
X0233322Y0326979D01*
X0231130Y0325714D02*
X0229519Y0326146D01*
X0227475Y0324966D01*
X0227043Y0323354D01*
X0233491Y0321626D01*
X0233059Y0320014D01*
X0231015Y0318834D01*
X0229403Y0319266D01*
X0227043Y0323354D01*
X0224262Y0323111D02*
X0221196Y0321341D01*
X0220764Y0319729D01*
X0221944Y0317685D01*
X0223556Y0317253D01*
X0226622Y0319023D01*
X0227802Y0316979D02*
X0224262Y0323111D01*
X0224578Y0317843D02*
X0223714Y0314619D01*
X0233491Y0321626D02*
X0231130Y0325714D01*
X0237409Y0329339D02*
X0239769Y0325251D01*
X0226554Y0338870D02*
X0221548Y0343876D01*
X0218211Y0340538D01*
X0222383Y0339704D02*
X0224051Y0341373D01*
X0225006Y0343996D02*
X0228344Y0340659D01*
X0230847Y0343162D01*
X0230847Y0344831D01*
X0228344Y0347334D01*
X0229298Y0349957D02*
X0235974Y0349957D01*
X0235974Y0348289D01*
X0234305Y0346620D01*
X0232636Y0346620D01*
X0229298Y0349957D01*
X0229298Y0351626D01*
X0230967Y0353295D01*
X0232636Y0353295D01*
X0235974Y0349957D01*
X0238597Y0350912D02*
X0241935Y0354250D01*
X0240266Y0352581D02*
X0235260Y0357587D01*
X0238597Y0357587D01*
X0321215Y0293192D02*
X0321215Y0289652D01*
X0321215Y0293192D02*
X0322395Y0294372D01*
X0325935Y0294372D01*
X0325935Y0289652D01*
X0328465Y0290832D02*
X0328465Y0293192D01*
X0329645Y0294372D01*
X0332005Y0294372D01*
X0333185Y0293192D01*
X0333185Y0290832D01*
X0332005Y0289652D01*
X0329645Y0289652D01*
X0328465Y0290832D01*
X0333423Y0274999D02*
X0333423Y0267919D01*
X0333423Y0270279D02*
X0329883Y0272639D01*
X0333423Y0270279D02*
X0329883Y0267919D01*
X0335953Y0273819D02*
X0340673Y0269099D01*
X0340673Y0267919D01*
X0344383Y0267919D02*
X0344383Y0274999D01*
X0347923Y0271459D01*
X0343203Y0271459D01*
X0340673Y0274999D02*
X0335953Y0274999D01*
X0335953Y0273819D01*
D52*
X0200000Y0290000D02*
X0200027Y0292209D01*
X0200108Y0294416D01*
X0200244Y0296621D01*
X0200433Y0298822D01*
X0200677Y0301017D01*
X0200974Y0303206D01*
X0201325Y0305387D01*
X0201729Y0307558D01*
X0202187Y0309719D01*
X0202697Y0311868D01*
X0203260Y0314004D01*
X0203875Y0316126D01*
X0204542Y0318231D01*
X0205261Y0320320D01*
X0206031Y0322391D01*
X0206851Y0324442D01*
X0207721Y0326472D01*
X0208641Y0328480D01*
X0209610Y0330465D01*
X0210627Y0332426D01*
X0211692Y0334361D01*
X0212804Y0336269D01*
X0213963Y0338150D01*
X0215168Y0340001D01*
X0216417Y0341823D01*
X0217711Y0343613D01*
X0219049Y0345371D01*
X0220429Y0347095D01*
X0221851Y0348786D01*
X0223314Y0350440D01*
X0224818Y0352059D01*
X0226360Y0353640D01*
X0227941Y0355182D01*
X0229560Y0356686D01*
X0231214Y0358149D01*
X0232905Y0359571D01*
X0234629Y0360951D01*
X0236387Y0362289D01*
X0238177Y0363583D01*
X0239999Y0364832D01*
X0241850Y0366037D01*
X0243731Y0367196D01*
X0245639Y0368308D01*
X0247574Y0369373D01*
X0249535Y0370390D01*
X0251520Y0371359D01*
X0253528Y0372279D01*
X0255558Y0373149D01*
X0257609Y0373969D01*
X0259680Y0374739D01*
X0261769Y0375458D01*
X0263874Y0376125D01*
X0265996Y0376740D01*
X0268132Y0377303D01*
X0270281Y0377813D01*
X0272442Y0378271D01*
X0274613Y0378675D01*
X0276794Y0379026D01*
X0278983Y0379323D01*
X0281178Y0379567D01*
X0283379Y0379756D01*
X0285584Y0379892D01*
X0287791Y0379973D01*
X0290000Y0380000D01*
X0292209Y0379973D01*
X0294416Y0379892D01*
X0296621Y0379756D01*
X0298822Y0379567D01*
X0301017Y0379323D01*
X0303206Y0379026D01*
X0305387Y0378675D01*
X0307558Y0378271D01*
X0309719Y0377813D01*
X0311868Y0377303D01*
X0314004Y0376740D01*
X0316126Y0376125D01*
X0318231Y0375458D01*
X0320320Y0374739D01*
X0322391Y0373969D01*
X0324442Y0373149D01*
X0326472Y0372279D01*
X0328480Y0371359D01*
X0330465Y0370390D01*
X0332426Y0369373D01*
X0334361Y0368308D01*
X0336269Y0367196D01*
X0338150Y0366037D01*
X0340001Y0364832D01*
X0341823Y0363583D01*
X0343613Y0362289D01*
X0345371Y0360951D01*
X0347095Y0359571D01*
X0348786Y0358149D01*
X0350440Y0356686D01*
X0352059Y0355182D01*
X0353640Y0353640D01*
X0355182Y0352059D01*
X0356686Y0350440D01*
X0358149Y0348786D01*
X0359571Y0347095D01*
X0360951Y0345371D01*
X0362289Y0343613D01*
X0363583Y0341823D01*
X0364832Y0340001D01*
X0366037Y0338150D01*
X0367196Y0336269D01*
X0368308Y0334361D01*
X0369373Y0332426D01*
X0370390Y0330465D01*
X0371359Y0328480D01*
X0372279Y0326472D01*
X0373149Y0324442D01*
X0373969Y0322391D01*
X0374739Y0320320D01*
X0375458Y0318231D01*
X0376125Y0316126D01*
X0376740Y0314004D01*
X0377303Y0311868D01*
X0377813Y0309719D01*
X0378271Y0307558D01*
X0378675Y0305387D01*
X0379026Y0303206D01*
X0379323Y0301017D01*
X0379567Y0298822D01*
X0379756Y0296621D01*
X0379892Y0294416D01*
X0379973Y0292209D01*
X0380000Y0290000D01*
X0379973Y0287791D01*
X0379892Y0285584D01*
X0379756Y0283379D01*
X0379567Y0281178D01*
X0379323Y0278983D01*
X0379026Y0276794D01*
X0378675Y0274613D01*
X0378271Y0272442D01*
X0377813Y0270281D01*
X0377303Y0268132D01*
X0376740Y0265996D01*
X0376125Y0263874D01*
X0375458Y0261769D01*
X0374739Y0259680D01*
X0373969Y0257609D01*
X0373149Y0255558D01*
X0372279Y0253528D01*
X0371359Y0251520D01*
X0370390Y0249535D01*
X0369373Y0247574D01*
X0368308Y0245639D01*
X0367196Y0243731D01*
X0366037Y0241850D01*
X0364832Y0239999D01*
X0363583Y0238177D01*
X0362289Y0236387D01*
X0360951Y0234629D01*
X0359571Y0232905D01*
X0358149Y0231214D01*
X0356686Y0229560D01*
X0355182Y0227941D01*
X0353640Y0226360D01*
X0352059Y0224818D01*
X0350440Y0223314D01*
X0348786Y0221851D01*
X0347095Y0220429D01*
X0345371Y0219049D01*
X0343613Y0217711D01*
X0341823Y0216417D01*
X0340001Y0215168D01*
X0338150Y0213963D01*
X0336269Y0212804D01*
X0334361Y0211692D01*
X0332426Y0210627D01*
X0330465Y0209610D01*
X0328480Y0208641D01*
X0326472Y0207721D01*
X0324442Y0206851D01*
X0322391Y0206031D01*
X0320320Y0205261D01*
X0318231Y0204542D01*
X0316126Y0203875D01*
X0314004Y0203260D01*
X0311868Y0202697D01*
X0309719Y0202187D01*
X0307558Y0201729D01*
X0305387Y0201325D01*
X0303206Y0200974D01*
X0301017Y0200677D01*
X0298822Y0200433D01*
X0296621Y0200244D01*
X0294416Y0200108D01*
X0292209Y0200027D01*
X0290000Y0200000D01*
X0287791Y0200027D01*
X0285584Y0200108D01*
X0283379Y0200244D01*
X0281178Y0200433D01*
X0278983Y0200677D01*
X0276794Y0200974D01*
X0274613Y0201325D01*
X0272442Y0201729D01*
X0270281Y0202187D01*
X0268132Y0202697D01*
X0265996Y0203260D01*
X0263874Y0203875D01*
X0261769Y0204542D01*
X0259680Y0205261D01*
X0257609Y0206031D01*
X0255558Y0206851D01*
X0253528Y0207721D01*
X0251520Y0208641D01*
X0249535Y0209610D01*
X0247574Y0210627D01*
X0245639Y0211692D01*
X0243731Y0212804D01*
X0241850Y0213963D01*
X0239999Y0215168D01*
X0238177Y0216417D01*
X0236387Y0217711D01*
X0234629Y0219049D01*
X0232905Y0220429D01*
X0231214Y0221851D01*
X0229560Y0223314D01*
X0227941Y0224818D01*
X0226360Y0226360D01*
X0224818Y0227941D01*
X0223314Y0229560D01*
X0221851Y0231214D01*
X0220429Y0232905D01*
X0219049Y0234629D01*
X0217711Y0236387D01*
X0216417Y0238177D01*
X0215168Y0239999D01*
X0213963Y0241850D01*
X0212804Y0243731D01*
X0211692Y0245639D01*
X0210627Y0247574D01*
X0209610Y0249535D01*
X0208641Y0251520D01*
X0207721Y0253528D01*
X0206851Y0255558D01*
X0206031Y0257609D01*
X0205261Y0259680D01*
X0204542Y0261769D01*
X0203875Y0263874D01*
X0203260Y0265996D01*
X0202697Y0268132D01*
X0202187Y0270281D01*
X0201729Y0272442D01*
X0201325Y0274613D01*
X0200974Y0276794D01*
X0200677Y0278983D01*
X0200433Y0281178D01*
X0200244Y0283379D01*
X0200108Y0285584D01*
X0200027Y0287791D01*
X0200000Y0290000D01*
D89*
X0211583Y0264553D02*
X0207380Y0260350D01*
X0207380Y0264553D01*
X0207380Y0266795D02*
X0213685Y0266795D01*
X0207380Y0270999D01*
X0213685Y0270999D01*
X0212634Y0273241D02*
X0213685Y0274291D01*
X0213685Y0276393D01*
X0212634Y0277444D01*
X0211583Y0277444D01*
X0210532Y0276393D01*
X0209481Y0277444D01*
X0208430Y0277444D01*
X0207380Y0276393D01*
X0207380Y0274291D01*
X0208430Y0273241D01*
X0210532Y0275342D02*
X0210532Y0276393D01*
X0211583Y0279686D02*
X0210532Y0280737D01*
X0210532Y0283890D01*
X0208430Y0283890D02*
X0212634Y0283890D01*
X0213685Y0282839D01*
X0213685Y0280737D01*
X0212634Y0279686D01*
X0211583Y0279686D01*
X0208430Y0279686D02*
X0207380Y0280737D01*
X0207380Y0282839D01*
X0208430Y0283890D01*
X0208430Y0286132D02*
X0212634Y0290335D01*
X0208430Y0290335D01*
X0207380Y0289284D01*
X0207380Y0287182D01*
X0208430Y0286132D01*
X0212634Y0286132D01*
X0213685Y0287182D01*
X0213685Y0289284D01*
X0212634Y0290335D01*
X0210532Y0292577D02*
X0210532Y0296781D01*
X0207380Y0295730D02*
X0213685Y0295730D01*
X0210532Y0292577D01*
X0211583Y0264553D02*
X0212634Y0264553D01*
X0213685Y0263502D01*
X0213685Y0261400D01*
X0212634Y0260350D01*
X0365742Y0258885D02*
X0369946Y0263089D01*
X0370997Y0263089D01*
X0372048Y0262038D01*
X0372048Y0259936D01*
X0370997Y0258885D01*
X0365742Y0258885D02*
X0365742Y0263089D01*
X0365742Y0265331D02*
X0372048Y0265331D01*
X0365742Y0269534D01*
X0372048Y0269534D01*
X0370997Y0271776D02*
X0372048Y0272827D01*
X0372048Y0274929D01*
X0370997Y0275980D01*
X0369946Y0275980D01*
X0368895Y0274929D01*
X0367844Y0275980D01*
X0366793Y0275980D01*
X0365742Y0274929D01*
X0365742Y0272827D01*
X0366793Y0271776D01*
X0368895Y0273878D02*
X0368895Y0274929D01*
X0369946Y0278222D02*
X0368895Y0279273D01*
X0368895Y0282425D01*
X0366793Y0282425D02*
X0370997Y0282425D01*
X0372048Y0281375D01*
X0372048Y0279273D01*
X0370997Y0278222D01*
X0369946Y0278222D01*
X0366793Y0278222D02*
X0365742Y0279273D01*
X0365742Y0281375D01*
X0366793Y0282425D01*
X0366793Y0284667D02*
X0370997Y0288871D01*
X0366793Y0288871D01*
X0365742Y0287820D01*
X0365742Y0285718D01*
X0366793Y0284667D01*
X0370997Y0284667D01*
X0372048Y0285718D01*
X0372048Y0287820D01*
X0370997Y0288871D01*
X0368895Y0291113D02*
X0368895Y0295316D01*
X0365742Y0294265D02*
X0372048Y0294265D01*
X0368895Y0291113D01*
D195*
X0199500Y0199500D02*
X0199500Y0379500D01*
X0379500Y0379500D01*
X0379500Y0379500D02*
X0379500Y0199500D01*
X0379500Y0199500D02*
X0199500Y0199500D01*
D89*
X0022900Y0010400D02*
X0010400Y0010400D01*
X0010400Y0022900D01*
X0379600Y0022900D02*
X0379600Y0010400D01*
X0367100Y0010400D01*
X0367100Y0379600D02*
X0379600Y0379600D01*
X0379600Y0367100D01*
X0010400Y0367100D02*
X0010400Y0379600D01*
X0022900Y0379600D01*
M02*
