G75*
%MOIN*%
%OFA0B0*%
%FSLAX25Y25*%
%IPPOS*%
%LPD*%
%AMOC8*
5,1,8,0,0,1.08239X$1,22.5*
%
%ADD10R,0.08661X0.02362*%
%ADD11R,0.09843X0.07874*%
%ADD12R,0.12992X0.01969*%
%ADD13C,0.00000*%
%ADD14R,0.07874X0.09843*%
%ADD15R,0.01969X0.12992*%
%ADD16R,0.05118X0.06299*%
%ADD17R,0.11614X0.10630*%
%ADD18R,0.15748X0.03150*%
%ADD19R,0.06299X0.05118*%
%ADD20R,0.08000X0.06000*%
D10*
X0066890Y0057500D03*
X0066890Y0062500D03*
X0066890Y0067500D03*
X0066890Y0072500D03*
X0066890Y0077500D03*
X0066890Y0082500D03*
X0066890Y0087500D03*
X0066890Y0092500D03*
X0103110Y0092500D03*
X0103110Y0087500D03*
X0103110Y0082500D03*
X0103110Y0077500D03*
X0103110Y0072500D03*
X0103110Y0067500D03*
X0103110Y0062500D03*
X0103110Y0057500D03*
D11*
X0037343Y0124980D03*
X0015689Y0124980D03*
X0015689Y0160020D03*
X0037343Y0160020D03*
D12*
X0039705Y0148799D03*
X0039705Y0145650D03*
X0039705Y0142500D03*
X0039705Y0139350D03*
X0039705Y0136201D03*
D13*
X0006969Y0186102D02*
X0006969Y0020748D01*
X0014449Y0020748D02*
X0014451Y0020906D01*
X0014457Y0021064D01*
X0014467Y0021222D01*
X0014481Y0021380D01*
X0014499Y0021537D01*
X0014520Y0021694D01*
X0014546Y0021850D01*
X0014576Y0022006D01*
X0014609Y0022161D01*
X0014647Y0022314D01*
X0014688Y0022467D01*
X0014733Y0022619D01*
X0014782Y0022770D01*
X0014835Y0022919D01*
X0014891Y0023067D01*
X0014951Y0023213D01*
X0015015Y0023358D01*
X0015083Y0023501D01*
X0015154Y0023643D01*
X0015228Y0023783D01*
X0015306Y0023920D01*
X0015388Y0024056D01*
X0015472Y0024190D01*
X0015561Y0024321D01*
X0015652Y0024450D01*
X0015747Y0024577D01*
X0015844Y0024702D01*
X0015945Y0024824D01*
X0016049Y0024943D01*
X0016156Y0025060D01*
X0016266Y0025174D01*
X0016379Y0025285D01*
X0016494Y0025394D01*
X0016612Y0025499D01*
X0016733Y0025601D01*
X0016856Y0025701D01*
X0016982Y0025797D01*
X0017110Y0025890D01*
X0017240Y0025980D01*
X0017373Y0026066D01*
X0017508Y0026150D01*
X0017644Y0026229D01*
X0017783Y0026306D01*
X0017924Y0026378D01*
X0018066Y0026448D01*
X0018210Y0026513D01*
X0018356Y0026575D01*
X0018503Y0026633D01*
X0018652Y0026688D01*
X0018802Y0026739D01*
X0018953Y0026786D01*
X0019105Y0026829D01*
X0019258Y0026868D01*
X0019413Y0026904D01*
X0019568Y0026935D01*
X0019724Y0026963D01*
X0019880Y0026987D01*
X0020037Y0027007D01*
X0020195Y0027023D01*
X0020352Y0027035D01*
X0020511Y0027043D01*
X0020669Y0027047D01*
X0020827Y0027047D01*
X0020985Y0027043D01*
X0021144Y0027035D01*
X0021301Y0027023D01*
X0021459Y0027007D01*
X0021616Y0026987D01*
X0021772Y0026963D01*
X0021928Y0026935D01*
X0022083Y0026904D01*
X0022238Y0026868D01*
X0022391Y0026829D01*
X0022543Y0026786D01*
X0022694Y0026739D01*
X0022844Y0026688D01*
X0022993Y0026633D01*
X0023140Y0026575D01*
X0023286Y0026513D01*
X0023430Y0026448D01*
X0023572Y0026378D01*
X0023713Y0026306D01*
X0023852Y0026229D01*
X0023988Y0026150D01*
X0024123Y0026066D01*
X0024256Y0025980D01*
X0024386Y0025890D01*
X0024514Y0025797D01*
X0024640Y0025701D01*
X0024763Y0025601D01*
X0024884Y0025499D01*
X0025002Y0025394D01*
X0025117Y0025285D01*
X0025230Y0025174D01*
X0025340Y0025060D01*
X0025447Y0024943D01*
X0025551Y0024824D01*
X0025652Y0024702D01*
X0025749Y0024577D01*
X0025844Y0024450D01*
X0025935Y0024321D01*
X0026024Y0024190D01*
X0026108Y0024056D01*
X0026190Y0023920D01*
X0026268Y0023783D01*
X0026342Y0023643D01*
X0026413Y0023501D01*
X0026481Y0023358D01*
X0026545Y0023213D01*
X0026605Y0023067D01*
X0026661Y0022919D01*
X0026714Y0022770D01*
X0026763Y0022619D01*
X0026808Y0022467D01*
X0026849Y0022314D01*
X0026887Y0022161D01*
X0026920Y0022006D01*
X0026950Y0021850D01*
X0026976Y0021694D01*
X0026997Y0021537D01*
X0027015Y0021380D01*
X0027029Y0021222D01*
X0027039Y0021064D01*
X0027045Y0020906D01*
X0027047Y0020748D01*
X0027045Y0020590D01*
X0027039Y0020432D01*
X0027029Y0020274D01*
X0027015Y0020116D01*
X0026997Y0019959D01*
X0026976Y0019802D01*
X0026950Y0019646D01*
X0026920Y0019490D01*
X0026887Y0019335D01*
X0026849Y0019182D01*
X0026808Y0019029D01*
X0026763Y0018877D01*
X0026714Y0018726D01*
X0026661Y0018577D01*
X0026605Y0018429D01*
X0026545Y0018283D01*
X0026481Y0018138D01*
X0026413Y0017995D01*
X0026342Y0017853D01*
X0026268Y0017713D01*
X0026190Y0017576D01*
X0026108Y0017440D01*
X0026024Y0017306D01*
X0025935Y0017175D01*
X0025844Y0017046D01*
X0025749Y0016919D01*
X0025652Y0016794D01*
X0025551Y0016672D01*
X0025447Y0016553D01*
X0025340Y0016436D01*
X0025230Y0016322D01*
X0025117Y0016211D01*
X0025002Y0016102D01*
X0024884Y0015997D01*
X0024763Y0015895D01*
X0024640Y0015795D01*
X0024514Y0015699D01*
X0024386Y0015606D01*
X0024256Y0015516D01*
X0024123Y0015430D01*
X0023988Y0015346D01*
X0023852Y0015267D01*
X0023713Y0015190D01*
X0023572Y0015118D01*
X0023430Y0015048D01*
X0023286Y0014983D01*
X0023140Y0014921D01*
X0022993Y0014863D01*
X0022844Y0014808D01*
X0022694Y0014757D01*
X0022543Y0014710D01*
X0022391Y0014667D01*
X0022238Y0014628D01*
X0022083Y0014592D01*
X0021928Y0014561D01*
X0021772Y0014533D01*
X0021616Y0014509D01*
X0021459Y0014489D01*
X0021301Y0014473D01*
X0021144Y0014461D01*
X0020985Y0014453D01*
X0020827Y0014449D01*
X0020669Y0014449D01*
X0020511Y0014453D01*
X0020352Y0014461D01*
X0020195Y0014473D01*
X0020037Y0014489D01*
X0019880Y0014509D01*
X0019724Y0014533D01*
X0019568Y0014561D01*
X0019413Y0014592D01*
X0019258Y0014628D01*
X0019105Y0014667D01*
X0018953Y0014710D01*
X0018802Y0014757D01*
X0018652Y0014808D01*
X0018503Y0014863D01*
X0018356Y0014921D01*
X0018210Y0014983D01*
X0018066Y0015048D01*
X0017924Y0015118D01*
X0017783Y0015190D01*
X0017644Y0015267D01*
X0017508Y0015346D01*
X0017373Y0015430D01*
X0017240Y0015516D01*
X0017110Y0015606D01*
X0016982Y0015699D01*
X0016856Y0015795D01*
X0016733Y0015895D01*
X0016612Y0015997D01*
X0016494Y0016102D01*
X0016379Y0016211D01*
X0016266Y0016322D01*
X0016156Y0016436D01*
X0016049Y0016553D01*
X0015945Y0016672D01*
X0015844Y0016794D01*
X0015747Y0016919D01*
X0015652Y0017046D01*
X0015561Y0017175D01*
X0015472Y0017306D01*
X0015388Y0017440D01*
X0015306Y0017576D01*
X0015228Y0017713D01*
X0015154Y0017853D01*
X0015083Y0017995D01*
X0015015Y0018138D01*
X0014951Y0018283D01*
X0014891Y0018429D01*
X0014835Y0018577D01*
X0014782Y0018726D01*
X0014733Y0018877D01*
X0014688Y0019029D01*
X0014647Y0019182D01*
X0014609Y0019335D01*
X0014576Y0019490D01*
X0014546Y0019646D01*
X0014520Y0019802D01*
X0014499Y0019959D01*
X0014481Y0020116D01*
X0014467Y0020274D01*
X0014457Y0020432D01*
X0014451Y0020590D01*
X0014449Y0020748D01*
X0006968Y0020748D02*
X0006972Y0020415D01*
X0006984Y0020082D01*
X0007004Y0019750D01*
X0007032Y0019418D01*
X0007068Y0019087D01*
X0007113Y0018757D01*
X0007165Y0018428D01*
X0007225Y0018100D01*
X0007293Y0017774D01*
X0007368Y0017450D01*
X0007452Y0017128D01*
X0007543Y0016808D01*
X0007642Y0016490D01*
X0007749Y0016174D01*
X0007863Y0015862D01*
X0007985Y0015552D01*
X0008115Y0015245D01*
X0008251Y0014941D01*
X0008395Y0014641D01*
X0008546Y0014344D01*
X0008705Y0014051D01*
X0008870Y0013762D01*
X0009042Y0013477D01*
X0009221Y0013196D01*
X0009407Y0012920D01*
X0009600Y0012648D01*
X0009799Y0012381D01*
X0010004Y0012119D01*
X0010216Y0011862D01*
X0010434Y0011610D01*
X0010657Y0011364D01*
X0010887Y0011123D01*
X0011123Y0010887D01*
X0011364Y0010657D01*
X0011610Y0010434D01*
X0011862Y0010216D01*
X0012119Y0010004D01*
X0012381Y0009799D01*
X0012648Y0009600D01*
X0012920Y0009407D01*
X0013196Y0009221D01*
X0013477Y0009042D01*
X0013762Y0008870D01*
X0014051Y0008705D01*
X0014344Y0008546D01*
X0014641Y0008395D01*
X0014941Y0008251D01*
X0015245Y0008115D01*
X0015552Y0007985D01*
X0015862Y0007863D01*
X0016174Y0007749D01*
X0016490Y0007642D01*
X0016808Y0007543D01*
X0017128Y0007452D01*
X0017450Y0007368D01*
X0017774Y0007293D01*
X0018100Y0007225D01*
X0018428Y0007165D01*
X0018757Y0007113D01*
X0019087Y0007068D01*
X0019418Y0007032D01*
X0019750Y0007004D01*
X0020082Y0006984D01*
X0020415Y0006972D01*
X0020748Y0006968D01*
X0020748Y0006969D02*
X0186102Y0006969D01*
X0179803Y0020748D02*
X0179805Y0020906D01*
X0179811Y0021064D01*
X0179821Y0021222D01*
X0179835Y0021380D01*
X0179853Y0021537D01*
X0179874Y0021694D01*
X0179900Y0021850D01*
X0179930Y0022006D01*
X0179963Y0022161D01*
X0180001Y0022314D01*
X0180042Y0022467D01*
X0180087Y0022619D01*
X0180136Y0022770D01*
X0180189Y0022919D01*
X0180245Y0023067D01*
X0180305Y0023213D01*
X0180369Y0023358D01*
X0180437Y0023501D01*
X0180508Y0023643D01*
X0180582Y0023783D01*
X0180660Y0023920D01*
X0180742Y0024056D01*
X0180826Y0024190D01*
X0180915Y0024321D01*
X0181006Y0024450D01*
X0181101Y0024577D01*
X0181198Y0024702D01*
X0181299Y0024824D01*
X0181403Y0024943D01*
X0181510Y0025060D01*
X0181620Y0025174D01*
X0181733Y0025285D01*
X0181848Y0025394D01*
X0181966Y0025499D01*
X0182087Y0025601D01*
X0182210Y0025701D01*
X0182336Y0025797D01*
X0182464Y0025890D01*
X0182594Y0025980D01*
X0182727Y0026066D01*
X0182862Y0026150D01*
X0182998Y0026229D01*
X0183137Y0026306D01*
X0183278Y0026378D01*
X0183420Y0026448D01*
X0183564Y0026513D01*
X0183710Y0026575D01*
X0183857Y0026633D01*
X0184006Y0026688D01*
X0184156Y0026739D01*
X0184307Y0026786D01*
X0184459Y0026829D01*
X0184612Y0026868D01*
X0184767Y0026904D01*
X0184922Y0026935D01*
X0185078Y0026963D01*
X0185234Y0026987D01*
X0185391Y0027007D01*
X0185549Y0027023D01*
X0185706Y0027035D01*
X0185865Y0027043D01*
X0186023Y0027047D01*
X0186181Y0027047D01*
X0186339Y0027043D01*
X0186498Y0027035D01*
X0186655Y0027023D01*
X0186813Y0027007D01*
X0186970Y0026987D01*
X0187126Y0026963D01*
X0187282Y0026935D01*
X0187437Y0026904D01*
X0187592Y0026868D01*
X0187745Y0026829D01*
X0187897Y0026786D01*
X0188048Y0026739D01*
X0188198Y0026688D01*
X0188347Y0026633D01*
X0188494Y0026575D01*
X0188640Y0026513D01*
X0188784Y0026448D01*
X0188926Y0026378D01*
X0189067Y0026306D01*
X0189206Y0026229D01*
X0189342Y0026150D01*
X0189477Y0026066D01*
X0189610Y0025980D01*
X0189740Y0025890D01*
X0189868Y0025797D01*
X0189994Y0025701D01*
X0190117Y0025601D01*
X0190238Y0025499D01*
X0190356Y0025394D01*
X0190471Y0025285D01*
X0190584Y0025174D01*
X0190694Y0025060D01*
X0190801Y0024943D01*
X0190905Y0024824D01*
X0191006Y0024702D01*
X0191103Y0024577D01*
X0191198Y0024450D01*
X0191289Y0024321D01*
X0191378Y0024190D01*
X0191462Y0024056D01*
X0191544Y0023920D01*
X0191622Y0023783D01*
X0191696Y0023643D01*
X0191767Y0023501D01*
X0191835Y0023358D01*
X0191899Y0023213D01*
X0191959Y0023067D01*
X0192015Y0022919D01*
X0192068Y0022770D01*
X0192117Y0022619D01*
X0192162Y0022467D01*
X0192203Y0022314D01*
X0192241Y0022161D01*
X0192274Y0022006D01*
X0192304Y0021850D01*
X0192330Y0021694D01*
X0192351Y0021537D01*
X0192369Y0021380D01*
X0192383Y0021222D01*
X0192393Y0021064D01*
X0192399Y0020906D01*
X0192401Y0020748D01*
X0192399Y0020590D01*
X0192393Y0020432D01*
X0192383Y0020274D01*
X0192369Y0020116D01*
X0192351Y0019959D01*
X0192330Y0019802D01*
X0192304Y0019646D01*
X0192274Y0019490D01*
X0192241Y0019335D01*
X0192203Y0019182D01*
X0192162Y0019029D01*
X0192117Y0018877D01*
X0192068Y0018726D01*
X0192015Y0018577D01*
X0191959Y0018429D01*
X0191899Y0018283D01*
X0191835Y0018138D01*
X0191767Y0017995D01*
X0191696Y0017853D01*
X0191622Y0017713D01*
X0191544Y0017576D01*
X0191462Y0017440D01*
X0191378Y0017306D01*
X0191289Y0017175D01*
X0191198Y0017046D01*
X0191103Y0016919D01*
X0191006Y0016794D01*
X0190905Y0016672D01*
X0190801Y0016553D01*
X0190694Y0016436D01*
X0190584Y0016322D01*
X0190471Y0016211D01*
X0190356Y0016102D01*
X0190238Y0015997D01*
X0190117Y0015895D01*
X0189994Y0015795D01*
X0189868Y0015699D01*
X0189740Y0015606D01*
X0189610Y0015516D01*
X0189477Y0015430D01*
X0189342Y0015346D01*
X0189206Y0015267D01*
X0189067Y0015190D01*
X0188926Y0015118D01*
X0188784Y0015048D01*
X0188640Y0014983D01*
X0188494Y0014921D01*
X0188347Y0014863D01*
X0188198Y0014808D01*
X0188048Y0014757D01*
X0187897Y0014710D01*
X0187745Y0014667D01*
X0187592Y0014628D01*
X0187437Y0014592D01*
X0187282Y0014561D01*
X0187126Y0014533D01*
X0186970Y0014509D01*
X0186813Y0014489D01*
X0186655Y0014473D01*
X0186498Y0014461D01*
X0186339Y0014453D01*
X0186181Y0014449D01*
X0186023Y0014449D01*
X0185865Y0014453D01*
X0185706Y0014461D01*
X0185549Y0014473D01*
X0185391Y0014489D01*
X0185234Y0014509D01*
X0185078Y0014533D01*
X0184922Y0014561D01*
X0184767Y0014592D01*
X0184612Y0014628D01*
X0184459Y0014667D01*
X0184307Y0014710D01*
X0184156Y0014757D01*
X0184006Y0014808D01*
X0183857Y0014863D01*
X0183710Y0014921D01*
X0183564Y0014983D01*
X0183420Y0015048D01*
X0183278Y0015118D01*
X0183137Y0015190D01*
X0182998Y0015267D01*
X0182862Y0015346D01*
X0182727Y0015430D01*
X0182594Y0015516D01*
X0182464Y0015606D01*
X0182336Y0015699D01*
X0182210Y0015795D01*
X0182087Y0015895D01*
X0181966Y0015997D01*
X0181848Y0016102D01*
X0181733Y0016211D01*
X0181620Y0016322D01*
X0181510Y0016436D01*
X0181403Y0016553D01*
X0181299Y0016672D01*
X0181198Y0016794D01*
X0181101Y0016919D01*
X0181006Y0017046D01*
X0180915Y0017175D01*
X0180826Y0017306D01*
X0180742Y0017440D01*
X0180660Y0017576D01*
X0180582Y0017713D01*
X0180508Y0017853D01*
X0180437Y0017995D01*
X0180369Y0018138D01*
X0180305Y0018283D01*
X0180245Y0018429D01*
X0180189Y0018577D01*
X0180136Y0018726D01*
X0180087Y0018877D01*
X0180042Y0019029D01*
X0180001Y0019182D01*
X0179963Y0019335D01*
X0179930Y0019490D01*
X0179900Y0019646D01*
X0179874Y0019802D01*
X0179853Y0019959D01*
X0179835Y0020116D01*
X0179821Y0020274D01*
X0179811Y0020432D01*
X0179805Y0020590D01*
X0179803Y0020748D01*
X0186102Y0006968D02*
X0186435Y0006972D01*
X0186768Y0006984D01*
X0187100Y0007004D01*
X0187432Y0007032D01*
X0187763Y0007068D01*
X0188093Y0007113D01*
X0188422Y0007165D01*
X0188750Y0007225D01*
X0189076Y0007293D01*
X0189400Y0007368D01*
X0189722Y0007452D01*
X0190042Y0007543D01*
X0190360Y0007642D01*
X0190676Y0007749D01*
X0190988Y0007863D01*
X0191298Y0007985D01*
X0191605Y0008115D01*
X0191909Y0008251D01*
X0192209Y0008395D01*
X0192506Y0008546D01*
X0192799Y0008705D01*
X0193088Y0008870D01*
X0193373Y0009042D01*
X0193654Y0009221D01*
X0193930Y0009407D01*
X0194202Y0009600D01*
X0194469Y0009799D01*
X0194731Y0010004D01*
X0194988Y0010216D01*
X0195240Y0010434D01*
X0195486Y0010657D01*
X0195727Y0010887D01*
X0195963Y0011123D01*
X0196193Y0011364D01*
X0196416Y0011610D01*
X0196634Y0011862D01*
X0196846Y0012119D01*
X0197051Y0012381D01*
X0197250Y0012648D01*
X0197443Y0012920D01*
X0197629Y0013196D01*
X0197808Y0013477D01*
X0197980Y0013762D01*
X0198145Y0014051D01*
X0198304Y0014344D01*
X0198455Y0014641D01*
X0198599Y0014941D01*
X0198735Y0015245D01*
X0198865Y0015552D01*
X0198987Y0015862D01*
X0199101Y0016174D01*
X0199208Y0016490D01*
X0199307Y0016808D01*
X0199398Y0017128D01*
X0199482Y0017450D01*
X0199557Y0017774D01*
X0199625Y0018100D01*
X0199685Y0018428D01*
X0199737Y0018757D01*
X0199782Y0019087D01*
X0199818Y0019418D01*
X0199846Y0019750D01*
X0199866Y0020082D01*
X0199878Y0020415D01*
X0199882Y0020748D01*
X0199882Y0186102D01*
X0179803Y0186102D02*
X0179805Y0186260D01*
X0179811Y0186418D01*
X0179821Y0186576D01*
X0179835Y0186734D01*
X0179853Y0186891D01*
X0179874Y0187048D01*
X0179900Y0187204D01*
X0179930Y0187360D01*
X0179963Y0187515D01*
X0180001Y0187668D01*
X0180042Y0187821D01*
X0180087Y0187973D01*
X0180136Y0188124D01*
X0180189Y0188273D01*
X0180245Y0188421D01*
X0180305Y0188567D01*
X0180369Y0188712D01*
X0180437Y0188855D01*
X0180508Y0188997D01*
X0180582Y0189137D01*
X0180660Y0189274D01*
X0180742Y0189410D01*
X0180826Y0189544D01*
X0180915Y0189675D01*
X0181006Y0189804D01*
X0181101Y0189931D01*
X0181198Y0190056D01*
X0181299Y0190178D01*
X0181403Y0190297D01*
X0181510Y0190414D01*
X0181620Y0190528D01*
X0181733Y0190639D01*
X0181848Y0190748D01*
X0181966Y0190853D01*
X0182087Y0190955D01*
X0182210Y0191055D01*
X0182336Y0191151D01*
X0182464Y0191244D01*
X0182594Y0191334D01*
X0182727Y0191420D01*
X0182862Y0191504D01*
X0182998Y0191583D01*
X0183137Y0191660D01*
X0183278Y0191732D01*
X0183420Y0191802D01*
X0183564Y0191867D01*
X0183710Y0191929D01*
X0183857Y0191987D01*
X0184006Y0192042D01*
X0184156Y0192093D01*
X0184307Y0192140D01*
X0184459Y0192183D01*
X0184612Y0192222D01*
X0184767Y0192258D01*
X0184922Y0192289D01*
X0185078Y0192317D01*
X0185234Y0192341D01*
X0185391Y0192361D01*
X0185549Y0192377D01*
X0185706Y0192389D01*
X0185865Y0192397D01*
X0186023Y0192401D01*
X0186181Y0192401D01*
X0186339Y0192397D01*
X0186498Y0192389D01*
X0186655Y0192377D01*
X0186813Y0192361D01*
X0186970Y0192341D01*
X0187126Y0192317D01*
X0187282Y0192289D01*
X0187437Y0192258D01*
X0187592Y0192222D01*
X0187745Y0192183D01*
X0187897Y0192140D01*
X0188048Y0192093D01*
X0188198Y0192042D01*
X0188347Y0191987D01*
X0188494Y0191929D01*
X0188640Y0191867D01*
X0188784Y0191802D01*
X0188926Y0191732D01*
X0189067Y0191660D01*
X0189206Y0191583D01*
X0189342Y0191504D01*
X0189477Y0191420D01*
X0189610Y0191334D01*
X0189740Y0191244D01*
X0189868Y0191151D01*
X0189994Y0191055D01*
X0190117Y0190955D01*
X0190238Y0190853D01*
X0190356Y0190748D01*
X0190471Y0190639D01*
X0190584Y0190528D01*
X0190694Y0190414D01*
X0190801Y0190297D01*
X0190905Y0190178D01*
X0191006Y0190056D01*
X0191103Y0189931D01*
X0191198Y0189804D01*
X0191289Y0189675D01*
X0191378Y0189544D01*
X0191462Y0189410D01*
X0191544Y0189274D01*
X0191622Y0189137D01*
X0191696Y0188997D01*
X0191767Y0188855D01*
X0191835Y0188712D01*
X0191899Y0188567D01*
X0191959Y0188421D01*
X0192015Y0188273D01*
X0192068Y0188124D01*
X0192117Y0187973D01*
X0192162Y0187821D01*
X0192203Y0187668D01*
X0192241Y0187515D01*
X0192274Y0187360D01*
X0192304Y0187204D01*
X0192330Y0187048D01*
X0192351Y0186891D01*
X0192369Y0186734D01*
X0192383Y0186576D01*
X0192393Y0186418D01*
X0192399Y0186260D01*
X0192401Y0186102D01*
X0192399Y0185944D01*
X0192393Y0185786D01*
X0192383Y0185628D01*
X0192369Y0185470D01*
X0192351Y0185313D01*
X0192330Y0185156D01*
X0192304Y0185000D01*
X0192274Y0184844D01*
X0192241Y0184689D01*
X0192203Y0184536D01*
X0192162Y0184383D01*
X0192117Y0184231D01*
X0192068Y0184080D01*
X0192015Y0183931D01*
X0191959Y0183783D01*
X0191899Y0183637D01*
X0191835Y0183492D01*
X0191767Y0183349D01*
X0191696Y0183207D01*
X0191622Y0183067D01*
X0191544Y0182930D01*
X0191462Y0182794D01*
X0191378Y0182660D01*
X0191289Y0182529D01*
X0191198Y0182400D01*
X0191103Y0182273D01*
X0191006Y0182148D01*
X0190905Y0182026D01*
X0190801Y0181907D01*
X0190694Y0181790D01*
X0190584Y0181676D01*
X0190471Y0181565D01*
X0190356Y0181456D01*
X0190238Y0181351D01*
X0190117Y0181249D01*
X0189994Y0181149D01*
X0189868Y0181053D01*
X0189740Y0180960D01*
X0189610Y0180870D01*
X0189477Y0180784D01*
X0189342Y0180700D01*
X0189206Y0180621D01*
X0189067Y0180544D01*
X0188926Y0180472D01*
X0188784Y0180402D01*
X0188640Y0180337D01*
X0188494Y0180275D01*
X0188347Y0180217D01*
X0188198Y0180162D01*
X0188048Y0180111D01*
X0187897Y0180064D01*
X0187745Y0180021D01*
X0187592Y0179982D01*
X0187437Y0179946D01*
X0187282Y0179915D01*
X0187126Y0179887D01*
X0186970Y0179863D01*
X0186813Y0179843D01*
X0186655Y0179827D01*
X0186498Y0179815D01*
X0186339Y0179807D01*
X0186181Y0179803D01*
X0186023Y0179803D01*
X0185865Y0179807D01*
X0185706Y0179815D01*
X0185549Y0179827D01*
X0185391Y0179843D01*
X0185234Y0179863D01*
X0185078Y0179887D01*
X0184922Y0179915D01*
X0184767Y0179946D01*
X0184612Y0179982D01*
X0184459Y0180021D01*
X0184307Y0180064D01*
X0184156Y0180111D01*
X0184006Y0180162D01*
X0183857Y0180217D01*
X0183710Y0180275D01*
X0183564Y0180337D01*
X0183420Y0180402D01*
X0183278Y0180472D01*
X0183137Y0180544D01*
X0182998Y0180621D01*
X0182862Y0180700D01*
X0182727Y0180784D01*
X0182594Y0180870D01*
X0182464Y0180960D01*
X0182336Y0181053D01*
X0182210Y0181149D01*
X0182087Y0181249D01*
X0181966Y0181351D01*
X0181848Y0181456D01*
X0181733Y0181565D01*
X0181620Y0181676D01*
X0181510Y0181790D01*
X0181403Y0181907D01*
X0181299Y0182026D01*
X0181198Y0182148D01*
X0181101Y0182273D01*
X0181006Y0182400D01*
X0180915Y0182529D01*
X0180826Y0182660D01*
X0180742Y0182794D01*
X0180660Y0182930D01*
X0180582Y0183067D01*
X0180508Y0183207D01*
X0180437Y0183349D01*
X0180369Y0183492D01*
X0180305Y0183637D01*
X0180245Y0183783D01*
X0180189Y0183931D01*
X0180136Y0184080D01*
X0180087Y0184231D01*
X0180042Y0184383D01*
X0180001Y0184536D01*
X0179963Y0184689D01*
X0179930Y0184844D01*
X0179900Y0185000D01*
X0179874Y0185156D01*
X0179853Y0185313D01*
X0179835Y0185470D01*
X0179821Y0185628D01*
X0179811Y0185786D01*
X0179805Y0185944D01*
X0179803Y0186102D01*
X0186102Y0199882D02*
X0186435Y0199878D01*
X0186768Y0199866D01*
X0187100Y0199846D01*
X0187432Y0199818D01*
X0187763Y0199782D01*
X0188093Y0199737D01*
X0188422Y0199685D01*
X0188750Y0199625D01*
X0189076Y0199557D01*
X0189400Y0199482D01*
X0189722Y0199398D01*
X0190042Y0199307D01*
X0190360Y0199208D01*
X0190676Y0199101D01*
X0190988Y0198987D01*
X0191298Y0198865D01*
X0191605Y0198735D01*
X0191909Y0198599D01*
X0192209Y0198455D01*
X0192506Y0198304D01*
X0192799Y0198145D01*
X0193088Y0197980D01*
X0193373Y0197808D01*
X0193654Y0197629D01*
X0193930Y0197443D01*
X0194202Y0197250D01*
X0194469Y0197051D01*
X0194731Y0196846D01*
X0194988Y0196634D01*
X0195240Y0196416D01*
X0195486Y0196193D01*
X0195727Y0195963D01*
X0195963Y0195727D01*
X0196193Y0195486D01*
X0196416Y0195240D01*
X0196634Y0194988D01*
X0196846Y0194731D01*
X0197051Y0194469D01*
X0197250Y0194202D01*
X0197443Y0193930D01*
X0197629Y0193654D01*
X0197808Y0193373D01*
X0197980Y0193088D01*
X0198145Y0192799D01*
X0198304Y0192506D01*
X0198455Y0192209D01*
X0198599Y0191909D01*
X0198735Y0191605D01*
X0198865Y0191298D01*
X0198987Y0190988D01*
X0199101Y0190676D01*
X0199208Y0190360D01*
X0199307Y0190042D01*
X0199398Y0189722D01*
X0199482Y0189400D01*
X0199557Y0189076D01*
X0199625Y0188750D01*
X0199685Y0188422D01*
X0199737Y0188093D01*
X0199782Y0187763D01*
X0199818Y0187432D01*
X0199846Y0187100D01*
X0199866Y0186768D01*
X0199878Y0186435D01*
X0199882Y0186102D01*
X0186102Y0199882D02*
X0020748Y0199882D01*
X0014449Y0186102D02*
X0014451Y0186260D01*
X0014457Y0186418D01*
X0014467Y0186576D01*
X0014481Y0186734D01*
X0014499Y0186891D01*
X0014520Y0187048D01*
X0014546Y0187204D01*
X0014576Y0187360D01*
X0014609Y0187515D01*
X0014647Y0187668D01*
X0014688Y0187821D01*
X0014733Y0187973D01*
X0014782Y0188124D01*
X0014835Y0188273D01*
X0014891Y0188421D01*
X0014951Y0188567D01*
X0015015Y0188712D01*
X0015083Y0188855D01*
X0015154Y0188997D01*
X0015228Y0189137D01*
X0015306Y0189274D01*
X0015388Y0189410D01*
X0015472Y0189544D01*
X0015561Y0189675D01*
X0015652Y0189804D01*
X0015747Y0189931D01*
X0015844Y0190056D01*
X0015945Y0190178D01*
X0016049Y0190297D01*
X0016156Y0190414D01*
X0016266Y0190528D01*
X0016379Y0190639D01*
X0016494Y0190748D01*
X0016612Y0190853D01*
X0016733Y0190955D01*
X0016856Y0191055D01*
X0016982Y0191151D01*
X0017110Y0191244D01*
X0017240Y0191334D01*
X0017373Y0191420D01*
X0017508Y0191504D01*
X0017644Y0191583D01*
X0017783Y0191660D01*
X0017924Y0191732D01*
X0018066Y0191802D01*
X0018210Y0191867D01*
X0018356Y0191929D01*
X0018503Y0191987D01*
X0018652Y0192042D01*
X0018802Y0192093D01*
X0018953Y0192140D01*
X0019105Y0192183D01*
X0019258Y0192222D01*
X0019413Y0192258D01*
X0019568Y0192289D01*
X0019724Y0192317D01*
X0019880Y0192341D01*
X0020037Y0192361D01*
X0020195Y0192377D01*
X0020352Y0192389D01*
X0020511Y0192397D01*
X0020669Y0192401D01*
X0020827Y0192401D01*
X0020985Y0192397D01*
X0021144Y0192389D01*
X0021301Y0192377D01*
X0021459Y0192361D01*
X0021616Y0192341D01*
X0021772Y0192317D01*
X0021928Y0192289D01*
X0022083Y0192258D01*
X0022238Y0192222D01*
X0022391Y0192183D01*
X0022543Y0192140D01*
X0022694Y0192093D01*
X0022844Y0192042D01*
X0022993Y0191987D01*
X0023140Y0191929D01*
X0023286Y0191867D01*
X0023430Y0191802D01*
X0023572Y0191732D01*
X0023713Y0191660D01*
X0023852Y0191583D01*
X0023988Y0191504D01*
X0024123Y0191420D01*
X0024256Y0191334D01*
X0024386Y0191244D01*
X0024514Y0191151D01*
X0024640Y0191055D01*
X0024763Y0190955D01*
X0024884Y0190853D01*
X0025002Y0190748D01*
X0025117Y0190639D01*
X0025230Y0190528D01*
X0025340Y0190414D01*
X0025447Y0190297D01*
X0025551Y0190178D01*
X0025652Y0190056D01*
X0025749Y0189931D01*
X0025844Y0189804D01*
X0025935Y0189675D01*
X0026024Y0189544D01*
X0026108Y0189410D01*
X0026190Y0189274D01*
X0026268Y0189137D01*
X0026342Y0188997D01*
X0026413Y0188855D01*
X0026481Y0188712D01*
X0026545Y0188567D01*
X0026605Y0188421D01*
X0026661Y0188273D01*
X0026714Y0188124D01*
X0026763Y0187973D01*
X0026808Y0187821D01*
X0026849Y0187668D01*
X0026887Y0187515D01*
X0026920Y0187360D01*
X0026950Y0187204D01*
X0026976Y0187048D01*
X0026997Y0186891D01*
X0027015Y0186734D01*
X0027029Y0186576D01*
X0027039Y0186418D01*
X0027045Y0186260D01*
X0027047Y0186102D01*
X0027045Y0185944D01*
X0027039Y0185786D01*
X0027029Y0185628D01*
X0027015Y0185470D01*
X0026997Y0185313D01*
X0026976Y0185156D01*
X0026950Y0185000D01*
X0026920Y0184844D01*
X0026887Y0184689D01*
X0026849Y0184536D01*
X0026808Y0184383D01*
X0026763Y0184231D01*
X0026714Y0184080D01*
X0026661Y0183931D01*
X0026605Y0183783D01*
X0026545Y0183637D01*
X0026481Y0183492D01*
X0026413Y0183349D01*
X0026342Y0183207D01*
X0026268Y0183067D01*
X0026190Y0182930D01*
X0026108Y0182794D01*
X0026024Y0182660D01*
X0025935Y0182529D01*
X0025844Y0182400D01*
X0025749Y0182273D01*
X0025652Y0182148D01*
X0025551Y0182026D01*
X0025447Y0181907D01*
X0025340Y0181790D01*
X0025230Y0181676D01*
X0025117Y0181565D01*
X0025002Y0181456D01*
X0024884Y0181351D01*
X0024763Y0181249D01*
X0024640Y0181149D01*
X0024514Y0181053D01*
X0024386Y0180960D01*
X0024256Y0180870D01*
X0024123Y0180784D01*
X0023988Y0180700D01*
X0023852Y0180621D01*
X0023713Y0180544D01*
X0023572Y0180472D01*
X0023430Y0180402D01*
X0023286Y0180337D01*
X0023140Y0180275D01*
X0022993Y0180217D01*
X0022844Y0180162D01*
X0022694Y0180111D01*
X0022543Y0180064D01*
X0022391Y0180021D01*
X0022238Y0179982D01*
X0022083Y0179946D01*
X0021928Y0179915D01*
X0021772Y0179887D01*
X0021616Y0179863D01*
X0021459Y0179843D01*
X0021301Y0179827D01*
X0021144Y0179815D01*
X0020985Y0179807D01*
X0020827Y0179803D01*
X0020669Y0179803D01*
X0020511Y0179807D01*
X0020352Y0179815D01*
X0020195Y0179827D01*
X0020037Y0179843D01*
X0019880Y0179863D01*
X0019724Y0179887D01*
X0019568Y0179915D01*
X0019413Y0179946D01*
X0019258Y0179982D01*
X0019105Y0180021D01*
X0018953Y0180064D01*
X0018802Y0180111D01*
X0018652Y0180162D01*
X0018503Y0180217D01*
X0018356Y0180275D01*
X0018210Y0180337D01*
X0018066Y0180402D01*
X0017924Y0180472D01*
X0017783Y0180544D01*
X0017644Y0180621D01*
X0017508Y0180700D01*
X0017373Y0180784D01*
X0017240Y0180870D01*
X0017110Y0180960D01*
X0016982Y0181053D01*
X0016856Y0181149D01*
X0016733Y0181249D01*
X0016612Y0181351D01*
X0016494Y0181456D01*
X0016379Y0181565D01*
X0016266Y0181676D01*
X0016156Y0181790D01*
X0016049Y0181907D01*
X0015945Y0182026D01*
X0015844Y0182148D01*
X0015747Y0182273D01*
X0015652Y0182400D01*
X0015561Y0182529D01*
X0015472Y0182660D01*
X0015388Y0182794D01*
X0015306Y0182930D01*
X0015228Y0183067D01*
X0015154Y0183207D01*
X0015083Y0183349D01*
X0015015Y0183492D01*
X0014951Y0183637D01*
X0014891Y0183783D01*
X0014835Y0183931D01*
X0014782Y0184080D01*
X0014733Y0184231D01*
X0014688Y0184383D01*
X0014647Y0184536D01*
X0014609Y0184689D01*
X0014576Y0184844D01*
X0014546Y0185000D01*
X0014520Y0185156D01*
X0014499Y0185313D01*
X0014481Y0185470D01*
X0014467Y0185628D01*
X0014457Y0185786D01*
X0014451Y0185944D01*
X0014449Y0186102D01*
X0006968Y0186102D02*
X0006972Y0186435D01*
X0006984Y0186768D01*
X0007004Y0187100D01*
X0007032Y0187432D01*
X0007068Y0187763D01*
X0007113Y0188093D01*
X0007165Y0188422D01*
X0007225Y0188750D01*
X0007293Y0189076D01*
X0007368Y0189400D01*
X0007452Y0189722D01*
X0007543Y0190042D01*
X0007642Y0190360D01*
X0007749Y0190676D01*
X0007863Y0190988D01*
X0007985Y0191298D01*
X0008115Y0191605D01*
X0008251Y0191909D01*
X0008395Y0192209D01*
X0008546Y0192506D01*
X0008705Y0192799D01*
X0008870Y0193088D01*
X0009042Y0193373D01*
X0009221Y0193654D01*
X0009407Y0193930D01*
X0009600Y0194202D01*
X0009799Y0194469D01*
X0010004Y0194731D01*
X0010216Y0194988D01*
X0010434Y0195240D01*
X0010657Y0195486D01*
X0010887Y0195727D01*
X0011123Y0195963D01*
X0011364Y0196193D01*
X0011610Y0196416D01*
X0011862Y0196634D01*
X0012119Y0196846D01*
X0012381Y0197051D01*
X0012648Y0197250D01*
X0012920Y0197443D01*
X0013196Y0197629D01*
X0013477Y0197808D01*
X0013762Y0197980D01*
X0014051Y0198145D01*
X0014344Y0198304D01*
X0014641Y0198455D01*
X0014941Y0198599D01*
X0015245Y0198735D01*
X0015552Y0198865D01*
X0015862Y0198987D01*
X0016174Y0199101D01*
X0016490Y0199208D01*
X0016808Y0199307D01*
X0017128Y0199398D01*
X0017450Y0199482D01*
X0017774Y0199557D01*
X0018100Y0199625D01*
X0018428Y0199685D01*
X0018757Y0199737D01*
X0019087Y0199782D01*
X0019418Y0199818D01*
X0019750Y0199846D01*
X0020082Y0199866D01*
X0020415Y0199878D01*
X0020748Y0199882D01*
X0025728Y0151161D02*
X0025730Y0151245D01*
X0025736Y0151328D01*
X0025746Y0151411D01*
X0025760Y0151494D01*
X0025777Y0151576D01*
X0025799Y0151657D01*
X0025824Y0151736D01*
X0025853Y0151815D01*
X0025886Y0151892D01*
X0025922Y0151967D01*
X0025962Y0152041D01*
X0026005Y0152113D01*
X0026052Y0152182D01*
X0026102Y0152249D01*
X0026155Y0152314D01*
X0026211Y0152376D01*
X0026269Y0152436D01*
X0026331Y0152493D01*
X0026395Y0152546D01*
X0026462Y0152597D01*
X0026531Y0152644D01*
X0026602Y0152689D01*
X0026675Y0152729D01*
X0026750Y0152766D01*
X0026827Y0152800D01*
X0026905Y0152830D01*
X0026984Y0152856D01*
X0027065Y0152879D01*
X0027147Y0152897D01*
X0027229Y0152912D01*
X0027312Y0152923D01*
X0027395Y0152930D01*
X0027479Y0152933D01*
X0027563Y0152932D01*
X0027646Y0152927D01*
X0027730Y0152918D01*
X0027812Y0152905D01*
X0027894Y0152889D01*
X0027975Y0152868D01*
X0028056Y0152844D01*
X0028134Y0152816D01*
X0028212Y0152784D01*
X0028288Y0152748D01*
X0028362Y0152709D01*
X0028434Y0152667D01*
X0028504Y0152621D01*
X0028572Y0152572D01*
X0028637Y0152520D01*
X0028700Y0152465D01*
X0028760Y0152407D01*
X0028818Y0152346D01*
X0028872Y0152282D01*
X0028924Y0152216D01*
X0028972Y0152148D01*
X0029017Y0152077D01*
X0029058Y0152004D01*
X0029097Y0151930D01*
X0029131Y0151854D01*
X0029162Y0151776D01*
X0029189Y0151697D01*
X0029213Y0151616D01*
X0029232Y0151535D01*
X0029248Y0151453D01*
X0029260Y0151370D01*
X0029268Y0151286D01*
X0029272Y0151203D01*
X0029272Y0151119D01*
X0029268Y0151036D01*
X0029260Y0150952D01*
X0029248Y0150869D01*
X0029232Y0150787D01*
X0029213Y0150706D01*
X0029189Y0150625D01*
X0029162Y0150546D01*
X0029131Y0150468D01*
X0029097Y0150392D01*
X0029058Y0150318D01*
X0029017Y0150245D01*
X0028972Y0150174D01*
X0028924Y0150106D01*
X0028872Y0150040D01*
X0028818Y0149976D01*
X0028760Y0149915D01*
X0028700Y0149857D01*
X0028637Y0149802D01*
X0028572Y0149750D01*
X0028504Y0149701D01*
X0028434Y0149655D01*
X0028362Y0149613D01*
X0028288Y0149574D01*
X0028212Y0149538D01*
X0028134Y0149506D01*
X0028056Y0149478D01*
X0027975Y0149454D01*
X0027894Y0149433D01*
X0027812Y0149417D01*
X0027730Y0149404D01*
X0027646Y0149395D01*
X0027563Y0149390D01*
X0027479Y0149389D01*
X0027395Y0149392D01*
X0027312Y0149399D01*
X0027229Y0149410D01*
X0027147Y0149425D01*
X0027065Y0149443D01*
X0026984Y0149466D01*
X0026905Y0149492D01*
X0026827Y0149522D01*
X0026750Y0149556D01*
X0026675Y0149593D01*
X0026602Y0149633D01*
X0026531Y0149678D01*
X0026462Y0149725D01*
X0026395Y0149776D01*
X0026331Y0149829D01*
X0026269Y0149886D01*
X0026211Y0149946D01*
X0026155Y0150008D01*
X0026102Y0150073D01*
X0026052Y0150140D01*
X0026005Y0150209D01*
X0025962Y0150281D01*
X0025922Y0150355D01*
X0025886Y0150430D01*
X0025853Y0150507D01*
X0025824Y0150586D01*
X0025799Y0150665D01*
X0025777Y0150746D01*
X0025760Y0150828D01*
X0025746Y0150911D01*
X0025736Y0150994D01*
X0025730Y0151077D01*
X0025728Y0151161D01*
X0025728Y0133839D02*
X0025730Y0133923D01*
X0025736Y0134006D01*
X0025746Y0134089D01*
X0025760Y0134172D01*
X0025777Y0134254D01*
X0025799Y0134335D01*
X0025824Y0134414D01*
X0025853Y0134493D01*
X0025886Y0134570D01*
X0025922Y0134645D01*
X0025962Y0134719D01*
X0026005Y0134791D01*
X0026052Y0134860D01*
X0026102Y0134927D01*
X0026155Y0134992D01*
X0026211Y0135054D01*
X0026269Y0135114D01*
X0026331Y0135171D01*
X0026395Y0135224D01*
X0026462Y0135275D01*
X0026531Y0135322D01*
X0026602Y0135367D01*
X0026675Y0135407D01*
X0026750Y0135444D01*
X0026827Y0135478D01*
X0026905Y0135508D01*
X0026984Y0135534D01*
X0027065Y0135557D01*
X0027147Y0135575D01*
X0027229Y0135590D01*
X0027312Y0135601D01*
X0027395Y0135608D01*
X0027479Y0135611D01*
X0027563Y0135610D01*
X0027646Y0135605D01*
X0027730Y0135596D01*
X0027812Y0135583D01*
X0027894Y0135567D01*
X0027975Y0135546D01*
X0028056Y0135522D01*
X0028134Y0135494D01*
X0028212Y0135462D01*
X0028288Y0135426D01*
X0028362Y0135387D01*
X0028434Y0135345D01*
X0028504Y0135299D01*
X0028572Y0135250D01*
X0028637Y0135198D01*
X0028700Y0135143D01*
X0028760Y0135085D01*
X0028818Y0135024D01*
X0028872Y0134960D01*
X0028924Y0134894D01*
X0028972Y0134826D01*
X0029017Y0134755D01*
X0029058Y0134682D01*
X0029097Y0134608D01*
X0029131Y0134532D01*
X0029162Y0134454D01*
X0029189Y0134375D01*
X0029213Y0134294D01*
X0029232Y0134213D01*
X0029248Y0134131D01*
X0029260Y0134048D01*
X0029268Y0133964D01*
X0029272Y0133881D01*
X0029272Y0133797D01*
X0029268Y0133714D01*
X0029260Y0133630D01*
X0029248Y0133547D01*
X0029232Y0133465D01*
X0029213Y0133384D01*
X0029189Y0133303D01*
X0029162Y0133224D01*
X0029131Y0133146D01*
X0029097Y0133070D01*
X0029058Y0132996D01*
X0029017Y0132923D01*
X0028972Y0132852D01*
X0028924Y0132784D01*
X0028872Y0132718D01*
X0028818Y0132654D01*
X0028760Y0132593D01*
X0028700Y0132535D01*
X0028637Y0132480D01*
X0028572Y0132428D01*
X0028504Y0132379D01*
X0028434Y0132333D01*
X0028362Y0132291D01*
X0028288Y0132252D01*
X0028212Y0132216D01*
X0028134Y0132184D01*
X0028056Y0132156D01*
X0027975Y0132132D01*
X0027894Y0132111D01*
X0027812Y0132095D01*
X0027730Y0132082D01*
X0027646Y0132073D01*
X0027563Y0132068D01*
X0027479Y0132067D01*
X0027395Y0132070D01*
X0027312Y0132077D01*
X0027229Y0132088D01*
X0027147Y0132103D01*
X0027065Y0132121D01*
X0026984Y0132144D01*
X0026905Y0132170D01*
X0026827Y0132200D01*
X0026750Y0132234D01*
X0026675Y0132271D01*
X0026602Y0132311D01*
X0026531Y0132356D01*
X0026462Y0132403D01*
X0026395Y0132454D01*
X0026331Y0132507D01*
X0026269Y0132564D01*
X0026211Y0132624D01*
X0026155Y0132686D01*
X0026102Y0132751D01*
X0026052Y0132818D01*
X0026005Y0132887D01*
X0025962Y0132959D01*
X0025922Y0133033D01*
X0025886Y0133108D01*
X0025853Y0133185D01*
X0025824Y0133264D01*
X0025799Y0133343D01*
X0025777Y0133424D01*
X0025760Y0133506D01*
X0025746Y0133589D01*
X0025736Y0133672D01*
X0025730Y0133755D01*
X0025728Y0133839D01*
X0139567Y0180000D02*
X0139569Y0180084D01*
X0139575Y0180167D01*
X0139585Y0180250D01*
X0139599Y0180333D01*
X0139616Y0180415D01*
X0139638Y0180496D01*
X0139663Y0180575D01*
X0139692Y0180654D01*
X0139725Y0180731D01*
X0139761Y0180806D01*
X0139801Y0180880D01*
X0139844Y0180952D01*
X0139891Y0181021D01*
X0139941Y0181088D01*
X0139994Y0181153D01*
X0140050Y0181215D01*
X0140108Y0181275D01*
X0140170Y0181332D01*
X0140234Y0181385D01*
X0140301Y0181436D01*
X0140370Y0181483D01*
X0140441Y0181528D01*
X0140514Y0181568D01*
X0140589Y0181605D01*
X0140666Y0181639D01*
X0140744Y0181669D01*
X0140823Y0181695D01*
X0140904Y0181718D01*
X0140986Y0181736D01*
X0141068Y0181751D01*
X0141151Y0181762D01*
X0141234Y0181769D01*
X0141318Y0181772D01*
X0141402Y0181771D01*
X0141485Y0181766D01*
X0141569Y0181757D01*
X0141651Y0181744D01*
X0141733Y0181728D01*
X0141814Y0181707D01*
X0141895Y0181683D01*
X0141973Y0181655D01*
X0142051Y0181623D01*
X0142127Y0181587D01*
X0142201Y0181548D01*
X0142273Y0181506D01*
X0142343Y0181460D01*
X0142411Y0181411D01*
X0142476Y0181359D01*
X0142539Y0181304D01*
X0142599Y0181246D01*
X0142657Y0181185D01*
X0142711Y0181121D01*
X0142763Y0181055D01*
X0142811Y0180987D01*
X0142856Y0180916D01*
X0142897Y0180843D01*
X0142936Y0180769D01*
X0142970Y0180693D01*
X0143001Y0180615D01*
X0143028Y0180536D01*
X0143052Y0180455D01*
X0143071Y0180374D01*
X0143087Y0180292D01*
X0143099Y0180209D01*
X0143107Y0180125D01*
X0143111Y0180042D01*
X0143111Y0179958D01*
X0143107Y0179875D01*
X0143099Y0179791D01*
X0143087Y0179708D01*
X0143071Y0179626D01*
X0143052Y0179545D01*
X0143028Y0179464D01*
X0143001Y0179385D01*
X0142970Y0179307D01*
X0142936Y0179231D01*
X0142897Y0179157D01*
X0142856Y0179084D01*
X0142811Y0179013D01*
X0142763Y0178945D01*
X0142711Y0178879D01*
X0142657Y0178815D01*
X0142599Y0178754D01*
X0142539Y0178696D01*
X0142476Y0178641D01*
X0142411Y0178589D01*
X0142343Y0178540D01*
X0142273Y0178494D01*
X0142201Y0178452D01*
X0142127Y0178413D01*
X0142051Y0178377D01*
X0141973Y0178345D01*
X0141895Y0178317D01*
X0141814Y0178293D01*
X0141733Y0178272D01*
X0141651Y0178256D01*
X0141569Y0178243D01*
X0141485Y0178234D01*
X0141402Y0178229D01*
X0141318Y0178228D01*
X0141234Y0178231D01*
X0141151Y0178238D01*
X0141068Y0178249D01*
X0140986Y0178264D01*
X0140904Y0178282D01*
X0140823Y0178305D01*
X0140744Y0178331D01*
X0140666Y0178361D01*
X0140589Y0178395D01*
X0140514Y0178432D01*
X0140441Y0178472D01*
X0140370Y0178517D01*
X0140301Y0178564D01*
X0140234Y0178615D01*
X0140170Y0178668D01*
X0140108Y0178725D01*
X0140050Y0178785D01*
X0139994Y0178847D01*
X0139941Y0178912D01*
X0139891Y0178979D01*
X0139844Y0179048D01*
X0139801Y0179120D01*
X0139761Y0179194D01*
X0139725Y0179269D01*
X0139692Y0179346D01*
X0139663Y0179425D01*
X0139638Y0179504D01*
X0139616Y0179585D01*
X0139599Y0179667D01*
X0139585Y0179750D01*
X0139575Y0179833D01*
X0139569Y0179916D01*
X0139567Y0180000D01*
X0156889Y0180000D02*
X0156891Y0180084D01*
X0156897Y0180167D01*
X0156907Y0180250D01*
X0156921Y0180333D01*
X0156938Y0180415D01*
X0156960Y0180496D01*
X0156985Y0180575D01*
X0157014Y0180654D01*
X0157047Y0180731D01*
X0157083Y0180806D01*
X0157123Y0180880D01*
X0157166Y0180952D01*
X0157213Y0181021D01*
X0157263Y0181088D01*
X0157316Y0181153D01*
X0157372Y0181215D01*
X0157430Y0181275D01*
X0157492Y0181332D01*
X0157556Y0181385D01*
X0157623Y0181436D01*
X0157692Y0181483D01*
X0157763Y0181528D01*
X0157836Y0181568D01*
X0157911Y0181605D01*
X0157988Y0181639D01*
X0158066Y0181669D01*
X0158145Y0181695D01*
X0158226Y0181718D01*
X0158308Y0181736D01*
X0158390Y0181751D01*
X0158473Y0181762D01*
X0158556Y0181769D01*
X0158640Y0181772D01*
X0158724Y0181771D01*
X0158807Y0181766D01*
X0158891Y0181757D01*
X0158973Y0181744D01*
X0159055Y0181728D01*
X0159136Y0181707D01*
X0159217Y0181683D01*
X0159295Y0181655D01*
X0159373Y0181623D01*
X0159449Y0181587D01*
X0159523Y0181548D01*
X0159595Y0181506D01*
X0159665Y0181460D01*
X0159733Y0181411D01*
X0159798Y0181359D01*
X0159861Y0181304D01*
X0159921Y0181246D01*
X0159979Y0181185D01*
X0160033Y0181121D01*
X0160085Y0181055D01*
X0160133Y0180987D01*
X0160178Y0180916D01*
X0160219Y0180843D01*
X0160258Y0180769D01*
X0160292Y0180693D01*
X0160323Y0180615D01*
X0160350Y0180536D01*
X0160374Y0180455D01*
X0160393Y0180374D01*
X0160409Y0180292D01*
X0160421Y0180209D01*
X0160429Y0180125D01*
X0160433Y0180042D01*
X0160433Y0179958D01*
X0160429Y0179875D01*
X0160421Y0179791D01*
X0160409Y0179708D01*
X0160393Y0179626D01*
X0160374Y0179545D01*
X0160350Y0179464D01*
X0160323Y0179385D01*
X0160292Y0179307D01*
X0160258Y0179231D01*
X0160219Y0179157D01*
X0160178Y0179084D01*
X0160133Y0179013D01*
X0160085Y0178945D01*
X0160033Y0178879D01*
X0159979Y0178815D01*
X0159921Y0178754D01*
X0159861Y0178696D01*
X0159798Y0178641D01*
X0159733Y0178589D01*
X0159665Y0178540D01*
X0159595Y0178494D01*
X0159523Y0178452D01*
X0159449Y0178413D01*
X0159373Y0178377D01*
X0159295Y0178345D01*
X0159217Y0178317D01*
X0159136Y0178293D01*
X0159055Y0178272D01*
X0158973Y0178256D01*
X0158891Y0178243D01*
X0158807Y0178234D01*
X0158724Y0178229D01*
X0158640Y0178228D01*
X0158556Y0178231D01*
X0158473Y0178238D01*
X0158390Y0178249D01*
X0158308Y0178264D01*
X0158226Y0178282D01*
X0158145Y0178305D01*
X0158066Y0178331D01*
X0157988Y0178361D01*
X0157911Y0178395D01*
X0157836Y0178432D01*
X0157763Y0178472D01*
X0157692Y0178517D01*
X0157623Y0178564D01*
X0157556Y0178615D01*
X0157492Y0178668D01*
X0157430Y0178725D01*
X0157372Y0178785D01*
X0157316Y0178847D01*
X0157263Y0178912D01*
X0157213Y0178979D01*
X0157166Y0179048D01*
X0157123Y0179120D01*
X0157083Y0179194D01*
X0157047Y0179269D01*
X0157014Y0179346D01*
X0156985Y0179425D01*
X0156960Y0179504D01*
X0156938Y0179585D01*
X0156921Y0179667D01*
X0156907Y0179750D01*
X0156897Y0179833D01*
X0156891Y0179916D01*
X0156889Y0180000D01*
D14*
X0167520Y0170157D03*
X0167520Y0191811D03*
X0132480Y0191811D03*
X0132480Y0170157D03*
D15*
X0143701Y0167795D03*
X0146850Y0167795D03*
X0150000Y0167795D03*
X0153150Y0167795D03*
X0156299Y0167795D03*
D16*
X0123937Y0105000D03*
X0116063Y0105000D03*
X0116063Y0095000D03*
X0123937Y0095000D03*
X0123937Y0085000D03*
X0116063Y0085000D03*
X0116260Y0075000D03*
X0116260Y0067500D03*
X0123740Y0067500D03*
X0123740Y0075000D03*
X0123740Y0060000D03*
X0116260Y0060000D03*
X0053937Y0085000D03*
X0046063Y0085000D03*
X0046063Y0095000D03*
X0053937Y0095000D03*
X0053937Y0105000D03*
X0046063Y0105000D03*
X0043760Y0072500D03*
X0051240Y0072500D03*
X0051240Y0062500D03*
X0043760Y0062500D03*
D17*
X0136713Y0020000D03*
X0163287Y0020000D03*
D18*
X0142441Y0056220D03*
X0142441Y0066063D03*
X0142441Y0073937D03*
X0142441Y0083780D03*
D19*
X0122500Y0178760D03*
X0122500Y0186240D03*
X0060000Y0186240D03*
X0060000Y0178760D03*
D20*
X0045000Y0178366D03*
X0045000Y0186634D03*
X0107500Y0186634D03*
X0107500Y0178366D03*
M02*
