G75*
%MOIN*%
%OFA0B0*%
%FSLAX25Y25*%
%IPPOS*%
%LPD*%
%AMOC8*
5,1,8,0,0,1.08239X$1,22.5*
%
%ADD10C,0.01600*%
%ADD11C,0.07400*%
%ADD12C,0.12000*%
%ADD13C,0.07600*%
%ADD14R,0.25400X0.25400*%
%ADD15C,0.25400*%
%ADD16R,1.00000X0.20000*%
%ADD17C,0.07677*%
%ADD18C,0.05543*%
%ADD19C,0.05000*%
%ADD20OC8,0.03562*%
%ADD21OC8,0.09000*%
%ADD22R,0.03562X0.03562*%
%ADD23C,0.04000*%
%ADD24C,0.03000*%
D10*
X0033496Y0032614D02*
X0093508Y0032614D01*
X0093508Y0032634D02*
X0093508Y0031034D01*
X0042508Y0031034D01*
X0042508Y0024850D01*
X0035953Y0030078D01*
X0028215Y0038068D01*
X0021562Y0046981D01*
X0019406Y0050811D01*
X0020908Y0050189D01*
X0023092Y0050189D01*
X0023092Y0048004D01*
X0024021Y0045762D01*
X0025737Y0044046D01*
X0027979Y0043117D01*
X0030405Y0043117D01*
X0030879Y0043314D01*
X0030763Y0042579D01*
X0030763Y0041714D01*
X0030899Y0040858D01*
X0031166Y0040035D01*
X0031559Y0039264D01*
X0032068Y0038563D01*
X0032374Y0038257D01*
X0032680Y0037951D01*
X0033380Y0037442D01*
X0034152Y0037049D01*
X0034975Y0036782D01*
X0035830Y0036646D01*
X0036696Y0036646D01*
X0037551Y0036782D01*
X0038374Y0037049D01*
X0039146Y0037442D01*
X0039846Y0037951D01*
X0042508Y0040613D01*
X0042508Y0032634D01*
X0093508Y0032634D01*
X0093508Y0043634D01*
X0045529Y0043634D01*
X0045691Y0043796D01*
X0046200Y0044496D01*
X0046593Y0045268D01*
X0046860Y0046091D01*
X0046996Y0046946D01*
X0046996Y0047812D01*
X0046860Y0048667D01*
X0046593Y0049490D01*
X0046200Y0050262D01*
X0045691Y0050962D01*
X0045385Y0051268D01*
X0038880Y0044763D01*
X0038879Y0044763D01*
X0038879Y0044763D01*
X0032374Y0038257D01*
X0038879Y0044763D01*
X0045385Y0051268D01*
X0045079Y0051574D01*
X0044378Y0052083D01*
X0043607Y0052476D01*
X0042784Y0052744D01*
X0041929Y0052879D01*
X0041063Y0052879D01*
X0040328Y0052763D01*
X0040525Y0053237D01*
X0040525Y0053620D01*
X0046338Y0059434D01*
X0056121Y0059434D01*
X0057922Y0060180D01*
X0059300Y0061558D01*
X0059300Y0061558D01*
X0064300Y0066558D01*
X0067441Y0066558D01*
X0070529Y0067837D01*
X0072892Y0070200D01*
X0074170Y0073287D01*
X0074170Y0076428D01*
X0081646Y0083904D01*
X0081185Y0083041D01*
X0080639Y0081725D01*
X0080226Y0080361D01*
X0079948Y0078964D01*
X0079808Y0077546D01*
X0079808Y0077313D01*
X0093829Y0077313D01*
X0093829Y0076354D01*
X0094788Y0076354D01*
X0094788Y0062829D01*
X0094236Y0062277D01*
X0093638Y0062277D01*
X0091737Y0061490D01*
X0090730Y0060482D01*
X0089722Y0061490D01*
X0087821Y0062277D01*
X0085764Y0062277D01*
X0083897Y0061504D01*
X0083814Y0061706D01*
X0082059Y0063461D01*
X0079766Y0064411D01*
X0077284Y0064411D01*
X0074991Y0063461D01*
X0073236Y0061706D01*
X0072286Y0059413D01*
X0072286Y0049254D01*
X0073236Y0046961D01*
X0074991Y0045206D01*
X0077284Y0044257D01*
X0079766Y0044257D01*
X0082059Y0045206D01*
X0083814Y0046961D01*
X0083897Y0047164D01*
X0085764Y0046390D01*
X0087821Y0046390D01*
X0089722Y0047178D01*
X0090730Y0048185D01*
X0091737Y0047178D01*
X0093638Y0046390D01*
X0095695Y0046390D01*
X0097596Y0047178D01*
X0098604Y0048185D01*
X0099611Y0047178D01*
X0101512Y0046390D01*
X0103569Y0046390D01*
X0105436Y0047164D01*
X0105520Y0046961D01*
X0107274Y0045206D01*
X0109567Y0044257D01*
X0112049Y0044257D01*
X0114342Y0045206D01*
X0116097Y0046961D01*
X0117047Y0049254D01*
X0117047Y0059413D01*
X0116097Y0061706D01*
X0114342Y0063461D01*
X0112049Y0064411D01*
X0109567Y0064411D01*
X0109070Y0064205D01*
X0110594Y0065729D01*
X0111801Y0066229D01*
X0113676Y0068104D01*
X0114913Y0069341D01*
X0115511Y0070784D01*
X0115968Y0069682D01*
X0118331Y0067319D01*
X0121418Y0066041D01*
X0124760Y0066041D01*
X0127847Y0067319D01*
X0130210Y0069682D01*
X0131489Y0072770D01*
X0131489Y0076111D01*
X0130210Y0079199D01*
X0127989Y0081420D01*
X0127989Y0101085D01*
X0145672Y0118768D01*
X0146418Y0120569D01*
X0146418Y0137503D01*
X0148639Y0139724D01*
X0149918Y0142811D01*
X0149918Y0146153D01*
X0148639Y0149240D01*
X0146276Y0151603D01*
X0143189Y0152882D01*
X0142421Y0152882D01*
X0143008Y0154301D01*
X0143008Y0164367D01*
X0142071Y0166631D01*
X0148427Y0162197D01*
X0156661Y0154719D01*
X0163871Y0146250D01*
X0169939Y0136928D01*
X0174765Y0126907D01*
X0178270Y0116351D01*
X0180396Y0105434D01*
X0181108Y0094334D01*
X0180396Y0083234D01*
X0180396Y0083234D01*
X0178270Y0072317D01*
X0174765Y0061761D01*
X0171996Y0056011D01*
X0171996Y0056721D01*
X0171860Y0057576D01*
X0171593Y0058400D01*
X0171200Y0059171D01*
X0170691Y0059872D01*
X0167768Y0062794D01*
X0164846Y0065716D01*
X0164400Y0066041D01*
X0164760Y0066041D01*
X0167847Y0067319D01*
X0170210Y0069682D01*
X0171489Y0072770D01*
X0171489Y0076111D01*
X0170210Y0079199D01*
X0167847Y0081562D01*
X0164760Y0082841D01*
X0161418Y0082841D01*
X0159239Y0081938D01*
X0160680Y0083378D01*
X0161608Y0085620D01*
X0161608Y0088047D01*
X0160680Y0090289D01*
X0159135Y0091834D01*
X0160680Y0093378D01*
X0161608Y0095620D01*
X0161608Y0098047D01*
X0161123Y0099219D01*
X0163456Y0101551D01*
X0166276Y0102720D01*
X0168639Y0105083D01*
X0169918Y0108170D01*
X0169918Y0111512D01*
X0168639Y0114599D01*
X0166276Y0116962D01*
X0163189Y0118241D01*
X0159847Y0118241D01*
X0156760Y0116962D01*
X0154397Y0114599D01*
X0153118Y0111512D01*
X0153118Y0108170D01*
X0154025Y0105980D01*
X0150979Y0102934D01*
X0146895Y0102934D01*
X0144653Y0102005D01*
X0142937Y0100289D01*
X0142008Y0098047D01*
X0142008Y0095620D01*
X0142937Y0093378D01*
X0144482Y0091834D01*
X0142937Y0090289D01*
X0142008Y0088047D01*
X0142008Y0085620D01*
X0142937Y0083378D01*
X0144653Y0081662D01*
X0146895Y0080734D01*
X0146908Y0080734D01*
X0146908Y0071363D01*
X0142654Y0067109D01*
X0141908Y0065308D01*
X0141908Y0050735D01*
X0141021Y0048592D01*
X0141021Y0046166D01*
X0141950Y0043924D01*
X0142239Y0043634D01*
X0095108Y0043634D01*
X0095108Y0032634D01*
X0093508Y0032634D01*
X0093508Y0034213D02*
X0095108Y0034213D01*
X0095108Y0032634D02*
X0146108Y0032634D01*
X0146108Y0039765D01*
X0148898Y0036975D01*
X0151140Y0036046D01*
X0153567Y0036046D01*
X0155809Y0036975D01*
X0157525Y0038691D01*
X0158454Y0040933D01*
X0158454Y0043117D01*
X0160638Y0043117D01*
X0162880Y0044046D01*
X0164596Y0045762D01*
X0165525Y0048004D01*
X0165525Y0050431D01*
X0165328Y0050905D01*
X0166063Y0050789D01*
X0166929Y0050789D01*
X0167784Y0050924D01*
X0168607Y0051191D01*
X0169378Y0051585D01*
X0170079Y0052093D01*
X0170138Y0052152D01*
X0169939Y0051739D01*
X0163871Y0042418D01*
X0156661Y0033949D01*
X0148427Y0026471D01*
X0146108Y0024853D01*
X0146108Y0031034D01*
X0095108Y0031034D01*
X0095108Y0020034D01*
X0139164Y0020034D01*
X0129444Y0014963D01*
X0119005Y0011121D01*
X0108162Y0008646D01*
X0097090Y0007578D01*
X0085974Y0007935D01*
X0074994Y0009710D01*
X0064331Y0012875D01*
X0054160Y0017377D01*
X0049777Y0020034D01*
X0093508Y0020034D01*
X0093508Y0031034D01*
X0095108Y0031034D01*
X0095108Y0032634D01*
X0095108Y0032614D02*
X0155192Y0032614D01*
X0156886Y0034213D02*
X0146108Y0034213D01*
X0146108Y0035811D02*
X0158247Y0035811D01*
X0159608Y0037410D02*
X0156244Y0037410D01*
X0157656Y0039008D02*
X0160969Y0039008D01*
X0162329Y0040607D02*
X0158318Y0040607D01*
X0158454Y0042205D02*
X0163690Y0042205D01*
X0164773Y0043804D02*
X0162295Y0043804D01*
X0164236Y0045403D02*
X0165814Y0045403D01*
X0165109Y0047001D02*
X0166854Y0047001D01*
X0167895Y0048600D02*
X0165525Y0048600D01*
X0165525Y0050198D02*
X0168935Y0050198D01*
X0169670Y0051797D02*
X0169966Y0051797D01*
X0171996Y0056592D02*
X0172276Y0056592D01*
X0171661Y0058191D02*
X0173045Y0058191D01*
X0173815Y0059789D02*
X0170751Y0059789D01*
X0169175Y0061388D02*
X0174585Y0061388D01*
X0175172Y0062986D02*
X0167576Y0062986D01*
X0167768Y0062794D02*
X0163879Y0058905D01*
X0157374Y0065410D01*
X0157068Y0065104D01*
X0156559Y0064404D01*
X0156166Y0063632D01*
X0155899Y0062809D01*
X0155763Y0061954D01*
X0155763Y0061088D01*
X0155879Y0060354D01*
X0155405Y0060550D01*
X0152979Y0060550D01*
X0151708Y0060024D01*
X0151708Y0062304D01*
X0154584Y0065180D01*
X0155962Y0066558D01*
X0156708Y0068359D01*
X0156708Y0068942D01*
X0158331Y0067319D01*
X0159640Y0066777D01*
X0159152Y0066618D01*
X0158380Y0066225D01*
X0157680Y0065716D01*
X0157374Y0065410D01*
X0163879Y0058905D01*
X0163879Y0058905D01*
X0163880Y0058905D01*
X0167768Y0062794D01*
X0166362Y0061388D02*
X0166362Y0061388D01*
X0164764Y0059789D02*
X0164764Y0059789D01*
X0162995Y0059789D02*
X0162995Y0059789D01*
X0161397Y0061388D02*
X0161396Y0061388D01*
X0159798Y0062986D02*
X0159798Y0062986D01*
X0158200Y0064585D02*
X0158199Y0064585D01*
X0156691Y0064585D02*
X0153989Y0064585D01*
X0155587Y0066183D02*
X0158323Y0066183D01*
X0157868Y0067782D02*
X0156469Y0067782D01*
X0155956Y0062986D02*
X0152390Y0062986D01*
X0151708Y0061388D02*
X0155763Y0061388D01*
X0165104Y0066183D02*
X0176233Y0066183D01*
X0175702Y0064585D02*
X0165978Y0064585D01*
X0168309Y0067782D02*
X0176764Y0067782D01*
X0177295Y0069380D02*
X0169908Y0069380D01*
X0170747Y0070979D02*
X0177825Y0070979D01*
X0178320Y0072577D02*
X0171409Y0072577D01*
X0171489Y0074176D02*
X0178632Y0074176D01*
X0178943Y0075774D02*
X0171489Y0075774D01*
X0170966Y0077373D02*
X0179254Y0077373D01*
X0179566Y0078971D02*
X0170304Y0078971D01*
X0168839Y0080570D02*
X0179877Y0080570D01*
X0180188Y0082168D02*
X0166383Y0082168D01*
X0160841Y0083767D02*
X0180430Y0083767D01*
X0180533Y0085365D02*
X0161503Y0085365D01*
X0161608Y0086964D02*
X0180635Y0086964D01*
X0180738Y0088562D02*
X0161395Y0088562D01*
X0160733Y0090161D02*
X0180840Y0090161D01*
X0180943Y0091759D02*
X0159209Y0091759D01*
X0160659Y0093358D02*
X0181046Y0093358D01*
X0181068Y0094956D02*
X0161333Y0094956D01*
X0161608Y0096555D02*
X0180966Y0096555D01*
X0180863Y0098153D02*
X0161564Y0098153D01*
X0161656Y0099752D02*
X0180760Y0099752D01*
X0180658Y0101350D02*
X0163255Y0101350D01*
X0166505Y0102949D02*
X0180555Y0102949D01*
X0180453Y0104547D02*
X0168104Y0104547D01*
X0169080Y0106146D02*
X0180257Y0106146D01*
X0179946Y0107744D02*
X0169742Y0107744D01*
X0169918Y0109343D02*
X0179634Y0109343D01*
X0179323Y0110941D02*
X0169918Y0110941D01*
X0169492Y0112540D02*
X0179012Y0112540D01*
X0178700Y0114138D02*
X0168830Y0114138D01*
X0167501Y0115737D02*
X0178389Y0115737D01*
X0177943Y0117336D02*
X0165375Y0117336D01*
X0157661Y0117336D02*
X0144240Y0117336D01*
X0145741Y0118934D02*
X0177412Y0118934D01*
X0176881Y0120533D02*
X0146403Y0120533D01*
X0146418Y0122131D02*
X0176350Y0122131D01*
X0175820Y0123730D02*
X0146418Y0123730D01*
X0146418Y0125328D02*
X0175289Y0125328D01*
X0174755Y0126927D02*
X0146418Y0126927D01*
X0146418Y0128525D02*
X0173985Y0128525D01*
X0173216Y0130124D02*
X0146418Y0130124D01*
X0146418Y0131722D02*
X0172446Y0131722D01*
X0171676Y0133321D02*
X0146418Y0133321D01*
X0146418Y0134919D02*
X0170906Y0134919D01*
X0170136Y0136518D02*
X0146418Y0136518D01*
X0147032Y0138116D02*
X0169165Y0138116D01*
X0168125Y0139715D02*
X0148630Y0139715D01*
X0149298Y0141313D02*
X0167084Y0141313D01*
X0166044Y0142912D02*
X0149918Y0142912D01*
X0149918Y0144510D02*
X0165003Y0144510D01*
X0163963Y0146109D02*
X0149918Y0146109D01*
X0149274Y0147707D02*
X0162630Y0147707D01*
X0161269Y0149306D02*
X0148574Y0149306D01*
X0146975Y0150904D02*
X0159909Y0150904D01*
X0158548Y0152503D02*
X0144104Y0152503D01*
X0142926Y0154101D02*
X0157187Y0154101D01*
X0155581Y0155700D02*
X0143008Y0155700D01*
X0143008Y0157298D02*
X0153821Y0157298D01*
X0152061Y0158897D02*
X0143008Y0158897D01*
X0143008Y0160495D02*
X0150301Y0160495D01*
X0148541Y0162094D02*
X0143008Y0162094D01*
X0143008Y0163692D02*
X0146283Y0163692D01*
X0143992Y0165291D02*
X0142626Y0165291D01*
X0137822Y0169334D02*
X0135575Y0169334D01*
X0133296Y0168390D01*
X0131552Y0166646D01*
X0130608Y0164367D01*
X0130608Y0160063D01*
X0129033Y0158488D01*
X0129033Y0158488D01*
X0127654Y0157109D01*
X0127159Y0155913D01*
X0127084Y0155988D01*
X0125283Y0156734D01*
X0123334Y0156734D01*
X0123008Y0156599D01*
X0123008Y0164367D01*
X0122064Y0166646D01*
X0120320Y0168390D01*
X0118042Y0169334D01*
X0115575Y0169334D01*
X0113296Y0168390D01*
X0111552Y0166646D01*
X0110608Y0164367D01*
X0110608Y0154301D01*
X0111552Y0152022D01*
X0113296Y0150278D01*
X0115083Y0149538D01*
X0109408Y0143863D01*
X0109408Y0168751D01*
X0109043Y0169633D01*
X0108368Y0170309D01*
X0107486Y0170674D01*
X0081131Y0170674D01*
X0080249Y0170309D01*
X0079574Y0169633D01*
X0079208Y0168751D01*
X0079208Y0142397D01*
X0079574Y0141514D01*
X0080249Y0140839D01*
X0081131Y0140474D01*
X0092060Y0140474D01*
X0090283Y0139738D01*
X0088904Y0138359D01*
X0088158Y0136558D01*
X0088158Y0134609D01*
X0088904Y0132808D01*
X0090283Y0131430D01*
X0092084Y0130684D01*
X0109033Y0130684D01*
X0110834Y0131430D01*
X0126908Y0147504D01*
X0126908Y0143026D01*
X0067241Y0083358D01*
X0064100Y0083358D01*
X0061012Y0082079D01*
X0058649Y0079716D01*
X0057370Y0076629D01*
X0057370Y0073488D01*
X0053116Y0069234D01*
X0043334Y0069234D01*
X0041533Y0068488D01*
X0033595Y0060550D01*
X0033454Y0060550D01*
X0033454Y0062734D01*
X0032525Y0064976D01*
X0030809Y0066692D01*
X0029287Y0067323D01*
X0030529Y0067837D01*
X0032892Y0070200D01*
X0034170Y0073287D01*
X0034170Y0076629D01*
X0032892Y0079716D01*
X0031859Y0080748D01*
X0031895Y0080734D01*
X0035979Y0080734D01*
X0036533Y0080180D01*
X0038334Y0079434D01*
X0040283Y0079434D01*
X0042084Y0080180D01*
X0043286Y0081382D01*
X0043964Y0081662D01*
X0044235Y0081934D01*
X0050283Y0081934D01*
X0052084Y0082680D01*
X0074584Y0105180D01*
X0075962Y0106558D01*
X0076708Y0108359D01*
X0076708Y0151666D01*
X0077064Y0152022D01*
X0078008Y0154301D01*
X0078008Y0164367D01*
X0077064Y0166646D01*
X0075320Y0168390D01*
X0073042Y0169334D01*
X0070575Y0169334D01*
X0068296Y0168390D01*
X0066552Y0166646D01*
X0065608Y0164367D01*
X0065608Y0154301D01*
X0066552Y0152022D01*
X0066908Y0151666D01*
X0066908Y0111363D01*
X0047279Y0091734D01*
X0044235Y0091734D01*
X0044135Y0091834D01*
X0045680Y0093378D01*
X0046608Y0095620D01*
X0046608Y0098047D01*
X0045680Y0100289D01*
X0043964Y0102005D01*
X0041722Y0102934D01*
X0037638Y0102934D01*
X0034568Y0106004D01*
X0035637Y0108585D01*
X0035637Y0111927D01*
X0034358Y0115014D01*
X0031995Y0117377D01*
X0028908Y0118656D01*
X0025566Y0118656D01*
X0022479Y0117377D01*
X0020116Y0115014D01*
X0018837Y0111927D01*
X0018837Y0108585D01*
X0020116Y0105498D01*
X0022479Y0103135D01*
X0024354Y0102358D01*
X0027494Y0099219D01*
X0027008Y0098047D01*
X0027008Y0095620D01*
X0027937Y0093378D01*
X0029482Y0091834D01*
X0029382Y0091734D01*
X0015834Y0091734D01*
X0014033Y0090988D01*
X0012654Y0089609D01*
X0008158Y0085113D01*
X0007687Y0088772D01*
X0007687Y0099895D01*
X0009109Y0110926D01*
X0011930Y0121685D01*
X0016104Y0131995D01*
X0021562Y0141686D01*
X0028215Y0150600D01*
X0035953Y0158590D01*
X0044649Y0165525D01*
X0046636Y0166729D01*
X0046552Y0166646D01*
X0045608Y0164367D01*
X0045608Y0154301D01*
X0046024Y0153297D01*
X0045566Y0153297D01*
X0042479Y0152018D01*
X0040116Y0149655D01*
X0038837Y0146568D01*
X0038837Y0143226D01*
X0040116Y0140139D01*
X0042479Y0137776D01*
X0045566Y0136497D01*
X0048908Y0136497D01*
X0051995Y0137776D01*
X0054358Y0140139D01*
X0054408Y0140259D01*
X0054408Y0133359D01*
X0055154Y0131558D01*
X0056533Y0130180D01*
X0059033Y0127680D01*
X0060834Y0126934D01*
X0062783Y0126934D01*
X0064584Y0127680D01*
X0065962Y0129058D01*
X0066708Y0130859D01*
X0066708Y0132808D01*
X0065962Y0134609D01*
X0064208Y0136363D01*
X0064208Y0150308D01*
X0063462Y0152109D01*
X0058008Y0157563D01*
X0058008Y0164367D01*
X0057064Y0166646D01*
X0055320Y0168390D01*
X0053042Y0169334D01*
X0050932Y0169334D01*
X0054160Y0171291D01*
X0064331Y0175793D01*
X0074994Y0178958D01*
X0085974Y0180733D01*
X0097090Y0181089D01*
X0108162Y0180021D01*
X0119005Y0177546D01*
X0129444Y0173705D01*
X0137822Y0169334D01*
X0136379Y0170086D02*
X0108590Y0170086D01*
X0109408Y0168488D02*
X0113533Y0168488D01*
X0111796Y0166889D02*
X0109408Y0166889D01*
X0109408Y0165291D02*
X0110991Y0165291D01*
X0110608Y0163692D02*
X0109408Y0163692D01*
X0109408Y0162094D02*
X0110608Y0162094D01*
X0110608Y0160495D02*
X0109408Y0160495D01*
X0109408Y0158897D02*
X0110608Y0158897D01*
X0110608Y0157298D02*
X0109408Y0157298D01*
X0109408Y0155700D02*
X0110608Y0155700D01*
X0110691Y0154101D02*
X0109408Y0154101D01*
X0109408Y0152503D02*
X0111353Y0152503D01*
X0112670Y0150904D02*
X0109408Y0150904D01*
X0109408Y0149306D02*
X0114851Y0149306D01*
X0113252Y0147707D02*
X0109408Y0147707D01*
X0109408Y0146109D02*
X0111654Y0146109D01*
X0110055Y0144510D02*
X0109408Y0144510D01*
X0115922Y0136518D02*
X0120400Y0136518D01*
X0118802Y0134919D02*
X0114323Y0134919D01*
X0112725Y0133321D02*
X0117203Y0133321D01*
X0115605Y0131722D02*
X0111126Y0131722D01*
X0112408Y0128525D02*
X0076708Y0128525D01*
X0076708Y0126927D02*
X0110809Y0126927D01*
X0109211Y0125328D02*
X0076708Y0125328D01*
X0076708Y0123730D02*
X0107612Y0123730D01*
X0106014Y0122131D02*
X0076708Y0122131D01*
X0076708Y0120533D02*
X0104415Y0120533D01*
X0102817Y0118934D02*
X0076708Y0118934D01*
X0076708Y0117336D02*
X0101218Y0117336D01*
X0099620Y0115737D02*
X0076708Y0115737D01*
X0076708Y0114138D02*
X0098021Y0114138D01*
X0096423Y0112540D02*
X0076708Y0112540D01*
X0076708Y0110941D02*
X0094824Y0110941D01*
X0093226Y0109343D02*
X0076708Y0109343D01*
X0076454Y0107744D02*
X0091627Y0107744D01*
X0090029Y0106146D02*
X0075550Y0106146D01*
X0073952Y0104547D02*
X0088430Y0104547D01*
X0086832Y0102949D02*
X0072353Y0102949D01*
X0070755Y0101350D02*
X0085233Y0101350D01*
X0083635Y0099752D02*
X0069156Y0099752D01*
X0067558Y0098153D02*
X0082036Y0098153D01*
X0080438Y0096555D02*
X0065959Y0096555D01*
X0064361Y0094956D02*
X0078839Y0094956D01*
X0077241Y0093358D02*
X0062762Y0093358D01*
X0061164Y0091759D02*
X0075642Y0091759D01*
X0074044Y0090161D02*
X0059565Y0090161D01*
X0057967Y0088562D02*
X0072445Y0088562D01*
X0070847Y0086964D02*
X0056368Y0086964D01*
X0054769Y0085365D02*
X0069248Y0085365D01*
X0067649Y0083767D02*
X0053171Y0083767D01*
X0050849Y0082168D02*
X0061227Y0082168D01*
X0059503Y0080570D02*
X0042474Y0080570D01*
X0036143Y0080570D02*
X0032038Y0080570D01*
X0033200Y0078971D02*
X0058341Y0078971D01*
X0057679Y0077373D02*
X0033862Y0077373D01*
X0034170Y0075774D02*
X0057370Y0075774D01*
X0057370Y0074176D02*
X0034170Y0074176D01*
X0033876Y0072577D02*
X0056460Y0072577D01*
X0054861Y0070979D02*
X0033214Y0070979D01*
X0032072Y0069380D02*
X0053263Y0069380D01*
X0060728Y0062986D02*
X0074516Y0062986D01*
X0073104Y0061388D02*
X0059130Y0061388D01*
X0056979Y0059789D02*
X0072442Y0059789D01*
X0072286Y0058191D02*
X0045095Y0058191D01*
X0043496Y0056592D02*
X0072286Y0056592D01*
X0072286Y0054994D02*
X0041898Y0054994D01*
X0040525Y0053395D02*
X0072286Y0053395D01*
X0072286Y0051797D02*
X0044773Y0051797D01*
X0044315Y0050198D02*
X0044315Y0050198D01*
X0046232Y0050198D02*
X0072286Y0050198D01*
X0072557Y0048600D02*
X0046871Y0048600D01*
X0046996Y0047001D02*
X0073220Y0047001D01*
X0074795Y0045403D02*
X0046637Y0045403D01*
X0045697Y0043804D02*
X0142069Y0043804D01*
X0141337Y0045403D02*
X0114538Y0045403D01*
X0116114Y0047001D02*
X0141021Y0047001D01*
X0141024Y0048600D02*
X0116776Y0048600D01*
X0117047Y0050198D02*
X0141686Y0050198D01*
X0141908Y0051797D02*
X0117047Y0051797D01*
X0117047Y0053395D02*
X0141908Y0053395D01*
X0141908Y0054994D02*
X0117047Y0054994D01*
X0117047Y0056592D02*
X0141908Y0056592D01*
X0141908Y0058191D02*
X0117047Y0058191D01*
X0116891Y0059789D02*
X0141908Y0059789D01*
X0141908Y0061388D02*
X0116229Y0061388D01*
X0114817Y0062986D02*
X0141908Y0062986D01*
X0141908Y0064585D02*
X0109450Y0064585D01*
X0111691Y0066183D02*
X0121074Y0066183D01*
X0117868Y0067782D02*
X0113354Y0067782D01*
X0114930Y0069380D02*
X0116270Y0069380D01*
X0125104Y0066183D02*
X0142271Y0066183D01*
X0143327Y0067782D02*
X0128309Y0067782D01*
X0129908Y0069380D02*
X0144925Y0069380D01*
X0146524Y0070979D02*
X0130747Y0070979D01*
X0131409Y0072577D02*
X0146908Y0072577D01*
X0146908Y0074176D02*
X0131489Y0074176D01*
X0131489Y0075774D02*
X0146908Y0075774D01*
X0146908Y0077373D02*
X0130966Y0077373D01*
X0130304Y0078971D02*
X0146908Y0078971D01*
X0146908Y0080570D02*
X0128839Y0080570D01*
X0127989Y0082168D02*
X0144147Y0082168D01*
X0142776Y0083767D02*
X0127989Y0083767D01*
X0127989Y0085365D02*
X0142114Y0085365D01*
X0142008Y0086964D02*
X0127989Y0086964D01*
X0127989Y0088562D02*
X0142222Y0088562D01*
X0142884Y0090161D02*
X0127989Y0090161D01*
X0127989Y0091759D02*
X0144407Y0091759D01*
X0142958Y0093358D02*
X0127989Y0093358D01*
X0127989Y0094956D02*
X0142283Y0094956D01*
X0142008Y0096555D02*
X0127989Y0096555D01*
X0127989Y0098153D02*
X0142052Y0098153D01*
X0142714Y0099752D02*
X0127989Y0099752D01*
X0128255Y0101350D02*
X0143998Y0101350D01*
X0150994Y0102949D02*
X0129853Y0102949D01*
X0131452Y0104547D02*
X0152592Y0104547D01*
X0153957Y0106146D02*
X0133050Y0106146D01*
X0134649Y0107744D02*
X0153294Y0107744D01*
X0153118Y0109343D02*
X0136247Y0109343D01*
X0137846Y0110941D02*
X0153118Y0110941D01*
X0153544Y0112540D02*
X0139444Y0112540D01*
X0141043Y0114138D02*
X0154206Y0114138D01*
X0155535Y0115737D02*
X0142641Y0115737D01*
X0121999Y0138116D02*
X0117520Y0138116D01*
X0119119Y0139715D02*
X0123597Y0139715D01*
X0125196Y0141313D02*
X0120717Y0141313D01*
X0122316Y0142912D02*
X0126794Y0142912D01*
X0126908Y0144510D02*
X0123914Y0144510D01*
X0125513Y0146109D02*
X0126908Y0146109D01*
X0127843Y0157298D02*
X0123008Y0157298D01*
X0123008Y0158897D02*
X0129442Y0158897D01*
X0130608Y0160495D02*
X0123008Y0160495D01*
X0123008Y0162094D02*
X0130608Y0162094D01*
X0130608Y0163692D02*
X0123008Y0163692D01*
X0122626Y0165291D02*
X0130991Y0165291D01*
X0131796Y0166889D02*
X0121821Y0166889D01*
X0120084Y0168488D02*
X0133533Y0168488D01*
X0133315Y0171685D02*
X0055051Y0171685D01*
X0055084Y0168488D02*
X0068533Y0168488D01*
X0066796Y0166889D02*
X0056821Y0166889D01*
X0057626Y0165291D02*
X0065991Y0165291D01*
X0065608Y0163692D02*
X0058008Y0163692D01*
X0058008Y0162094D02*
X0065608Y0162094D01*
X0065608Y0160495D02*
X0058008Y0160495D01*
X0058008Y0158897D02*
X0065608Y0158897D01*
X0065608Y0157298D02*
X0058273Y0157298D01*
X0059872Y0155700D02*
X0065608Y0155700D01*
X0065691Y0154101D02*
X0061470Y0154101D01*
X0063069Y0152503D02*
X0066353Y0152503D01*
X0066908Y0150904D02*
X0063962Y0150904D01*
X0064208Y0149306D02*
X0066908Y0149306D01*
X0066908Y0147707D02*
X0064208Y0147707D01*
X0064208Y0146109D02*
X0066908Y0146109D01*
X0066908Y0144510D02*
X0064208Y0144510D01*
X0064208Y0142912D02*
X0066908Y0142912D01*
X0066908Y0141313D02*
X0064208Y0141313D01*
X0064208Y0139715D02*
X0066908Y0139715D01*
X0066908Y0138116D02*
X0064208Y0138116D01*
X0064208Y0136518D02*
X0066908Y0136518D01*
X0066908Y0134919D02*
X0065653Y0134919D01*
X0066496Y0133321D02*
X0066908Y0133321D01*
X0066908Y0131722D02*
X0066708Y0131722D01*
X0066908Y0130124D02*
X0066404Y0130124D01*
X0066908Y0128525D02*
X0065429Y0128525D01*
X0066908Y0126927D02*
X0014052Y0126927D01*
X0014699Y0128525D02*
X0058187Y0128525D01*
X0056589Y0130124D02*
X0015347Y0130124D01*
X0015994Y0131722D02*
X0055086Y0131722D01*
X0054424Y0133321D02*
X0016851Y0133321D01*
X0017751Y0134919D02*
X0054408Y0134919D01*
X0054408Y0136518D02*
X0048958Y0136518D01*
X0045517Y0136518D02*
X0018651Y0136518D01*
X0019552Y0138116D02*
X0042139Y0138116D01*
X0040540Y0139715D02*
X0020452Y0139715D01*
X0021352Y0141313D02*
X0039630Y0141313D01*
X0038968Y0142912D02*
X0022477Y0142912D01*
X0023670Y0144510D02*
X0038837Y0144510D01*
X0038837Y0146109D02*
X0024863Y0146109D01*
X0026056Y0147707D02*
X0039309Y0147707D01*
X0039971Y0149306D02*
X0027249Y0149306D01*
X0028509Y0150904D02*
X0041365Y0150904D01*
X0043649Y0152503D02*
X0030058Y0152503D01*
X0031606Y0154101D02*
X0045691Y0154101D01*
X0045608Y0155700D02*
X0033154Y0155700D01*
X0034702Y0157298D02*
X0045608Y0157298D01*
X0045608Y0158897D02*
X0036337Y0158897D01*
X0038342Y0160495D02*
X0045608Y0160495D01*
X0045608Y0162094D02*
X0040346Y0162094D01*
X0042351Y0163692D02*
X0045608Y0163692D01*
X0045991Y0165291D02*
X0044355Y0165291D01*
X0052174Y0170086D02*
X0080027Y0170086D01*
X0079208Y0168488D02*
X0075084Y0168488D01*
X0076821Y0166889D02*
X0079208Y0166889D01*
X0079208Y0165291D02*
X0077626Y0165291D01*
X0078008Y0163692D02*
X0079208Y0163692D01*
X0079208Y0162094D02*
X0078008Y0162094D01*
X0078008Y0160495D02*
X0079208Y0160495D01*
X0079208Y0158897D02*
X0078008Y0158897D01*
X0078008Y0157298D02*
X0079208Y0157298D01*
X0079208Y0155700D02*
X0078008Y0155700D01*
X0077926Y0154101D02*
X0079208Y0154101D01*
X0079208Y0152503D02*
X0077264Y0152503D01*
X0076708Y0150904D02*
X0079208Y0150904D01*
X0079208Y0149306D02*
X0076708Y0149306D01*
X0076708Y0147707D02*
X0079208Y0147707D01*
X0079208Y0146109D02*
X0076708Y0146109D01*
X0076708Y0144510D02*
X0079208Y0144510D01*
X0079208Y0142912D02*
X0076708Y0142912D01*
X0076708Y0141313D02*
X0079775Y0141313D01*
X0076708Y0139715D02*
X0090260Y0139715D01*
X0088804Y0138116D02*
X0076708Y0138116D01*
X0076708Y0136518D02*
X0088158Y0136518D01*
X0088158Y0134919D02*
X0076708Y0134919D01*
X0076708Y0133321D02*
X0088692Y0133321D01*
X0089990Y0131722D02*
X0076708Y0131722D01*
X0076708Y0130124D02*
X0114006Y0130124D01*
X0118033Y0120291D02*
X0118033Y0118031D01*
X0107453Y0107451D01*
X0106783Y0105834D01*
X0106783Y0084254D01*
X0106760Y0084297D01*
X0105969Y0085482D01*
X0105065Y0086583D01*
X0104058Y0087591D01*
X0102956Y0088494D01*
X0101772Y0089286D01*
X0100515Y0089957D01*
X0099199Y0090503D01*
X0097836Y0090916D01*
X0096438Y0091194D01*
X0095021Y0091334D01*
X0094788Y0091334D01*
X0094788Y0077313D01*
X0093829Y0077313D01*
X0093829Y0091334D01*
X0093596Y0091334D01*
X0092178Y0091194D01*
X0090781Y0090916D01*
X0089418Y0090503D01*
X0088101Y0089957D01*
X0087238Y0089496D01*
X0118033Y0120291D01*
X0118033Y0118934D02*
X0116676Y0118934D01*
X0117338Y0117336D02*
X0115077Y0117336D01*
X0115739Y0115737D02*
X0113479Y0115737D01*
X0114141Y0114138D02*
X0111880Y0114138D01*
X0112542Y0112540D02*
X0110282Y0112540D01*
X0110943Y0110941D02*
X0108683Y0110941D01*
X0109345Y0109343D02*
X0107085Y0109343D01*
X0107746Y0107744D02*
X0105486Y0107744D01*
X0106913Y0106146D02*
X0103888Y0106146D01*
X0102289Y0104547D02*
X0106783Y0104547D01*
X0106783Y0102949D02*
X0100691Y0102949D01*
X0099092Y0101350D02*
X0106783Y0101350D01*
X0106783Y0099752D02*
X0097494Y0099752D01*
X0095895Y0098153D02*
X0106783Y0098153D01*
X0106783Y0096555D02*
X0094297Y0096555D01*
X0004308Y0094334D02*
X0004335Y0096543D01*
X0004416Y0098750D01*
X0004552Y0100955D01*
X0004741Y0103156D01*
X0004985Y0105351D01*
X0005282Y0107540D01*
X0005633Y0109721D01*
X0006037Y0111892D01*
X0006495Y0114053D01*
X0007005Y0116202D01*
X0007568Y0118338D01*
X0008183Y0120460D01*
X0008850Y0122565D01*
X0009569Y0124654D01*
X0010339Y0126725D01*
X0011159Y0128776D01*
X0012029Y0130806D01*
X0012949Y0132814D01*
X0013918Y0134799D01*
X0014935Y0136760D01*
X0016000Y0138695D01*
X0017112Y0140603D01*
X0018271Y0142484D01*
X0019476Y0144335D01*
X0020725Y0146157D01*
X0022019Y0147947D01*
X0023357Y0149705D01*
X0024737Y0151429D01*
X0026159Y0153120D01*
X0027622Y0154774D01*
X0029126Y0156393D01*
X0030668Y0157974D01*
X0032249Y0159516D01*
X0033868Y0161020D01*
X0035522Y0162483D01*
X0037213Y0163905D01*
X0038937Y0165285D01*
X0040695Y0166623D01*
X0042485Y0167917D01*
X0044307Y0169166D01*
X0046158Y0170371D01*
X0048039Y0171530D01*
X0049947Y0172642D01*
X0051882Y0173707D01*
X0053843Y0174724D01*
X0055828Y0175693D01*
X0057836Y0176613D01*
X0059866Y0177483D01*
X0061917Y0178303D01*
X0063988Y0179073D01*
X0066077Y0179792D01*
X0068182Y0180459D01*
X0070304Y0181074D01*
X0072440Y0181637D01*
X0074589Y0182147D01*
X0076750Y0182605D01*
X0078921Y0183009D01*
X0081102Y0183360D01*
X0083291Y0183657D01*
X0085486Y0183901D01*
X0087687Y0184090D01*
X0089892Y0184226D01*
X0092099Y0184307D01*
X0094308Y0184334D01*
X0096517Y0184307D01*
X0098724Y0184226D01*
X0100929Y0184090D01*
X0103130Y0183901D01*
X0105325Y0183657D01*
X0107514Y0183360D01*
X0109695Y0183009D01*
X0111866Y0182605D01*
X0114027Y0182147D01*
X0116176Y0181637D01*
X0118312Y0181074D01*
X0120434Y0180459D01*
X0122539Y0179792D01*
X0124628Y0179073D01*
X0126699Y0178303D01*
X0128750Y0177483D01*
X0130780Y0176613D01*
X0132788Y0175693D01*
X0134773Y0174724D01*
X0136734Y0173707D01*
X0138669Y0172642D01*
X0140577Y0171530D01*
X0142458Y0170371D01*
X0144309Y0169166D01*
X0146131Y0167917D01*
X0147921Y0166623D01*
X0149679Y0165285D01*
X0151403Y0163905D01*
X0153094Y0162483D01*
X0154748Y0161020D01*
X0156367Y0159516D01*
X0157948Y0157974D01*
X0159490Y0156393D01*
X0160994Y0154774D01*
X0162457Y0153120D01*
X0163879Y0151429D01*
X0165259Y0149705D01*
X0166597Y0147947D01*
X0167891Y0146157D01*
X0169140Y0144335D01*
X0170345Y0142484D01*
X0171504Y0140603D01*
X0172616Y0138695D01*
X0173681Y0136760D01*
X0174698Y0134799D01*
X0175667Y0132814D01*
X0176587Y0130806D01*
X0177457Y0128776D01*
X0178277Y0126725D01*
X0179047Y0124654D01*
X0179766Y0122565D01*
X0180433Y0120460D01*
X0181048Y0118338D01*
X0181611Y0116202D01*
X0182121Y0114053D01*
X0182579Y0111892D01*
X0182983Y0109721D01*
X0183334Y0107540D01*
X0183631Y0105351D01*
X0183875Y0103156D01*
X0184064Y0100955D01*
X0184200Y0098750D01*
X0184281Y0096543D01*
X0184308Y0094334D01*
X0184281Y0092125D01*
X0184200Y0089918D01*
X0184064Y0087713D01*
X0183875Y0085512D01*
X0183631Y0083317D01*
X0183334Y0081128D01*
X0182983Y0078947D01*
X0182579Y0076776D01*
X0182121Y0074615D01*
X0181611Y0072466D01*
X0181048Y0070330D01*
X0180433Y0068208D01*
X0179766Y0066103D01*
X0179047Y0064014D01*
X0178277Y0061943D01*
X0177457Y0059892D01*
X0176587Y0057862D01*
X0175667Y0055854D01*
X0174698Y0053869D01*
X0173681Y0051908D01*
X0172616Y0049973D01*
X0171504Y0048065D01*
X0170345Y0046184D01*
X0169140Y0044333D01*
X0167891Y0042511D01*
X0166597Y0040721D01*
X0165259Y0038963D01*
X0163879Y0037239D01*
X0162457Y0035548D01*
X0160994Y0033894D01*
X0159490Y0032275D01*
X0157948Y0030694D01*
X0156367Y0029152D01*
X0154748Y0027648D01*
X0153094Y0026185D01*
X0151403Y0024763D01*
X0149679Y0023383D01*
X0147921Y0022045D01*
X0146131Y0020751D01*
X0144309Y0019502D01*
X0142458Y0018297D01*
X0140577Y0017138D01*
X0138669Y0016026D01*
X0136734Y0014961D01*
X0134773Y0013944D01*
X0132788Y0012975D01*
X0130780Y0012055D01*
X0128750Y0011185D01*
X0126699Y0010365D01*
X0124628Y0009595D01*
X0122539Y0008876D01*
X0120434Y0008209D01*
X0118312Y0007594D01*
X0116176Y0007031D01*
X0114027Y0006521D01*
X0111866Y0006063D01*
X0109695Y0005659D01*
X0107514Y0005308D01*
X0105325Y0005011D01*
X0103130Y0004767D01*
X0100929Y0004578D01*
X0098724Y0004442D01*
X0096517Y0004361D01*
X0094308Y0004334D01*
X0092099Y0004361D01*
X0089892Y0004442D01*
X0087687Y0004578D01*
X0085486Y0004767D01*
X0083291Y0005011D01*
X0081102Y0005308D01*
X0078921Y0005659D01*
X0076750Y0006063D01*
X0074589Y0006521D01*
X0072440Y0007031D01*
X0070304Y0007594D01*
X0068182Y0008209D01*
X0066077Y0008876D01*
X0063988Y0009595D01*
X0061917Y0010365D01*
X0059866Y0011185D01*
X0057836Y0012055D01*
X0055828Y0012975D01*
X0053843Y0013944D01*
X0051882Y0014961D01*
X0049947Y0016026D01*
X0048039Y0017138D01*
X0046158Y0018297D01*
X0044307Y0019502D01*
X0042485Y0020751D01*
X0040695Y0022045D01*
X0038937Y0023383D01*
X0037213Y0024763D01*
X0035522Y0026185D01*
X0033868Y0027648D01*
X0032249Y0029152D01*
X0030668Y0030694D01*
X0029126Y0032275D01*
X0027622Y0033894D01*
X0026159Y0035548D01*
X0024737Y0037239D01*
X0023357Y0038963D01*
X0022019Y0040721D01*
X0020725Y0042511D01*
X0019476Y0044333D01*
X0018271Y0046184D01*
X0017112Y0048065D01*
X0016000Y0049973D01*
X0014935Y0051908D01*
X0013918Y0053869D01*
X0012949Y0055854D01*
X0012029Y0057862D01*
X0011159Y0059892D01*
X0010339Y0061943D01*
X0009569Y0064014D01*
X0008850Y0066103D01*
X0008183Y0068208D01*
X0007568Y0070330D01*
X0007005Y0072466D01*
X0006495Y0074615D01*
X0006037Y0076776D01*
X0005633Y0078947D01*
X0005282Y0081128D01*
X0004985Y0083317D01*
X0004741Y0085512D01*
X0004552Y0087713D01*
X0004416Y0089918D01*
X0004335Y0092125D01*
X0004308Y0094334D01*
X0007687Y0094956D02*
X0027283Y0094956D01*
X0027008Y0096555D02*
X0007687Y0096555D01*
X0007687Y0098153D02*
X0027052Y0098153D01*
X0026961Y0099752D02*
X0007687Y0099752D01*
X0007874Y0101350D02*
X0025362Y0101350D01*
X0022928Y0102949D02*
X0008080Y0102949D01*
X0008287Y0104547D02*
X0021067Y0104547D01*
X0019848Y0106146D02*
X0008493Y0106146D01*
X0008699Y0107744D02*
X0019186Y0107744D01*
X0018837Y0109343D02*
X0008905Y0109343D01*
X0009113Y0110941D02*
X0018837Y0110941D01*
X0019091Y0112540D02*
X0009532Y0112540D01*
X0009951Y0114138D02*
X0019753Y0114138D01*
X0020839Y0115737D02*
X0010370Y0115737D01*
X0010790Y0117336D02*
X0022437Y0117336D01*
X0013405Y0125328D02*
X0066908Y0125328D01*
X0066908Y0123730D02*
X0012758Y0123730D01*
X0012111Y0122131D02*
X0066908Y0122131D01*
X0066908Y0120533D02*
X0011628Y0120533D01*
X0011209Y0118934D02*
X0066908Y0118934D01*
X0066908Y0117336D02*
X0032037Y0117336D01*
X0033636Y0115737D02*
X0066908Y0115737D01*
X0066908Y0114138D02*
X0034721Y0114138D01*
X0035383Y0112540D02*
X0066908Y0112540D01*
X0066486Y0110941D02*
X0035637Y0110941D01*
X0035637Y0109343D02*
X0064888Y0109343D01*
X0063289Y0107744D02*
X0035289Y0107744D01*
X0034627Y0106146D02*
X0061691Y0106146D01*
X0060092Y0104547D02*
X0036024Y0104547D01*
X0037623Y0102949D02*
X0058494Y0102949D01*
X0056895Y0101350D02*
X0044618Y0101350D01*
X0045902Y0099752D02*
X0055297Y0099752D01*
X0053698Y0098153D02*
X0046564Y0098153D01*
X0046608Y0096555D02*
X0052100Y0096555D01*
X0050501Y0094956D02*
X0046333Y0094956D01*
X0045659Y0093358D02*
X0048903Y0093358D01*
X0047304Y0091759D02*
X0044209Y0091759D01*
X0029407Y0091759D02*
X0007687Y0091759D01*
X0007687Y0090161D02*
X0013206Y0090161D01*
X0011607Y0088562D02*
X0007714Y0088562D01*
X0007920Y0086964D02*
X0010009Y0086964D01*
X0008410Y0085365D02*
X0008126Y0085365D01*
X0007687Y0093358D02*
X0027958Y0093358D01*
X0030395Y0067782D02*
X0040827Y0067782D01*
X0039228Y0066183D02*
X0031318Y0066183D01*
X0032687Y0064585D02*
X0037630Y0064585D01*
X0036031Y0062986D02*
X0033349Y0062986D01*
X0033454Y0061388D02*
X0034433Y0061388D01*
X0042716Y0048600D02*
X0042716Y0048600D01*
X0041118Y0047001D02*
X0041118Y0047001D01*
X0039519Y0045403D02*
X0039519Y0045403D01*
X0037921Y0043804D02*
X0037921Y0043804D01*
X0036322Y0042205D02*
X0036322Y0042205D01*
X0034724Y0040607D02*
X0034724Y0040607D01*
X0033125Y0039008D02*
X0033125Y0039008D01*
X0031745Y0039008D02*
X0027513Y0039008D01*
X0026320Y0040607D02*
X0030980Y0040607D01*
X0030763Y0042205D02*
X0025127Y0042205D01*
X0023934Y0043804D02*
X0026321Y0043804D01*
X0024380Y0045403D02*
X0022741Y0045403D01*
X0023508Y0047001D02*
X0021551Y0047001D01*
X0020651Y0048600D02*
X0023092Y0048600D01*
X0020885Y0050198D02*
X0019751Y0050198D01*
X0028852Y0037410D02*
X0033444Y0037410D01*
X0030400Y0035811D02*
X0042508Y0035811D01*
X0042508Y0034213D02*
X0031948Y0034213D01*
X0035044Y0031016D02*
X0042508Y0031016D01*
X0042508Y0029417D02*
X0036781Y0029417D01*
X0038785Y0027819D02*
X0042508Y0027819D01*
X0042508Y0026220D02*
X0040789Y0026220D01*
X0050119Y0019826D02*
X0138766Y0019826D01*
X0135702Y0018228D02*
X0052756Y0018228D01*
X0055849Y0016629D02*
X0132638Y0016629D01*
X0129574Y0015031D02*
X0059460Y0015031D01*
X0063071Y0013432D02*
X0125285Y0013432D01*
X0120941Y0011834D02*
X0067838Y0011834D01*
X0073224Y0010235D02*
X0115123Y0010235D01*
X0108062Y0008637D02*
X0081632Y0008637D01*
X0093508Y0021425D02*
X0095108Y0021425D01*
X0095108Y0023023D02*
X0093508Y0023023D01*
X0093508Y0024622D02*
X0095108Y0024622D01*
X0095108Y0026220D02*
X0093508Y0026220D01*
X0093508Y0027819D02*
X0095108Y0027819D01*
X0095108Y0029417D02*
X0093508Y0029417D01*
X0093508Y0031016D02*
X0095108Y0031016D01*
X0095108Y0035811D02*
X0093508Y0035811D01*
X0093508Y0037410D02*
X0095108Y0037410D01*
X0095108Y0039008D02*
X0093508Y0039008D01*
X0093508Y0040607D02*
X0095108Y0040607D01*
X0095108Y0042205D02*
X0093508Y0042205D01*
X0092164Y0047001D02*
X0089295Y0047001D01*
X0084290Y0047001D02*
X0083830Y0047001D01*
X0082255Y0045403D02*
X0107078Y0045403D01*
X0105503Y0047001D02*
X0105043Y0047001D01*
X0100038Y0047001D02*
X0097169Y0047001D01*
X0091635Y0061388D02*
X0089824Y0061388D01*
X0090007Y0062986D02*
X0082534Y0062986D01*
X0084559Y0066077D02*
X0085660Y0065173D01*
X0086845Y0064382D01*
X0088101Y0063710D01*
X0089418Y0063165D01*
X0090781Y0062751D01*
X0092178Y0062473D01*
X0093596Y0062334D01*
X0093829Y0062334D01*
X0093829Y0076354D01*
X0079808Y0076354D01*
X0079808Y0076121D01*
X0079948Y0074704D01*
X0080226Y0073306D01*
X0080639Y0071943D01*
X0081185Y0070627D01*
X0081856Y0069370D01*
X0082648Y0068186D01*
X0083552Y0067084D01*
X0084559Y0066077D01*
X0084453Y0066183D02*
X0063925Y0066183D01*
X0062327Y0064585D02*
X0086541Y0064585D01*
X0082979Y0067782D02*
X0070395Y0067782D01*
X0072072Y0069380D02*
X0081851Y0069380D01*
X0081039Y0070979D02*
X0073214Y0070979D01*
X0073876Y0072577D02*
X0080447Y0072577D01*
X0080053Y0074176D02*
X0074170Y0074176D01*
X0074170Y0075774D02*
X0079843Y0075774D01*
X0079808Y0077373D02*
X0075115Y0077373D01*
X0076713Y0078971D02*
X0079949Y0078971D01*
X0080289Y0080570D02*
X0078312Y0080570D01*
X0079910Y0082168D02*
X0080823Y0082168D01*
X0081509Y0083767D02*
X0081573Y0083767D01*
X0087903Y0090161D02*
X0088592Y0090161D01*
X0089501Y0091759D02*
X0106783Y0091759D01*
X0106783Y0090161D02*
X0100024Y0090161D01*
X0102855Y0088562D02*
X0106783Y0088562D01*
X0106783Y0086964D02*
X0104684Y0086964D01*
X0106047Y0085365D02*
X0106783Y0085365D01*
X0106783Y0093358D02*
X0091100Y0093358D01*
X0092698Y0094956D02*
X0106783Y0094956D01*
X0094788Y0090161D02*
X0093829Y0090161D01*
X0093829Y0088562D02*
X0094788Y0088562D01*
X0094788Y0086964D02*
X0093829Y0086964D01*
X0093829Y0085365D02*
X0094788Y0085365D01*
X0094788Y0083767D02*
X0093829Y0083767D01*
X0093829Y0082168D02*
X0094788Y0082168D01*
X0094788Y0080570D02*
X0093829Y0080570D01*
X0093829Y0078971D02*
X0094788Y0078971D01*
X0094788Y0077373D02*
X0093829Y0077373D01*
X0093829Y0075774D02*
X0094788Y0075774D01*
X0094788Y0074176D02*
X0093829Y0074176D01*
X0093829Y0072577D02*
X0094788Y0072577D01*
X0094788Y0070979D02*
X0093829Y0070979D01*
X0093829Y0069380D02*
X0094788Y0069380D01*
X0094788Y0067782D02*
X0093829Y0067782D01*
X0093829Y0066183D02*
X0094788Y0066183D01*
X0094788Y0064585D02*
X0093829Y0064585D01*
X0093829Y0062986D02*
X0094788Y0062986D01*
X0146108Y0039008D02*
X0146865Y0039008D01*
X0146108Y0037410D02*
X0148463Y0037410D01*
X0146108Y0031016D02*
X0153432Y0031016D01*
X0151672Y0029417D02*
X0146108Y0029417D01*
X0146108Y0027819D02*
X0149912Y0027819D01*
X0148068Y0026220D02*
X0146108Y0026220D01*
X0159470Y0082168D02*
X0159795Y0082168D01*
X0130251Y0173283D02*
X0058662Y0173283D01*
X0062273Y0174882D02*
X0126245Y0174882D01*
X0121901Y0176480D02*
X0066647Y0176480D01*
X0072033Y0178079D02*
X0116671Y0178079D01*
X0109667Y0179677D02*
X0079447Y0179677D01*
X0054408Y0139715D02*
X0053934Y0139715D01*
X0054408Y0138116D02*
X0052336Y0138116D01*
X0042502Y0040607D02*
X0042508Y0040607D01*
X0042508Y0039008D02*
X0040903Y0039008D01*
X0042508Y0037410D02*
X0039082Y0037410D01*
D11*
X0036263Y0042146D02*
X0041496Y0047379D01*
X0034425Y0054450D02*
X0029192Y0049217D01*
X0022121Y0056289D02*
X0027354Y0061521D01*
X0033108Y0086834D02*
X0040508Y0086834D01*
X0040508Y0096834D02*
X0033108Y0096834D01*
X0148108Y0096834D02*
X0155508Y0096834D01*
X0155508Y0086834D02*
X0148108Y0086834D01*
X0161263Y0061521D02*
X0166496Y0056289D01*
X0159425Y0049217D02*
X0154192Y0054450D01*
X0147121Y0047379D02*
X0152354Y0042146D01*
D12*
X0163089Y0074441D03*
X0161518Y0109841D03*
X0141518Y0144482D03*
X0123089Y0074441D03*
X0065770Y0074958D03*
X0027237Y0110256D03*
X0047237Y0144897D03*
X0025770Y0074958D03*
D13*
X0051808Y0155534D02*
X0051808Y0163134D01*
X0071808Y0163134D02*
X0071808Y0155534D01*
X0116808Y0155534D02*
X0116808Y0163134D01*
X0136808Y0163134D02*
X0136808Y0155534D01*
D14*
X0094308Y0155574D03*
D15*
X0094308Y0076834D03*
D16*
X0094308Y0031834D03*
D17*
X0078525Y0050495D02*
X0078525Y0058172D01*
X0110808Y0058172D02*
X0110808Y0050495D01*
D18*
X0102541Y0051562D02*
X0102541Y0057105D01*
X0094667Y0057105D02*
X0094667Y0051562D01*
X0086793Y0051562D02*
X0086793Y0057105D01*
D19*
X0065770Y0074958D02*
X0055146Y0064334D01*
X0044308Y0064334D01*
X0031808Y0051834D01*
X0024737Y0058905D02*
X0011808Y0071834D01*
X0011808Y0081834D01*
X0016808Y0086834D01*
X0036808Y0086834D01*
X0049308Y0086834D01*
X0071808Y0109334D01*
X0071808Y0159334D01*
X0059308Y0149334D02*
X0051808Y0156834D01*
X0051808Y0159334D01*
X0059308Y0149334D02*
X0059308Y0134334D01*
X0061808Y0131834D01*
X0093058Y0135584D02*
X0108058Y0135584D01*
X0124308Y0151834D01*
X0131808Y0154334D02*
X0136808Y0159334D01*
X0131808Y0154334D02*
X0131808Y0140996D01*
X0065770Y0074958D01*
X0039308Y0084334D02*
X0036808Y0086834D01*
X0036808Y0096834D02*
X0027237Y0106405D01*
X0027237Y0110256D01*
X0123089Y0103114D02*
X0123089Y0074441D01*
X0146808Y0064334D02*
X0151808Y0069334D01*
X0151808Y0086834D01*
X0151808Y0096834D02*
X0161518Y0106544D01*
X0161518Y0109841D01*
X0141518Y0121544D02*
X0123089Y0103114D01*
X0141518Y0121544D02*
X0141518Y0144482D01*
X0146808Y0064334D02*
X0146808Y0047692D01*
X0149737Y0044763D01*
D20*
X0136808Y0059334D03*
X0131808Y0061834D03*
X0126808Y0061834D03*
X0121808Y0059334D03*
X0174308Y0113084D03*
X0124308Y0151834D03*
X0106808Y0125584D03*
X0093058Y0135584D03*
X0122433Y0122459D03*
X0094308Y0175584D03*
X0061808Y0131834D03*
X0051808Y0128084D03*
X0015558Y0128084D03*
D21*
X0121808Y0049334D03*
X0136808Y0049334D03*
D22*
X0129308Y0054334D03*
D23*
X0111183Y0071834D02*
X0111183Y0104959D01*
X0122433Y0116209D01*
X0122433Y0122459D01*
X0111183Y0071834D02*
X0109308Y0069959D01*
X0094667Y0057192D02*
X0094667Y0054334D01*
D24*
X0094667Y0057192D02*
X0099933Y0062459D01*
X0101808Y0062459D01*
X0109308Y0069959D01*
M02*
