%
M48
M72
T01C0.02362
T02C0.03200
T03C0.03543
T04C0.05118
T05C0.06496
%
T01
X15558Y128084
X51808Y128084
X61808Y131834
X93058Y135584
X121808Y121834
X94308Y175584
X124308Y151834
X174308Y113084
X131808Y61834
X126808Y61834
X121808Y59334
X129308Y54334
X121808Y49334
X136808Y49334
X136808Y59334
T02
X38879Y44763
X31808Y51834
X24737Y58905
X36808Y86834
X36808Y96834
X51808Y159334
X71808Y159334
X116808Y159334
X136808Y159334
X151808Y96834
X151808Y86834
X163879Y58905
X156808Y51834
X149737Y44763
T03
X163089Y74441
X161518Y109841
X141518Y144482
X25770Y74958
X27237Y110256
X47237Y144897
X65770Y74958
X86793Y54334
X94667Y54334
X102541Y54334
X123089Y74441
T04
X94308Y76834
X94308Y155574
T05
X78525Y54334
X110808Y54334
M30
