%
T01C0.023620
X2125Y13375
X5750Y13375
X6750Y13750
X9875Y14125
X12750Y12750
X10000Y18125
X13000Y15750
X18000Y11875
X13750Y6750
X13250Y6750
X12750Y6500
X13500Y6000
X12750Y5500
X14250Y5500
X14250Y6500
X2125Y32375
X5750Y32375
X6750Y32750
X9875Y33125
X12750Y31750
X10000Y37125
X13000Y34750
X18000Y30875
X13750Y25750
X13250Y25750
X12750Y25500
X13500Y25000
X12750Y24500
X14250Y24500
X14250Y25500
X21125Y13375
X24750Y13375
X25750Y13750
X28875Y14125
X31750Y12750
X29000Y18125
X32000Y15750
X37000Y11875
X32750Y6750
X32250Y6750
X31750Y6500
X32500Y6000
X31750Y5500
X33250Y5500
X33250Y6500
X21125Y32375
X24750Y32375
X25750Y32750
X28875Y33125
X31750Y31750
X29000Y37125
X32000Y34750
X37000Y30875
X32750Y25750
X32250Y25750
X31750Y25500
X32500Y25000
X31750Y24500
X33250Y24500
X33250Y25500
T02C0.033715
X16878Y8011
X16721Y11551
X14721Y15015
X3146Y8063
X3293Y11593
X5293Y15057
X7146Y8063
X9248Y6000
X10036Y6000
X10823Y6000
X12878Y8011
X4457Y5043
X3750Y5750
X3043Y6458
X4250Y9250
X4250Y10250
X5750Y16500
X7750Y16500
X12250Y16500
X14250Y16500
X15750Y10250
X15750Y9250
X16957Y6458
X16250Y5750
X15543Y5043
X16878Y27011
X16721Y30551
X14721Y34015
X3146Y27063
X3293Y30593
X5293Y34057
X7146Y27063
X9248Y25000
X10036Y25000
X10823Y25000
X12878Y27011
X4457Y24043
X3750Y24750
X3043Y25458
X4250Y28250
X4250Y29250
X5750Y35500
X7750Y35500
X12250Y35500
X14250Y35500
X15750Y29250
X15750Y28250
X16957Y25458
X16250Y24750
X15543Y24043
X35878Y8011
X35721Y11551
X33721Y15015
X22146Y8063
X22293Y11593
X24293Y15057
X26146Y8063
X28248Y6000
X29036Y6000
X29823Y6000
X31878Y8011
X23457Y5043
X22750Y5750
X22043Y6458
X23250Y9250
X23250Y10250
X24750Y16500
X26750Y16500
X31250Y16500
X33250Y16500
X34750Y10250
X34750Y9250
X35957Y6458
X35250Y5750
X34543Y5043
X35878Y27011
X35721Y30551
X33721Y34015
X22146Y27063
X22293Y30593
X24293Y34057
X26146Y27063
X28248Y25000
X29036Y25000
X29823Y25000
X31878Y27011
X23457Y24043
X22750Y24750
X22043Y25458
X23250Y28250
X23250Y29250
X24750Y35500
X26750Y35500
X31250Y35500
X33250Y35500
X34750Y29250
X34750Y28250
X35957Y25458
X35250Y24750
X34543Y24043
T03C0.051180
X10000Y8250
X10000Y16124
X10000Y27250
X10000Y35124
X29000Y8250
X29000Y16124
X29000Y27250
X29000Y35124
T04C0.064960
X8422Y6000
X11650Y6000
X8422Y25000
X11650Y25000
X27422Y6000
X30650Y6000
X27422Y25000
X30650Y25000
M30
