G75*
G70*
%OFA0B0*%
%FSLAX25Y25*%
%IPPOS*%
%LPD*%
%AMOC8*
5,1,8,0,0,1.08239X$1,22.5*
%
%ADD52C,0.01600*%
X0010000Y0010000D02*
G75*
%LPD*%
D52*
X0010000Y0100000D02*
X0010027Y0102209D01*
X0010108Y0104416D01*
X0010244Y0106621D01*
X0010433Y0108822D01*
X0010677Y0111017D01*
X0010974Y0113206D01*
X0011325Y0115387D01*
X0011729Y0117558D01*
X0012187Y0119719D01*
X0012697Y0121868D01*
X0013260Y0124004D01*
X0013875Y0126126D01*
X0014542Y0128231D01*
X0015261Y0130320D01*
X0016031Y0132391D01*
X0016851Y0134442D01*
X0017721Y0136472D01*
X0018641Y0138480D01*
X0019610Y0140465D01*
X0020627Y0142426D01*
X0021692Y0144361D01*
X0022804Y0146269D01*
X0023963Y0148150D01*
X0025168Y0150001D01*
X0026417Y0151823D01*
X0027711Y0153613D01*
X0029049Y0155371D01*
X0030429Y0157095D01*
X0031851Y0158786D01*
X0033314Y0160440D01*
X0034818Y0162059D01*
X0036360Y0163640D01*
X0037941Y0165182D01*
X0039560Y0166686D01*
X0041214Y0168149D01*
X0042905Y0169571D01*
X0044629Y0170951D01*
X0046387Y0172289D01*
X0048177Y0173583D01*
X0049999Y0174832D01*
X0051850Y0176037D01*
X0053731Y0177196D01*
X0055639Y0178308D01*
X0057574Y0179373D01*
X0059535Y0180390D01*
X0061520Y0181359D01*
X0063528Y0182279D01*
X0065558Y0183149D01*
X0067609Y0183969D01*
X0069680Y0184739D01*
X0071769Y0185458D01*
X0073874Y0186125D01*
X0075996Y0186740D01*
X0078132Y0187303D01*
X0080281Y0187813D01*
X0082442Y0188271D01*
X0084613Y0188675D01*
X0086794Y0189026D01*
X0088983Y0189323D01*
X0091178Y0189567D01*
X0093379Y0189756D01*
X0095584Y0189892D01*
X0097791Y0189973D01*
X0100000Y0190000D01*
X0102209Y0189973D01*
X0104416Y0189892D01*
X0106621Y0189756D01*
X0108822Y0189567D01*
X0111017Y0189323D01*
X0113206Y0189026D01*
X0115387Y0188675D01*
X0117558Y0188271D01*
X0119719Y0187813D01*
X0121868Y0187303D01*
X0124004Y0186740D01*
X0126126Y0186125D01*
X0128231Y0185458D01*
X0130320Y0184739D01*
X0132391Y0183969D01*
X0134442Y0183149D01*
X0136472Y0182279D01*
X0138480Y0181359D01*
X0140465Y0180390D01*
X0142426Y0179373D01*
X0144361Y0178308D01*
X0146269Y0177196D01*
X0148150Y0176037D01*
X0150001Y0174832D01*
X0151823Y0173583D01*
X0153613Y0172289D01*
X0155371Y0170951D01*
X0157095Y0169571D01*
X0158786Y0168149D01*
X0160440Y0166686D01*
X0162059Y0165182D01*
X0163640Y0163640D01*
X0165182Y0162059D01*
X0166686Y0160440D01*
X0168149Y0158786D01*
X0169571Y0157095D01*
X0170951Y0155371D01*
X0172289Y0153613D01*
X0173583Y0151823D01*
X0174832Y0150001D01*
X0176037Y0148150D01*
X0177196Y0146269D01*
X0178308Y0144361D01*
X0179373Y0142426D01*
X0180390Y0140465D01*
X0181359Y0138480D01*
X0182279Y0136472D01*
X0183149Y0134442D01*
X0183969Y0132391D01*
X0184739Y0130320D01*
X0185458Y0128231D01*
X0186125Y0126126D01*
X0186740Y0124004D01*
X0187303Y0121868D01*
X0187813Y0119719D01*
X0188271Y0117558D01*
X0188675Y0115387D01*
X0189026Y0113206D01*
X0189323Y0111017D01*
X0189567Y0108822D01*
X0189756Y0106621D01*
X0189892Y0104416D01*
X0189973Y0102209D01*
X0190000Y0100000D01*
X0189973Y0097791D01*
X0189892Y0095584D01*
X0189756Y0093379D01*
X0189567Y0091178D01*
X0189323Y0088983D01*
X0189026Y0086794D01*
X0188675Y0084613D01*
X0188271Y0082442D01*
X0187813Y0080281D01*
X0187303Y0078132D01*
X0186740Y0075996D01*
X0186125Y0073874D01*
X0185458Y0071769D01*
X0184739Y0069680D01*
X0183969Y0067609D01*
X0183149Y0065558D01*
X0182279Y0063528D01*
X0181359Y0061520D01*
X0180390Y0059535D01*
X0179373Y0057574D01*
X0178308Y0055639D01*
X0177196Y0053731D01*
X0176037Y0051850D01*
X0174832Y0049999D01*
X0173583Y0048177D01*
X0172289Y0046387D01*
X0170951Y0044629D01*
X0169571Y0042905D01*
X0168149Y0041214D01*
X0166686Y0039560D01*
X0165182Y0037941D01*
X0163640Y0036360D01*
X0162059Y0034818D01*
X0160440Y0033314D01*
X0158786Y0031851D01*
X0157095Y0030429D01*
X0155371Y0029049D01*
X0153613Y0027711D01*
X0151823Y0026417D01*
X0150001Y0025168D01*
X0148150Y0023963D01*
X0146269Y0022804D01*
X0144361Y0021692D01*
X0142426Y0020627D01*
X0140465Y0019610D01*
X0138480Y0018641D01*
X0136472Y0017721D01*
X0134442Y0016851D01*
X0132391Y0016031D01*
X0130320Y0015261D01*
X0128231Y0014542D01*
X0126126Y0013875D01*
X0124004Y0013260D01*
X0121868Y0012697D01*
X0119719Y0012187D01*
X0117558Y0011729D01*
X0115387Y0011325D01*
X0113206Y0010974D01*
X0111017Y0010677D01*
X0108822Y0010433D01*
X0106621Y0010244D01*
X0104416Y0010108D01*
X0102209Y0010027D01*
X0100000Y0010000D01*
X0097791Y0010027D01*
X0095584Y0010108D01*
X0093379Y0010244D01*
X0091178Y0010433D01*
X0088983Y0010677D01*
X0086794Y0010974D01*
X0084613Y0011325D01*
X0082442Y0011729D01*
X0080281Y0012187D01*
X0078132Y0012697D01*
X0075996Y0013260D01*
X0073874Y0013875D01*
X0071769Y0014542D01*
X0069680Y0015261D01*
X0067609Y0016031D01*
X0065558Y0016851D01*
X0063528Y0017721D01*
X0061520Y0018641D01*
X0059535Y0019610D01*
X0057574Y0020627D01*
X0055639Y0021692D01*
X0053731Y0022804D01*
X0051850Y0023963D01*
X0049999Y0025168D01*
X0048177Y0026417D01*
X0046387Y0027711D01*
X0044629Y0029049D01*
X0042905Y0030429D01*
X0041214Y0031851D01*
X0039560Y0033314D01*
X0037941Y0034818D01*
X0036360Y0036360D01*
X0034818Y0037941D01*
X0033314Y0039560D01*
X0031851Y0041214D01*
X0030429Y0042905D01*
X0029049Y0044629D01*
X0027711Y0046387D01*
X0026417Y0048177D01*
X0025168Y0049999D01*
X0023963Y0051850D01*
X0022804Y0053731D01*
X0021692Y0055639D01*
X0020627Y0057574D01*
X0019610Y0059535D01*
X0018641Y0061520D01*
X0017721Y0063528D01*
X0016851Y0065558D01*
X0016031Y0067609D01*
X0015261Y0069680D01*
X0014542Y0071769D01*
X0013875Y0073874D01*
X0013260Y0075996D01*
X0012697Y0078132D01*
X0012187Y0080281D01*
X0011729Y0082442D01*
X0011325Y0084613D01*
X0010974Y0086794D01*
X0010677Y0088983D01*
X0010433Y0091178D01*
X0010244Y0093379D01*
X0010108Y0095584D01*
X0010027Y0097791D01*
X0010000Y0100000D01*
X0010000Y0200000D02*
G75*
%LPD*%
D52*
X0010000Y0290000D02*
X0010027Y0292209D01*
X0010108Y0294416D01*
X0010244Y0296621D01*
X0010433Y0298822D01*
X0010677Y0301017D01*
X0010974Y0303206D01*
X0011325Y0305387D01*
X0011729Y0307558D01*
X0012187Y0309719D01*
X0012697Y0311868D01*
X0013260Y0314004D01*
X0013875Y0316126D01*
X0014542Y0318231D01*
X0015261Y0320320D01*
X0016031Y0322391D01*
X0016851Y0324442D01*
X0017721Y0326472D01*
X0018641Y0328480D01*
X0019610Y0330465D01*
X0020627Y0332426D01*
X0021692Y0334361D01*
X0022804Y0336269D01*
X0023963Y0338150D01*
X0025168Y0340001D01*
X0026417Y0341823D01*
X0027711Y0343613D01*
X0029049Y0345371D01*
X0030429Y0347095D01*
X0031851Y0348786D01*
X0033314Y0350440D01*
X0034818Y0352059D01*
X0036360Y0353640D01*
X0037941Y0355182D01*
X0039560Y0356686D01*
X0041214Y0358149D01*
X0042905Y0359571D01*
X0044629Y0360951D01*
X0046387Y0362289D01*
X0048177Y0363583D01*
X0049999Y0364832D01*
X0051850Y0366037D01*
X0053731Y0367196D01*
X0055639Y0368308D01*
X0057574Y0369373D01*
X0059535Y0370390D01*
X0061520Y0371359D01*
X0063528Y0372279D01*
X0065558Y0373149D01*
X0067609Y0373969D01*
X0069680Y0374739D01*
X0071769Y0375458D01*
X0073874Y0376125D01*
X0075996Y0376740D01*
X0078132Y0377303D01*
X0080281Y0377813D01*
X0082442Y0378271D01*
X0084613Y0378675D01*
X0086794Y0379026D01*
X0088983Y0379323D01*
X0091178Y0379567D01*
X0093379Y0379756D01*
X0095584Y0379892D01*
X0097791Y0379973D01*
X0100000Y0380000D01*
X0102209Y0379973D01*
X0104416Y0379892D01*
X0106621Y0379756D01*
X0108822Y0379567D01*
X0111017Y0379323D01*
X0113206Y0379026D01*
X0115387Y0378675D01*
X0117558Y0378271D01*
X0119719Y0377813D01*
X0121868Y0377303D01*
X0124004Y0376740D01*
X0126126Y0376125D01*
X0128231Y0375458D01*
X0130320Y0374739D01*
X0132391Y0373969D01*
X0134442Y0373149D01*
X0136472Y0372279D01*
X0138480Y0371359D01*
X0140465Y0370390D01*
X0142426Y0369373D01*
X0144361Y0368308D01*
X0146269Y0367196D01*
X0148150Y0366037D01*
X0150001Y0364832D01*
X0151823Y0363583D01*
X0153613Y0362289D01*
X0155371Y0360951D01*
X0157095Y0359571D01*
X0158786Y0358149D01*
X0160440Y0356686D01*
X0162059Y0355182D01*
X0163640Y0353640D01*
X0165182Y0352059D01*
X0166686Y0350440D01*
X0168149Y0348786D01*
X0169571Y0347095D01*
X0170951Y0345371D01*
X0172289Y0343613D01*
X0173583Y0341823D01*
X0174832Y0340001D01*
X0176037Y0338150D01*
X0177196Y0336269D01*
X0178308Y0334361D01*
X0179373Y0332426D01*
X0180390Y0330465D01*
X0181359Y0328480D01*
X0182279Y0326472D01*
X0183149Y0324442D01*
X0183969Y0322391D01*
X0184739Y0320320D01*
X0185458Y0318231D01*
X0186125Y0316126D01*
X0186740Y0314004D01*
X0187303Y0311868D01*
X0187813Y0309719D01*
X0188271Y0307558D01*
X0188675Y0305387D01*
X0189026Y0303206D01*
X0189323Y0301017D01*
X0189567Y0298822D01*
X0189756Y0296621D01*
X0189892Y0294416D01*
X0189973Y0292209D01*
X0190000Y0290000D01*
X0189973Y0287791D01*
X0189892Y0285584D01*
X0189756Y0283379D01*
X0189567Y0281178D01*
X0189323Y0278983D01*
X0189026Y0276794D01*
X0188675Y0274613D01*
X0188271Y0272442D01*
X0187813Y0270281D01*
X0187303Y0268132D01*
X0186740Y0265996D01*
X0186125Y0263874D01*
X0185458Y0261769D01*
X0184739Y0259680D01*
X0183969Y0257609D01*
X0183149Y0255558D01*
X0182279Y0253528D01*
X0181359Y0251520D01*
X0180390Y0249535D01*
X0179373Y0247574D01*
X0178308Y0245639D01*
X0177196Y0243731D01*
X0176037Y0241850D01*
X0174832Y0239999D01*
X0173583Y0238177D01*
X0172289Y0236387D01*
X0170951Y0234629D01*
X0169571Y0232905D01*
X0168149Y0231214D01*
X0166686Y0229560D01*
X0165182Y0227941D01*
X0163640Y0226360D01*
X0162059Y0224818D01*
X0160440Y0223314D01*
X0158786Y0221851D01*
X0157095Y0220429D01*
X0155371Y0219049D01*
X0153613Y0217711D01*
X0151823Y0216417D01*
X0150001Y0215168D01*
X0148150Y0213963D01*
X0146269Y0212804D01*
X0144361Y0211692D01*
X0142426Y0210627D01*
X0140465Y0209610D01*
X0138480Y0208641D01*
X0136472Y0207721D01*
X0134442Y0206851D01*
X0132391Y0206031D01*
X0130320Y0205261D01*
X0128231Y0204542D01*
X0126126Y0203875D01*
X0124004Y0203260D01*
X0121868Y0202697D01*
X0119719Y0202187D01*
X0117558Y0201729D01*
X0115387Y0201325D01*
X0113206Y0200974D01*
X0111017Y0200677D01*
X0108822Y0200433D01*
X0106621Y0200244D01*
X0104416Y0200108D01*
X0102209Y0200027D01*
X0100000Y0200000D01*
X0097791Y0200027D01*
X0095584Y0200108D01*
X0093379Y0200244D01*
X0091178Y0200433D01*
X0088983Y0200677D01*
X0086794Y0200974D01*
X0084613Y0201325D01*
X0082442Y0201729D01*
X0080281Y0202187D01*
X0078132Y0202697D01*
X0075996Y0203260D01*
X0073874Y0203875D01*
X0071769Y0204542D01*
X0069680Y0205261D01*
X0067609Y0206031D01*
X0065558Y0206851D01*
X0063528Y0207721D01*
X0061520Y0208641D01*
X0059535Y0209610D01*
X0057574Y0210627D01*
X0055639Y0211692D01*
X0053731Y0212804D01*
X0051850Y0213963D01*
X0049999Y0215168D01*
X0048177Y0216417D01*
X0046387Y0217711D01*
X0044629Y0219049D01*
X0042905Y0220429D01*
X0041214Y0221851D01*
X0039560Y0223314D01*
X0037941Y0224818D01*
X0036360Y0226360D01*
X0034818Y0227941D01*
X0033314Y0229560D01*
X0031851Y0231214D01*
X0030429Y0232905D01*
X0029049Y0234629D01*
X0027711Y0236387D01*
X0026417Y0238177D01*
X0025168Y0239999D01*
X0023963Y0241850D01*
X0022804Y0243731D01*
X0021692Y0245639D01*
X0020627Y0247574D01*
X0019610Y0249535D01*
X0018641Y0251520D01*
X0017721Y0253528D01*
X0016851Y0255558D01*
X0016031Y0257609D01*
X0015261Y0259680D01*
X0014542Y0261769D01*
X0013875Y0263874D01*
X0013260Y0265996D01*
X0012697Y0268132D01*
X0012187Y0270281D01*
X0011729Y0272442D01*
X0011325Y0274613D01*
X0010974Y0276794D01*
X0010677Y0278983D01*
X0010433Y0281178D01*
X0010244Y0283379D01*
X0010108Y0285584D01*
X0010027Y0287791D01*
X0010000Y0290000D01*
X0200000Y0010000D02*
G75*
%LPD*%
D52*
X0200000Y0100000D02*
X0200027Y0102209D01*
X0200108Y0104416D01*
X0200244Y0106621D01*
X0200433Y0108822D01*
X0200677Y0111017D01*
X0200974Y0113206D01*
X0201325Y0115387D01*
X0201729Y0117558D01*
X0202187Y0119719D01*
X0202697Y0121868D01*
X0203260Y0124004D01*
X0203875Y0126126D01*
X0204542Y0128231D01*
X0205261Y0130320D01*
X0206031Y0132391D01*
X0206851Y0134442D01*
X0207721Y0136472D01*
X0208641Y0138480D01*
X0209610Y0140465D01*
X0210627Y0142426D01*
X0211692Y0144361D01*
X0212804Y0146269D01*
X0213963Y0148150D01*
X0215168Y0150001D01*
X0216417Y0151823D01*
X0217711Y0153613D01*
X0219049Y0155371D01*
X0220429Y0157095D01*
X0221851Y0158786D01*
X0223314Y0160440D01*
X0224818Y0162059D01*
X0226360Y0163640D01*
X0227941Y0165182D01*
X0229560Y0166686D01*
X0231214Y0168149D01*
X0232905Y0169571D01*
X0234629Y0170951D01*
X0236387Y0172289D01*
X0238177Y0173583D01*
X0239999Y0174832D01*
X0241850Y0176037D01*
X0243731Y0177196D01*
X0245639Y0178308D01*
X0247574Y0179373D01*
X0249535Y0180390D01*
X0251520Y0181359D01*
X0253528Y0182279D01*
X0255558Y0183149D01*
X0257609Y0183969D01*
X0259680Y0184739D01*
X0261769Y0185458D01*
X0263874Y0186125D01*
X0265996Y0186740D01*
X0268132Y0187303D01*
X0270281Y0187813D01*
X0272442Y0188271D01*
X0274613Y0188675D01*
X0276794Y0189026D01*
X0278983Y0189323D01*
X0281178Y0189567D01*
X0283379Y0189756D01*
X0285584Y0189892D01*
X0287791Y0189973D01*
X0290000Y0190000D01*
X0292209Y0189973D01*
X0294416Y0189892D01*
X0296621Y0189756D01*
X0298822Y0189567D01*
X0301017Y0189323D01*
X0303206Y0189026D01*
X0305387Y0188675D01*
X0307558Y0188271D01*
X0309719Y0187813D01*
X0311868Y0187303D01*
X0314004Y0186740D01*
X0316126Y0186125D01*
X0318231Y0185458D01*
X0320320Y0184739D01*
X0322391Y0183969D01*
X0324442Y0183149D01*
X0326472Y0182279D01*
X0328480Y0181359D01*
X0330465Y0180390D01*
X0332426Y0179373D01*
X0334361Y0178308D01*
X0336269Y0177196D01*
X0338150Y0176037D01*
X0340001Y0174832D01*
X0341823Y0173583D01*
X0343613Y0172289D01*
X0345371Y0170951D01*
X0347095Y0169571D01*
X0348786Y0168149D01*
X0350440Y0166686D01*
X0352059Y0165182D01*
X0353640Y0163640D01*
X0355182Y0162059D01*
X0356686Y0160440D01*
X0358149Y0158786D01*
X0359571Y0157095D01*
X0360951Y0155371D01*
X0362289Y0153613D01*
X0363583Y0151823D01*
X0364832Y0150001D01*
X0366037Y0148150D01*
X0367196Y0146269D01*
X0368308Y0144361D01*
X0369373Y0142426D01*
X0370390Y0140465D01*
X0371359Y0138480D01*
X0372279Y0136472D01*
X0373149Y0134442D01*
X0373969Y0132391D01*
X0374739Y0130320D01*
X0375458Y0128231D01*
X0376125Y0126126D01*
X0376740Y0124004D01*
X0377303Y0121868D01*
X0377813Y0119719D01*
X0378271Y0117558D01*
X0378675Y0115387D01*
X0379026Y0113206D01*
X0379323Y0111017D01*
X0379567Y0108822D01*
X0379756Y0106621D01*
X0379892Y0104416D01*
X0379973Y0102209D01*
X0380000Y0100000D01*
X0379973Y0097791D01*
X0379892Y0095584D01*
X0379756Y0093379D01*
X0379567Y0091178D01*
X0379323Y0088983D01*
X0379026Y0086794D01*
X0378675Y0084613D01*
X0378271Y0082442D01*
X0377813Y0080281D01*
X0377303Y0078132D01*
X0376740Y0075996D01*
X0376125Y0073874D01*
X0375458Y0071769D01*
X0374739Y0069680D01*
X0373969Y0067609D01*
X0373149Y0065558D01*
X0372279Y0063528D01*
X0371359Y0061520D01*
X0370390Y0059535D01*
X0369373Y0057574D01*
X0368308Y0055639D01*
X0367196Y0053731D01*
X0366037Y0051850D01*
X0364832Y0049999D01*
X0363583Y0048177D01*
X0362289Y0046387D01*
X0360951Y0044629D01*
X0359571Y0042905D01*
X0358149Y0041214D01*
X0356686Y0039560D01*
X0355182Y0037941D01*
X0353640Y0036360D01*
X0352059Y0034818D01*
X0350440Y0033314D01*
X0348786Y0031851D01*
X0347095Y0030429D01*
X0345371Y0029049D01*
X0343613Y0027711D01*
X0341823Y0026417D01*
X0340001Y0025168D01*
X0338150Y0023963D01*
X0336269Y0022804D01*
X0334361Y0021692D01*
X0332426Y0020627D01*
X0330465Y0019610D01*
X0328480Y0018641D01*
X0326472Y0017721D01*
X0324442Y0016851D01*
X0322391Y0016031D01*
X0320320Y0015261D01*
X0318231Y0014542D01*
X0316126Y0013875D01*
X0314004Y0013260D01*
X0311868Y0012697D01*
X0309719Y0012187D01*
X0307558Y0011729D01*
X0305387Y0011325D01*
X0303206Y0010974D01*
X0301017Y0010677D01*
X0298822Y0010433D01*
X0296621Y0010244D01*
X0294416Y0010108D01*
X0292209Y0010027D01*
X0290000Y0010000D01*
X0287791Y0010027D01*
X0285584Y0010108D01*
X0283379Y0010244D01*
X0281178Y0010433D01*
X0278983Y0010677D01*
X0276794Y0010974D01*
X0274613Y0011325D01*
X0272442Y0011729D01*
X0270281Y0012187D01*
X0268132Y0012697D01*
X0265996Y0013260D01*
X0263874Y0013875D01*
X0261769Y0014542D01*
X0259680Y0015261D01*
X0257609Y0016031D01*
X0255558Y0016851D01*
X0253528Y0017721D01*
X0251520Y0018641D01*
X0249535Y0019610D01*
X0247574Y0020627D01*
X0245639Y0021692D01*
X0243731Y0022804D01*
X0241850Y0023963D01*
X0239999Y0025168D01*
X0238177Y0026417D01*
X0236387Y0027711D01*
X0234629Y0029049D01*
X0232905Y0030429D01*
X0231214Y0031851D01*
X0229560Y0033314D01*
X0227941Y0034818D01*
X0226360Y0036360D01*
X0224818Y0037941D01*
X0223314Y0039560D01*
X0221851Y0041214D01*
X0220429Y0042905D01*
X0219049Y0044629D01*
X0217711Y0046387D01*
X0216417Y0048177D01*
X0215168Y0049999D01*
X0213963Y0051850D01*
X0212804Y0053731D01*
X0211692Y0055639D01*
X0210627Y0057574D01*
X0209610Y0059535D01*
X0208641Y0061520D01*
X0207721Y0063528D01*
X0206851Y0065558D01*
X0206031Y0067609D01*
X0205261Y0069680D01*
X0204542Y0071769D01*
X0203875Y0073874D01*
X0203260Y0075996D01*
X0202697Y0078132D01*
X0202187Y0080281D01*
X0201729Y0082442D01*
X0201325Y0084613D01*
X0200974Y0086794D01*
X0200677Y0088983D01*
X0200433Y0091178D01*
X0200244Y0093379D01*
X0200108Y0095584D01*
X0200027Y0097791D01*
X0200000Y0100000D01*
X0200000Y0200000D02*
G75*
%LPD*%
D52*
X0200000Y0290000D02*
X0200027Y0292209D01*
X0200108Y0294416D01*
X0200244Y0296621D01*
X0200433Y0298822D01*
X0200677Y0301017D01*
X0200974Y0303206D01*
X0201325Y0305387D01*
X0201729Y0307558D01*
X0202187Y0309719D01*
X0202697Y0311868D01*
X0203260Y0314004D01*
X0203875Y0316126D01*
X0204542Y0318231D01*
X0205261Y0320320D01*
X0206031Y0322391D01*
X0206851Y0324442D01*
X0207721Y0326472D01*
X0208641Y0328480D01*
X0209610Y0330465D01*
X0210627Y0332426D01*
X0211692Y0334361D01*
X0212804Y0336269D01*
X0213963Y0338150D01*
X0215168Y0340001D01*
X0216417Y0341823D01*
X0217711Y0343613D01*
X0219049Y0345371D01*
X0220429Y0347095D01*
X0221851Y0348786D01*
X0223314Y0350440D01*
X0224818Y0352059D01*
X0226360Y0353640D01*
X0227941Y0355182D01*
X0229560Y0356686D01*
X0231214Y0358149D01*
X0232905Y0359571D01*
X0234629Y0360951D01*
X0236387Y0362289D01*
X0238177Y0363583D01*
X0239999Y0364832D01*
X0241850Y0366037D01*
X0243731Y0367196D01*
X0245639Y0368308D01*
X0247574Y0369373D01*
X0249535Y0370390D01*
X0251520Y0371359D01*
X0253528Y0372279D01*
X0255558Y0373149D01*
X0257609Y0373969D01*
X0259680Y0374739D01*
X0261769Y0375458D01*
X0263874Y0376125D01*
X0265996Y0376740D01*
X0268132Y0377303D01*
X0270281Y0377813D01*
X0272442Y0378271D01*
X0274613Y0378675D01*
X0276794Y0379026D01*
X0278983Y0379323D01*
X0281178Y0379567D01*
X0283379Y0379756D01*
X0285584Y0379892D01*
X0287791Y0379973D01*
X0290000Y0380000D01*
X0292209Y0379973D01*
X0294416Y0379892D01*
X0296621Y0379756D01*
X0298822Y0379567D01*
X0301017Y0379323D01*
X0303206Y0379026D01*
X0305387Y0378675D01*
X0307558Y0378271D01*
X0309719Y0377813D01*
X0311868Y0377303D01*
X0314004Y0376740D01*
X0316126Y0376125D01*
X0318231Y0375458D01*
X0320320Y0374739D01*
X0322391Y0373969D01*
X0324442Y0373149D01*
X0326472Y0372279D01*
X0328480Y0371359D01*
X0330465Y0370390D01*
X0332426Y0369373D01*
X0334361Y0368308D01*
X0336269Y0367196D01*
X0338150Y0366037D01*
X0340001Y0364832D01*
X0341823Y0363583D01*
X0343613Y0362289D01*
X0345371Y0360951D01*
X0347095Y0359571D01*
X0348786Y0358149D01*
X0350440Y0356686D01*
X0352059Y0355182D01*
X0353640Y0353640D01*
X0355182Y0352059D01*
X0356686Y0350440D01*
X0358149Y0348786D01*
X0359571Y0347095D01*
X0360951Y0345371D01*
X0362289Y0343613D01*
X0363583Y0341823D01*
X0364832Y0340001D01*
X0366037Y0338150D01*
X0367196Y0336269D01*
X0368308Y0334361D01*
X0369373Y0332426D01*
X0370390Y0330465D01*
X0371359Y0328480D01*
X0372279Y0326472D01*
X0373149Y0324442D01*
X0373969Y0322391D01*
X0374739Y0320320D01*
X0375458Y0318231D01*
X0376125Y0316126D01*
X0376740Y0314004D01*
X0377303Y0311868D01*
X0377813Y0309719D01*
X0378271Y0307558D01*
X0378675Y0305387D01*
X0379026Y0303206D01*
X0379323Y0301017D01*
X0379567Y0298822D01*
X0379756Y0296621D01*
X0379892Y0294416D01*
X0379973Y0292209D01*
X0380000Y0290000D01*
X0379973Y0287791D01*
X0379892Y0285584D01*
X0379756Y0283379D01*
X0379567Y0281178D01*
X0379323Y0278983D01*
X0379026Y0276794D01*
X0378675Y0274613D01*
X0378271Y0272442D01*
X0377813Y0270281D01*
X0377303Y0268132D01*
X0376740Y0265996D01*
X0376125Y0263874D01*
X0375458Y0261769D01*
X0374739Y0259680D01*
X0373969Y0257609D01*
X0373149Y0255558D01*
X0372279Y0253528D01*
X0371359Y0251520D01*
X0370390Y0249535D01*
X0369373Y0247574D01*
X0368308Y0245639D01*
X0367196Y0243731D01*
X0366037Y0241850D01*
X0364832Y0239999D01*
X0363583Y0238177D01*
X0362289Y0236387D01*
X0360951Y0234629D01*
X0359571Y0232905D01*
X0358149Y0231214D01*
X0356686Y0229560D01*
X0355182Y0227941D01*
X0353640Y0226360D01*
X0352059Y0224818D01*
X0350440Y0223314D01*
X0348786Y0221851D01*
X0347095Y0220429D01*
X0345371Y0219049D01*
X0343613Y0217711D01*
X0341823Y0216417D01*
X0340001Y0215168D01*
X0338150Y0213963D01*
X0336269Y0212804D01*
X0334361Y0211692D01*
X0332426Y0210627D01*
X0330465Y0209610D01*
X0328480Y0208641D01*
X0326472Y0207721D01*
X0324442Y0206851D01*
X0322391Y0206031D01*
X0320320Y0205261D01*
X0318231Y0204542D01*
X0316126Y0203875D01*
X0314004Y0203260D01*
X0311868Y0202697D01*
X0309719Y0202187D01*
X0307558Y0201729D01*
X0305387Y0201325D01*
X0303206Y0200974D01*
X0301017Y0200677D01*
X0298822Y0200433D01*
X0296621Y0200244D01*
X0294416Y0200108D01*
X0292209Y0200027D01*
X0290000Y0200000D01*
X0287791Y0200027D01*
X0285584Y0200108D01*
X0283379Y0200244D01*
X0281178Y0200433D01*
X0278983Y0200677D01*
X0276794Y0200974D01*
X0274613Y0201325D01*
X0272442Y0201729D01*
X0270281Y0202187D01*
X0268132Y0202697D01*
X0265996Y0203260D01*
X0263874Y0203875D01*
X0261769Y0204542D01*
X0259680Y0205261D01*
X0257609Y0206031D01*
X0255558Y0206851D01*
X0253528Y0207721D01*
X0251520Y0208641D01*
X0249535Y0209610D01*
X0247574Y0210627D01*
X0245639Y0211692D01*
X0243731Y0212804D01*
X0241850Y0213963D01*
X0239999Y0215168D01*
X0238177Y0216417D01*
X0236387Y0217711D01*
X0234629Y0219049D01*
X0232905Y0220429D01*
X0231214Y0221851D01*
X0229560Y0223314D01*
X0227941Y0224818D01*
X0226360Y0226360D01*
X0224818Y0227941D01*
X0223314Y0229560D01*
X0221851Y0231214D01*
X0220429Y0232905D01*
X0219049Y0234629D01*
X0217711Y0236387D01*
X0216417Y0238177D01*
X0215168Y0239999D01*
X0213963Y0241850D01*
X0212804Y0243731D01*
X0211692Y0245639D01*
X0210627Y0247574D01*
X0209610Y0249535D01*
X0208641Y0251520D01*
X0207721Y0253528D01*
X0206851Y0255558D01*
X0206031Y0257609D01*
X0205261Y0259680D01*
X0204542Y0261769D01*
X0203875Y0263874D01*
X0203260Y0265996D01*
X0202697Y0268132D01*
X0202187Y0270281D01*
X0201729Y0272442D01*
X0201325Y0274613D01*
X0200974Y0276794D01*
X0200677Y0278983D01*
X0200433Y0281178D01*
X0200244Y0283379D01*
X0200108Y0285584D01*
X0200027Y0287791D01*
X0200000Y0290000D01*
M02*
