G75*
%MOIN*%
%OFA0B0*%
%FSLAX25Y25*%
%IPPOS*%
%LPD*%
%AMOC8*
5,1,8,0,0,1.08239X$1,22.5*
%
%ADD10C,0.01600*%
%ADD11C,0.07800*%
%ADD12C,0.12400*%
%ADD13C,0.08000*%
%ADD14C,0.00500*%
%ADD15R,0.25800X0.25800*%
%ADD16C,0.25800*%
%ADD17C,0.08077*%
%ADD18C,0.05943*%
D10*
X0004308Y0094334D02*
X0004335Y0096543D01*
X0004416Y0098750D01*
X0004552Y0100955D01*
X0004741Y0103156D01*
X0004985Y0105351D01*
X0005282Y0107540D01*
X0005633Y0109721D01*
X0006037Y0111892D01*
X0006495Y0114053D01*
X0007005Y0116202D01*
X0007568Y0118338D01*
X0008183Y0120460D01*
X0008850Y0122565D01*
X0009569Y0124654D01*
X0010339Y0126725D01*
X0011159Y0128776D01*
X0012029Y0130806D01*
X0012949Y0132814D01*
X0013918Y0134799D01*
X0014935Y0136760D01*
X0016000Y0138695D01*
X0017112Y0140603D01*
X0018271Y0142484D01*
X0019476Y0144335D01*
X0020725Y0146157D01*
X0022019Y0147947D01*
X0023357Y0149705D01*
X0024737Y0151429D01*
X0026159Y0153120D01*
X0027622Y0154774D01*
X0029126Y0156393D01*
X0030668Y0157974D01*
X0032249Y0159516D01*
X0033868Y0161020D01*
X0035522Y0162483D01*
X0037213Y0163905D01*
X0038937Y0165285D01*
X0040695Y0166623D01*
X0042485Y0167917D01*
X0044307Y0169166D01*
X0046158Y0170371D01*
X0048039Y0171530D01*
X0049947Y0172642D01*
X0051882Y0173707D01*
X0053843Y0174724D01*
X0055828Y0175693D01*
X0057836Y0176613D01*
X0059866Y0177483D01*
X0061917Y0178303D01*
X0063988Y0179073D01*
X0066077Y0179792D01*
X0068182Y0180459D01*
X0070304Y0181074D01*
X0072440Y0181637D01*
X0074589Y0182147D01*
X0076750Y0182605D01*
X0078921Y0183009D01*
X0081102Y0183360D01*
X0083291Y0183657D01*
X0085486Y0183901D01*
X0087687Y0184090D01*
X0089892Y0184226D01*
X0092099Y0184307D01*
X0094308Y0184334D01*
X0096517Y0184307D01*
X0098724Y0184226D01*
X0100929Y0184090D01*
X0103130Y0183901D01*
X0105325Y0183657D01*
X0107514Y0183360D01*
X0109695Y0183009D01*
X0111866Y0182605D01*
X0114027Y0182147D01*
X0116176Y0181637D01*
X0118312Y0181074D01*
X0120434Y0180459D01*
X0122539Y0179792D01*
X0124628Y0179073D01*
X0126699Y0178303D01*
X0128750Y0177483D01*
X0130780Y0176613D01*
X0132788Y0175693D01*
X0134773Y0174724D01*
X0136734Y0173707D01*
X0138669Y0172642D01*
X0140577Y0171530D01*
X0142458Y0170371D01*
X0144309Y0169166D01*
X0146131Y0167917D01*
X0147921Y0166623D01*
X0149679Y0165285D01*
X0151403Y0163905D01*
X0153094Y0162483D01*
X0154748Y0161020D01*
X0156367Y0159516D01*
X0157948Y0157974D01*
X0159490Y0156393D01*
X0160994Y0154774D01*
X0162457Y0153120D01*
X0163879Y0151429D01*
X0165259Y0149705D01*
X0166597Y0147947D01*
X0167891Y0146157D01*
X0169140Y0144335D01*
X0170345Y0142484D01*
X0171504Y0140603D01*
X0172616Y0138695D01*
X0173681Y0136760D01*
X0174698Y0134799D01*
X0175667Y0132814D01*
X0176587Y0130806D01*
X0177457Y0128776D01*
X0178277Y0126725D01*
X0179047Y0124654D01*
X0179766Y0122565D01*
X0180433Y0120460D01*
X0181048Y0118338D01*
X0181611Y0116202D01*
X0182121Y0114053D01*
X0182579Y0111892D01*
X0182983Y0109721D01*
X0183334Y0107540D01*
X0183631Y0105351D01*
X0183875Y0103156D01*
X0184064Y0100955D01*
X0184200Y0098750D01*
X0184281Y0096543D01*
X0184308Y0094334D01*
X0184281Y0092125D01*
X0184200Y0089918D01*
X0184064Y0087713D01*
X0183875Y0085512D01*
X0183631Y0083317D01*
X0183334Y0081128D01*
X0182983Y0078947D01*
X0182579Y0076776D01*
X0182121Y0074615D01*
X0181611Y0072466D01*
X0181048Y0070330D01*
X0180433Y0068208D01*
X0179766Y0066103D01*
X0179047Y0064014D01*
X0178277Y0061943D01*
X0177457Y0059892D01*
X0176587Y0057862D01*
X0175667Y0055854D01*
X0174698Y0053869D01*
X0173681Y0051908D01*
X0172616Y0049973D01*
X0171504Y0048065D01*
X0170345Y0046184D01*
X0169140Y0044333D01*
X0167891Y0042511D01*
X0166597Y0040721D01*
X0165259Y0038963D01*
X0163879Y0037239D01*
X0162457Y0035548D01*
X0160994Y0033894D01*
X0159490Y0032275D01*
X0157948Y0030694D01*
X0156367Y0029152D01*
X0154748Y0027648D01*
X0153094Y0026185D01*
X0151403Y0024763D01*
X0149679Y0023383D01*
X0147921Y0022045D01*
X0146131Y0020751D01*
X0144309Y0019502D01*
X0142458Y0018297D01*
X0140577Y0017138D01*
X0138669Y0016026D01*
X0136734Y0014961D01*
X0134773Y0013944D01*
X0132788Y0012975D01*
X0130780Y0012055D01*
X0128750Y0011185D01*
X0126699Y0010365D01*
X0124628Y0009595D01*
X0122539Y0008876D01*
X0120434Y0008209D01*
X0118312Y0007594D01*
X0116176Y0007031D01*
X0114027Y0006521D01*
X0111866Y0006063D01*
X0109695Y0005659D01*
X0107514Y0005308D01*
X0105325Y0005011D01*
X0103130Y0004767D01*
X0100929Y0004578D01*
X0098724Y0004442D01*
X0096517Y0004361D01*
X0094308Y0004334D01*
X0092099Y0004361D01*
X0089892Y0004442D01*
X0087687Y0004578D01*
X0085486Y0004767D01*
X0083291Y0005011D01*
X0081102Y0005308D01*
X0078921Y0005659D01*
X0076750Y0006063D01*
X0074589Y0006521D01*
X0072440Y0007031D01*
X0070304Y0007594D01*
X0068182Y0008209D01*
X0066077Y0008876D01*
X0063988Y0009595D01*
X0061917Y0010365D01*
X0059866Y0011185D01*
X0057836Y0012055D01*
X0055828Y0012975D01*
X0053843Y0013944D01*
X0051882Y0014961D01*
X0049947Y0016026D01*
X0048039Y0017138D01*
X0046158Y0018297D01*
X0044307Y0019502D01*
X0042485Y0020751D01*
X0040695Y0022045D01*
X0038937Y0023383D01*
X0037213Y0024763D01*
X0035522Y0026185D01*
X0033868Y0027648D01*
X0032249Y0029152D01*
X0030668Y0030694D01*
X0029126Y0032275D01*
X0027622Y0033894D01*
X0026159Y0035548D01*
X0024737Y0037239D01*
X0023357Y0038963D01*
X0022019Y0040721D01*
X0020725Y0042511D01*
X0019476Y0044333D01*
X0018271Y0046184D01*
X0017112Y0048065D01*
X0016000Y0049973D01*
X0014935Y0051908D01*
X0013918Y0053869D01*
X0012949Y0055854D01*
X0012029Y0057862D01*
X0011159Y0059892D01*
X0010339Y0061943D01*
X0009569Y0064014D01*
X0008850Y0066103D01*
X0008183Y0068208D01*
X0007568Y0070330D01*
X0007005Y0072466D01*
X0006495Y0074615D01*
X0006037Y0076776D01*
X0005633Y0078947D01*
X0005282Y0081128D01*
X0004985Y0083317D01*
X0004741Y0085512D01*
X0004552Y0087713D01*
X0004416Y0089918D01*
X0004335Y0092125D01*
X0004308Y0094334D01*
D11*
X0041496Y0047379D02*
X0036263Y0042146D01*
X0029192Y0049217D02*
X0034425Y0054450D01*
X0027354Y0061521D02*
X0022121Y0056289D01*
X0033108Y0086834D02*
X0040508Y0086834D01*
X0040508Y0096834D02*
X0033108Y0096834D01*
X0148108Y0096834D02*
X0155508Y0096834D01*
X0155508Y0086834D02*
X0148108Y0086834D01*
X0161263Y0061521D02*
X0166496Y0056289D01*
X0159425Y0049217D02*
X0154192Y0054450D01*
X0147121Y0047379D02*
X0152354Y0042146D01*
D12*
X0163089Y0074441D03*
X0161518Y0109841D03*
X0141518Y0144482D03*
X0123089Y0074441D03*
X0065770Y0074958D03*
X0027237Y0110256D03*
X0047237Y0144897D03*
X0025770Y0074958D03*
D13*
X0051808Y0155534D02*
X0051808Y0163134D01*
X0071808Y0163134D02*
X0071808Y0155534D01*
X0116808Y0155534D02*
X0116808Y0163134D01*
X0136808Y0163134D02*
X0136808Y0155534D01*
D14*
X0151349Y0098532D02*
X0151728Y0098584D01*
X0152129Y0098549D01*
X0152512Y0098425D01*
X0152857Y0098220D01*
X0153149Y0097943D01*
X0153371Y0097608D01*
X0153513Y0097232D01*
X0153568Y0096834D01*
X0153517Y0096441D01*
X0153380Y0096069D01*
X0153163Y0095737D01*
X0152878Y0095461D01*
X0152539Y0095256D01*
X0152163Y0095132D01*
X0151769Y0095094D01*
X0151385Y0095141D01*
X0151022Y0095271D01*
X0150696Y0095479D01*
X0150425Y0095755D01*
X0150223Y0096084D01*
X0150098Y0096450D01*
X0150058Y0096834D01*
X0150092Y0097215D01*
X0150210Y0097580D01*
X0150406Y0097909D01*
X0150671Y0098186D01*
X0150990Y0098397D01*
X0151349Y0098532D01*
X0151662Y0098575D02*
X0151832Y0098575D01*
X0153009Y0098076D02*
X0150566Y0098076D01*
X0150210Y0097578D02*
X0153382Y0097578D01*
X0153534Y0097079D02*
X0150080Y0097079D01*
X0150085Y0096581D02*
X0153535Y0096581D01*
X0153385Y0096082D02*
X0150224Y0096082D01*
X0150594Y0095584D02*
X0153005Y0095584D01*
X0152129Y0088549D02*
X0152512Y0088425D01*
X0152857Y0088220D01*
X0153149Y0087943D01*
X0153371Y0087608D01*
X0153513Y0087232D01*
X0153568Y0086834D01*
X0153517Y0086441D01*
X0153380Y0086069D01*
X0153163Y0085737D01*
X0152878Y0085461D01*
X0152539Y0085256D01*
X0152163Y0085132D01*
X0151769Y0085094D01*
X0151385Y0085141D01*
X0151022Y0085271D01*
X0150696Y0085479D01*
X0150425Y0085755D01*
X0150223Y0086084D01*
X0150098Y0086450D01*
X0150058Y0086834D01*
X0150092Y0087215D01*
X0150210Y0087580D01*
X0150406Y0087909D01*
X0150671Y0088186D01*
X0150990Y0088397D01*
X0151349Y0088532D01*
X0151728Y0088584D01*
X0152129Y0088549D01*
X0152977Y0088106D02*
X0150595Y0088106D01*
X0150227Y0087607D02*
X0153371Y0087607D01*
X0153530Y0087109D02*
X0150083Y0087109D01*
X0150082Y0086610D02*
X0153539Y0086610D01*
X0153396Y0086112D02*
X0150213Y0086112D01*
X0150565Y0085613D02*
X0153036Y0085613D01*
X0151988Y0085115D02*
X0151596Y0085115D01*
X0038568Y0086834D02*
X0038517Y0086441D01*
X0038380Y0086069D01*
X0038163Y0085737D01*
X0037878Y0085461D01*
X0037539Y0085256D01*
X0037163Y0085132D01*
X0036769Y0085094D01*
X0036385Y0085141D01*
X0036022Y0085271D01*
X0035696Y0085479D01*
X0035425Y0085755D01*
X0035223Y0086084D01*
X0035098Y0086450D01*
X0035058Y0086834D01*
X0035092Y0087215D01*
X0035210Y0087580D01*
X0035406Y0087909D01*
X0035671Y0088186D01*
X0035990Y0088397D01*
X0036349Y0088532D01*
X0036728Y0088584D01*
X0037129Y0088549D01*
X0037512Y0088425D01*
X0037857Y0088220D01*
X0038149Y0087943D01*
X0038371Y0087608D01*
X0038513Y0087232D01*
X0038568Y0086834D01*
X0038539Y0086610D02*
X0035082Y0086610D01*
X0035083Y0087109D02*
X0038530Y0087109D01*
X0038371Y0087607D02*
X0035227Y0087607D01*
X0035595Y0088106D02*
X0037977Y0088106D01*
X0038396Y0086112D02*
X0035213Y0086112D01*
X0035565Y0085613D02*
X0038036Y0085613D01*
X0036988Y0085115D02*
X0036596Y0085115D01*
X0036769Y0095094D02*
X0036385Y0095141D01*
X0036022Y0095271D01*
X0035696Y0095479D01*
X0035425Y0095755D01*
X0035223Y0096084D01*
X0035098Y0096450D01*
X0035058Y0096834D01*
X0035092Y0097215D01*
X0035210Y0097580D01*
X0035406Y0097909D01*
X0035671Y0098186D01*
X0035990Y0098397D01*
X0036349Y0098532D01*
X0036728Y0098584D01*
X0037129Y0098549D01*
X0037512Y0098425D01*
X0037857Y0098220D01*
X0038149Y0097943D01*
X0038371Y0097608D01*
X0038513Y0097232D01*
X0038568Y0096834D01*
X0038517Y0096441D01*
X0038380Y0096069D01*
X0038163Y0095737D01*
X0037878Y0095461D01*
X0037539Y0095256D01*
X0037163Y0095132D01*
X0036769Y0095094D01*
X0035594Y0095584D02*
X0038005Y0095584D01*
X0038385Y0096082D02*
X0035224Y0096082D01*
X0035085Y0096581D02*
X0038535Y0096581D01*
X0038534Y0097079D02*
X0035080Y0097079D01*
X0035210Y0097578D02*
X0038382Y0097578D01*
X0038009Y0098076D02*
X0035566Y0098076D01*
X0036662Y0098575D02*
X0036832Y0098575D01*
D15*
X0094308Y0155574D03*
D16*
X0094308Y0076834D03*
D17*
X0078525Y0058172D02*
X0078525Y0050495D01*
X0110808Y0050495D02*
X0110808Y0058172D01*
D18*
X0102541Y0057105D02*
X0102541Y0051562D01*
X0094667Y0051562D02*
X0094667Y0057105D01*
X0086793Y0057105D02*
X0086793Y0051562D01*
M02*
