%
M48
M72
T01C0.0236
T02C0.0320
T03C0.0354
T04C0.0512
%
T01
X1556Y12808
X5181Y12808
X6181Y13183
X9306Y13558
X10681Y12558
X12243Y12246
X9431Y17558
X12431Y15183
X17431Y11308
X13181Y6183
X12681Y6183
X12181Y5933
X12931Y5433
X13681Y4933
X13681Y5933
X12181Y4933
T02
X3888Y4476
X3181Y5183
X2474Y5890
X3681Y8683
X3681Y9683
X5181Y15933
X7181Y15933
X11681Y15933
X13681Y15933
X15181Y9683
X15181Y8683
X16388Y5890
X15681Y5183
X14974Y4476
T03
X16309Y7444
X16152Y10984
X14152Y14448
X2577Y7496
X2724Y11026
X4724Y14490
X6577Y7496
X8679Y5433
X9467Y5433
X10254Y5433
X12309Y7444
T04
X11081Y5433
X9431Y7683
X7852Y5433
X9431Y15557
M30
