  0
SECTION
  2
HEADER
  9
$ACADVER
  1
AC1014
  9
$ACADMAINTVER
 70
     9
  9
$DWGCODEPAGE
  3
UNDEFINED
  9
$INSBASE
 10
0.0
 20
0.0
 30
0.0
  9
$EXTMIN
 10
1.000000000000000E+20
 20
1.000000000000000E+20
 30
1.000000000000000E+20
  9
$EXTMAX
 10
-1.000000000000000E+20
 20
-1.000000000000000E+20
 30
-1.000000000000000E+20
  9
$LIMMIN
 10
0.0
 20
0.0
  9
$LIMMAX
 10
12.0
 20
9.0
  9
$ORTHOMODE
 70
     0
  9
$REGENMODE
 70
     1
  9
$FILLMODE
 70
     1
  9
$QTEXTMODE
 70
     0
  9
$MIRRTEXT
 70
     1
  9
$DRAGMODE
 70
     2
  9
$LTSCALE
 40
1.0
  9
$OSMODE
 70
    37
  9
$ATTMODE
 70
     1
  9
$TEXTSIZE
 40
0.2
  9
$TRACEWID
 40
0.05
  9
$TEXTSTYLE
  7
STANDARD
  9
$CLAYER
  8
0
  9
$CELTYPE
  6
BYLAYER
  9
$CECOLOR
 62
   256
  9
$CELTSCALE
 40
1.0
  9
$DELOBJ
 70
     1
  9
$DISPSILH
 70
     0
  9
$DIMSCALE
 40
1.0
  9
$DIMASZ
 40
0.18
  9
$DIMEXO
 40
0.0625
  9
$DIMDLI
 40
0.38
  9
$DIMRND
 40
0.0
  9
$DIMDLE
 40
0.0
  9
$DIMEXE
 40
0.18
  9
$DIMTP
 40
0.0
  9
$DIMTM
 40
0.0
  9
$DIMTXT
 40
0.18
  9
$DIMCEN
 40
0.09
  9
$DIMTSZ
 40
0.0
  9
$DIMTOL
 70
     0
  9
$DIMLIM
 70
     0
  9
$DIMTIH
 70
     1
  9
$DIMTOH
 70
     1
  9
$DIMSE1
 70
     0
  9
$DIMSE2
 70
     0
  9
$DIMTAD
 70
     0
  9
$DIMZIN
 70
     0
  9
$DIMBLK
  1

  9
$DIMASO
 70
     1
  9
$DIMSHO
 70
     1
  9
$DIMPOST
  1

  9
$DIMAPOST
  1

  9
$DIMALT
 70
     0
  9
$DIMALTD
 70
     2
  9
$DIMALTF
 40
25.4
  9
$DIMLFAC
 40
1.0
  9
$DIMTOFL
 70
     0
  9
$DIMTVP
 40
0.0
  9
$DIMTIX
 70
     0
  9
$DIMSOXD
 70
     0
  9
$DIMSAH
 70
     0
  9
$DIMBLK1
  1

  9
$DIMBLK2
  1

  9
$DIMSTYLE
  2
STANDARD
  9
$DIMCLRD
 70
     0
  9
$DIMCLRE
 70
     0
  9
$DIMCLRT
 70
     0
  9
$DIMTFAC
 40
1.0
  9
$DIMGAP
 40
0.09
  9
$DIMJUST
 70
     0
  9
$DIMSD1
 70
     0
  9
$DIMSD2
 70
     0
  9
$DIMTOLJ
 70
     1
  9
$DIMTZIN
 70
     0
  9
$DIMALTZ
 70
     0
  9
$DIMALTTZ
 70
     0
  9
$DIMFIT
 70
     3
  9
$DIMUPT
 70
     0
  9
$DIMUNIT
 70
     2
  9
$DIMDEC
 70
     4
  9
$DIMTDEC
 70
     4
  9
$DIMALTU
 70
     2
  9
$DIMALTTD
 70
     2
  9
$DIMTXSTY
  7
STANDARD
  9
$DIMAUNIT
 70
     0
  9
$LUNITS
 70
     2
  9
$LUPREC
 70
     4
  9
$SKETCHINC
 40
0.1
  9
$FILLETRAD
 40
0.5
  9
$AUNITS
 70
     0
  9
$AUPREC
 70
     0
  9
$MENU
  1
.
  9
$ELEVATION
 40
0.0
  9
$PELEVATION
 40
0.0
  9
$THICKNESS
 40
0.0
  9
$LIMCHECK
 70
     0
  9
$CHAMFERA
 40
0.5
  9
$CHAMFERB
 40
0.5
  9
$CHAMFERC
 40
1.0
  9
$CHAMFERD
 40
0.0
  9
$SKPOLY
 70
     0
  9
$TDCREATE
 40
2456572.892777766
  9
$TDUPDATE
 40
2456572.892777789
  9
$TDINDWG
 40
0.0000000116
  9
$TDUSRTIMER
 40
0.0000000116
  9
$USRTIMER
 70
     1
  9
$ANGBASE
 50
0.0
  9
$ANGDIR
 70
     0
  9
$PDMODE
 70
     0
  9
$PDSIZE
 40
0.0
  9
$PLINEWID
 40
0.0
  9
$COORDS
 70
     1
  9
$SPLFRAME
 70
     0
  9
$SPLINETYPE
 70
     6
  9
$SPLINESEGS
 70
     8
  9
$ATTDIA
 70
     0
  9
$ATTREQ
 70
     1
  9
$HANDLING
 70
     1
  9
$HANDSEED
  5
E8
  9
$SURFTAB1
 70
     6
  9
$SURFTAB2
 70
     6
  9
$SURFTYPE
 70
     6
  9
$SURFU
 70
     6
  9
$SURFV
 70
     6
  9
$UCSNAME
  2

  9
$UCSORG
 10
0.0
 20
0.0
 30
0.0
  9
$UCSXDIR
 10
1.0
 20
0.0
 30
0.0
  9
$UCSYDIR
 10
0.0
 20
1.0
 30
0.0
  9
$PUCSNAME
  2

  9
$PUCSORG
 10
0.0
 20
0.0
 30
0.0
  9
$PUCSXDIR
 10
1.0
 20
0.0
 30
0.0
  9
$PUCSYDIR
 10
0.0
 20
1.0
 30
0.0
  9
$USERI1
 70
     0
  9
$USERI2
 70
     0
  9
$USERI3
 70
     0
  9
$USERI4
 70
     0
  9
$USERI5
 70
     0
  9
$USERR1
 40
0.0
  9
$USERR2
 40
0.0
  9
$USERR3
 40
0.0
  9
$USERR4
 40
0.0
  9
$USERR5
 40
0.0
  9
$WORLDVIEW
 70
     1
  9
$SHADEDGE
 70
     3
  9
$SHADEDIF
 70
    70
  9
$TILEMODE
 70
     1
  9
$MAXACTVP
 70
    64
  9
$PINSBASE
 10
0.0
 20
0.0
 30
0.0
  9
$PLIMCHECK
 70
     0
  9
$PEXTMIN
 10
1.000000000000000E+20
 20
1.000000000000000E+20
 30
1.000000000000000E+20
  9
$PEXTMAX
 10
-1.000000000000000E+20
 20
-1.000000000000000E+20
 30
-1.000000000000000E+20
  9
$PLIMMIN
 10
0.0
 20
0.0
  9
$PLIMMAX
 10
12.0
 20
9.0
  9
$UNITMODE
 70
     0
  9
$VISRETAIN
 70
     1
  9
$PLINEGEN
 70
     0
  9
$PSLTSCALE
 70
     1
  9
$TREEDEPTH
 70
  3020
  9
$PICKSTYLE
 70
     1
  9
$CMLSTYLE
  2
STANDARD
  9
$CMLJUST
 70
     0
  9
$CMLSCALE
 40
1.0
  9
$PROXYGRAPHICS
 70
     1
  9
$MEASUREMENT
 70
     0
  0
ENDSEC
  0
SECTION
  2
CLASSES
  0
CLASS
  1
ACDBDICTIONARYWDFLT
  2
AcDbDictionaryWithDefault
  3
ObjectDBX Classes
 90
        0
280
     0
281
     0
  0
CLASS
  1
VISUALSTYLE
  2
AcDbVisualStyle
  3
ObjectDBX Classes
 90
     4095
280
     0
281
     0
  0
CLASS
  1
MATERIAL
  2
AcDbMaterial
  3
ObjectDBX Classes
 90
     1153
280
     0
281
     0
  0
CLASS
  1
DICTIONARYVAR
  2
AcDbDictionaryVar
  3
ObjectDBX Classes
 90
        0
280
     0
281
     0
  0
CLASS
  1
XRECORD
  2
AcDbXrecord
  3
AutoCAD 2000
 90
        0
280
     0
281
     0
  0
CLASS
  1
LWPOLYLINE
  2
AcDbPolyline
  3
AutoCAD 2000
 90
        0
280
     0
281
     1
  0
CLASS
  1
HATCH
  2
AcDbHatch
  3
AutoCAD 2000
 90
        0
280
     0
281
     1
  0
CLASS
  1
ACDBPLACEHOLDER
  2
AcDbPlaceHolder
  3
ObjectDBX Classes
 90
        0
280
     0
281
     0
  0
CLASS
  1
LAYOUT
  2
AcDbLayout
  3
ObjectDBX Classes
 90
        0
280
     0
281
     0
  0
ENDSEC
  0
SECTION
  2
TABLES
  0
TABLE
  2
VPORT
  5
8
330
0
100
AcDbSymbolTable
 70
     1
  0
VPORT
  5
29
330
8
100
AcDbSymbolTableRecord
100
AcDbViewportTableRecord
  2
*ACTIVE
 70
     0
 10
0.0
 20
0.0
 11
1.0
 21
1.0
 12
0.0
 22
0.0
 13
0.0
 23
0.0
 14
0.5
 24
0.5
 15
0.5
 25
0.5
 16
0.0
 26
0.0
 36
1.0
 17
0.0
 27
0.0
 37
-1000.0
 40
73.6842105263158
 41
1.7701317715959
 42
50.0
 43
6111.393630884693
 44
7497.421104414625
 50
0.0
 51
0.0
 71
     0
 72
   100
 73
     1
 74
     3
 75
     0
 76
     0
 77
     0
 78
     0
  0
ENDTAB
  0
TABLE
  2
LTYPE
  5
5
330
0
100
AcDbSymbolTable
 70
     1
  0
LTYPE
  5
14
330
5
100
AcDbSymbolTableRecord
100
AcDbLinetypeTableRecord
  2
BYBLOCK
 70
     0
  3

 72
    65
 73
     0
 40
0.0
  0
LTYPE
  5
15
330
5
100
AcDbSymbolTableRecord
100
AcDbLinetypeTableRecord
  2
BYLAYER
 70
     0
  3

 72
    65
 73
     0
 40
0.0
  0
LTYPE
  5
16
330
5
100
AcDbSymbolTableRecord
100
AcDbLinetypeTableRecord
  2
CONTINUOUS
 70
     0
  3
Solid line
 72
    65
 73
     0
 40
0.0
  0
ENDTAB
  0
TABLE
  2
LAYER
  5
2
330
0
100
AcDbSymbolTable
 70
     3
  0
LAYER
  5
10
330
2
100
AcDbSymbolTableRecord
100
AcDbLayerTableRecord
  2
0
 70
     0
 62
     7
  6
CONTINUOUS
  0
LAYER
  5
3F
330
2
100
AcDbSymbolTableRecord
100
AcDbLayerTableRecord
  2
PROFILEEDGES
 70
     0
 62
     7
  6
CONTINUOUS
  0
LAYER
  5
40
330
2
100
AcDbSymbolTableRecord
100
AcDbLayerTableRecord
  2
SECTIONCUTEDGES
 70
     0
 62
     7
  6
CONTINUOUS
  0
ENDTAB
  0
TABLE
  2
STYLE
  5
3
330
0
100
AcDbSymbolTable
 70
     1
  0
STYLE
  5
11
330
3
100
AcDbSymbolTableRecord
100
AcDbTextStyleTableRecord
  2
STANDARD
 70
     0
 40
0.0
 41
1.0
 50
0.0
 71
     0
 42
0.2
  3
txt
  4

  0
ENDTAB
  0
TABLE
  2
VIEW
  5
6
330
0
100
AcDbSymbolTable
 70
     0
  0
ENDTAB
  0
TABLE
  2
UCS
  5
7
330
0
100
AcDbSymbolTable
 70
     0
  0
ENDTAB
  0
TABLE
  2
APPID
  5
9
330
0
100
AcDbSymbolTable
 70
     1
  0
APPID
  5
12
330
9
100
AcDbSymbolTableRecord
100
AcDbRegAppTableRecord
  2
ACAD
 70
     0
  0
ENDTAB
  0
TABLE
  2
DIMSTYLE
  5
A
330
0
100
AcDbSymbolTable
 70
     1
  0
DIMSTYLE
105
27
330
A
100
AcDbSymbolTableRecord
100
AcDbDimStyleTableRecord
  2
STANDARD
 70
     0
  3

  4

  5

  6

  7

 40
1.0
 41
0.18
 42
0.0625
 43
0.38
 44
0.18
 45
0.0
 46
0.0
 47
0.0
 48
0.0
140
0.18
141
0.09
142
0.0
143
25.4
144
1.0
145
0.0
146
1.0
147
0.09
 71
     0
 72
     0
 73
     1
 74
     1
 75
     0
 76
     0
 77
     0
 78
     0
170
     0
171
     2
172
     0
173
     0
174
     0
175
     0
176
     0
177
     0
178
     0
270
     2
271
     4
272
     4
273
     2
274
     2
340
11
275
     0
280
     0
281
     0
282
     0
283
     1
284
     0
285
     0
286
     0
287
     3
288
     0
  0
ENDTAB
  0
TABLE
  2
BLOCK_RECORD
  5
1
330
0
100
AcDbSymbolTable
 70
     1
  0
BLOCK_RECORD
  5
1F
330
1
100
AcDbSymbolTableRecord
100
AcDbBlockTableRecord
  2
*MODEL_SPACE
  0
BLOCK_RECORD
  5
1B
330
1
100
AcDbSymbolTableRecord
100
AcDbBlockTableRecord
  2
*PAPER_SPACE
  0
ENDTAB
  0
ENDSEC
  0
SECTION
  2
BLOCKS
  0
BLOCK
  5
20
330
1F
100
AcDbEntity
  8
0
100
AcDbBlockBegin
  2
*MODEL_SPACE
 70
     0
 10
0.0
 20
0.0
 30
0.0
  3
*MODEL_SPACE
  1

  0
ENDBLK
  5
21
330
1F
100
AcDbEntity
  8
0
100
AcDbBlockEnd
  0
BLOCK
  5
1C
330
1B
100
AcDbEntity
 67
     1
  8
0
100
AcDbBlockBegin
  2
*PAPER_SPACE
 70
     0
 10
0.0
 20
0.0
 30
0.0
  3
*PAPER_SPACE
  1

  0
ENDBLK
  5
1D
330
1B
100
AcDbEntity
 67
     1
  8
0
100
AcDbBlockEnd
  0
ENDSEC
  0
SECTION
  2
ENTITIES
  0
LINE
  5
41
330
1F
100
AcDbEntity
  8
0
100
AcDbLine
 10
-55.99999999999999
 20
35.0
 30
0.0
 11
-57.03527618041007
 21
34.86370330515628
 31
0.0
  0
LINE
  5
42
330
1F
100
AcDbEntity
  8
0
100
AcDbLine
 10
-57.03527618041007
 20
34.86370330515628
 30
0.0
 11
-57.99999999999999
 21
34.46410161513776
 31
0.0
  0
LINE
  5
43
330
1F
100
AcDbEntity
  8
0
100
AcDbLine
 10
-57.99999999999999
 20
34.46410161513776
 30
0.0
 11
-58.82842712474617
 21
33.82842712474618
 31
0.0
  0
LINE
  5
44
330
1F
100
AcDbEntity
  8
0
100
AcDbLine
 10
-58.82842712474617
 20
33.82842712474618
 30
0.0
 11
-59.46410161513774
 21
32.99999999999999
 31
0.0
  0
LINE
  5
45
330
1F
100
AcDbEntity
  8
0
100
AcDbLine
 10
-59.46410161513774
 20
32.99999999999999
 30
0.0
 11
-59.86370330515626
 21
32.03527618041009
 31
0.0
  0
LINE
  5
46
330
1F
100
AcDbEntity
  8
0
100
AcDbLine
 10
-59.86370330515626
 20
32.03527618041009
 30
0.0
 11
-59.99999999999999
 21
31.0
 31
0.0
  0
LINE
  5
47
330
1F
100
AcDbEntity
  8
0
100
AcDbLine
 10
-55.99999999999999
 20
35.0
 30
0.0
 11
56.0
 21
35.0
 31
0.0
  0
LINE
  5
48
330
1F
100
AcDbEntity
  8
0
100
AcDbLine
 10
-59.99999999999999
 20
-31.0
 30
0.0
 11
-59.86370330515626
 21
-32.03527618041009
 31
0.0
  0
LINE
  5
49
330
1F
100
AcDbEntity
  8
0
100
AcDbLine
 10
-59.86370330515626
 20
-32.03527618041009
 30
0.0
 11
-59.46410161513774
 21
-32.99999999999999
 31
0.0
  0
LINE
  5
4A
330
1F
100
AcDbEntity
  8
0
100
AcDbLine
 10
-59.46410161513774
 20
-32.99999999999999
 30
0.0
 11
-58.82842712474617
 21
-33.82842712474619
 31
0.0
  0
LINE
  5
4B
330
1F
100
AcDbEntity
  8
0
100
AcDbLine
 10
-58.82842712474617
 20
-33.82842712474619
 30
0.0
 11
-57.99999999999999
 21
-34.46410161513776
 31
0.0
  0
LINE
  5
4C
330
1F
100
AcDbEntity
  8
0
100
AcDbLine
 10
-57.99999999999999
 20
-34.46410161513776
 30
0.0
 11
-57.03527618041008
 21
-34.86370330515628
 31
0.0
  0
LINE
  5
4D
330
1F
100
AcDbEntity
  8
0
100
AcDbLine
 10
-57.03527618041008
 20
-34.86370330515628
 30
0.0
 11
-55.99999999999999
 21
-35.0
 31
0.0
  0
LINE
  5
4E
330
1F
100
AcDbEntity
  8
0
100
AcDbLine
 10
-59.99999999999999
 20
-31.0
 30
0.0
 11
-59.99999999999999
 21
31.0
 31
0.0
  0
LINE
  5
4F
330
1F
100
AcDbEntity
  8
0
100
AcDbLine
 10
56.0
 20
-35.0
 30
0.0
 11
57.03527618041009
 21
-34.86370330515628
 31
0.0
  0
LINE
  5
50
330
1F
100
AcDbEntity
  8
0
100
AcDbLine
 10
57.03527618041009
 20
-34.86370330515628
 30
0.0
 11
57.99999999999999
 21
-34.46410161513776
 31
0.0
  0
LINE
  5
51
330
1F
100
AcDbEntity
  8
0
100
AcDbLine
 10
57.99999999999999
 20
-34.46410161513776
 30
0.0
 11
58.8284271247462
 21
-33.82842712474619
 31
0.0
  0
LINE
  5
52
330
1F
100
AcDbEntity
  8
0
100
AcDbLine
 10
58.8284271247462
 20
-33.82842712474619
 30
0.0
 11
59.46410161513776
 21
-33.0
 31
0.0
  0
LINE
  5
53
330
1F
100
AcDbEntity
  8
0
100
AcDbLine
 10
59.46410161513776
 20
-33.0
 30
0.0
 11
59.86370330515626
 21
-32.03527618041009
 31
0.0
  0
LINE
  5
54
330
1F
100
AcDbEntity
  8
0
100
AcDbLine
 10
59.86370330515626
 20
-32.03527618041009
 30
0.0
 11
59.99999999999999
 21
-31.0
 31
0.0
  0
LINE
  5
55
330
1F
100
AcDbEntity
  8
0
100
AcDbLine
 10
56.0
 20
-35.0
 30
0.0
 11
-55.99999999999999
 21
-35.0
 31
0.0
  0
LINE
  5
56
330
1F
100
AcDbEntity
  8
0
100
AcDbLine
 10
59.99999999999999
 20
31.0
 30
0.0
 11
59.86370330515629
 21
32.03527618041008
 31
0.0
  0
LINE
  5
57
330
1F
100
AcDbEntity
  8
0
100
AcDbLine
 10
59.86370330515629
 20
32.03527618041008
 30
0.0
 11
59.46410161513776
 21
32.99999999999999
 31
0.0
  0
LINE
  5
58
330
1F
100
AcDbEntity
  8
0
100
AcDbLine
 10
59.46410161513776
 20
32.99999999999999
 30
0.0
 11
58.8284271247462
 21
33.8284271247462
 31
0.0
  0
LINE
  5
59
330
1F
100
AcDbEntity
  8
0
100
AcDbLine
 10
58.8284271247462
 20
33.8284271247462
 30
0.0
 11
57.99999999999999
 21
34.46410161513776
 31
0.0
  0
LINE
  5
5A
330
1F
100
AcDbEntity
  8
0
100
AcDbLine
 10
57.99999999999999
 20
34.46410161513776
 30
0.0
 11
57.03527618041009
 21
34.86370330515628
 31
0.0
  0
LINE
  5
5B
330
1F
100
AcDbEntity
  8
0
100
AcDbLine
 10
57.03527618041009
 20
34.86370330515628
 30
0.0
 11
56.0
 21
35.0
 31
0.0
  0
LINE
  5
5C
330
1F
100
AcDbEntity
  8
0
100
AcDbLine
 10
59.99999999999999
 20
31.0
 30
0.0
 11
59.99999999999999
 21
-31.0
 31
0.0
  0
LINE
  5
5D
330
1F
100
AcDbEntity
  8
0
100
AcDbLine
 10
-45.99999999999999
 20
22.6
 30
0.0
 11
-46.41411047216402
 21
22.54548132206251
 31
0.0
  0
LINE
  5
5E
330
1F
100
AcDbEntity
  8
0
100
AcDbLine
 10
-46.41411047216402
 20
22.54548132206251
 30
0.0
 11
-46.79999999999999
 21
22.3856406460551
 31
0.0
  0
LINE
  5
5F
330
1F
100
AcDbEntity
  8
0
100
AcDbLine
 10
-46.79999999999999
 20
22.3856406460551
 30
0.0
 11
-47.13137084989847
 21
22.13137084989847
 31
0.0
  0
LINE
  5
60
330
1F
100
AcDbEntity
  8
0
100
AcDbLine
 10
-47.13137084989847
 20
22.13137084989847
 30
0.0
 11
-47.38564064605509
 21
21.8
 31
0.0
  0
LINE
  5
61
330
1F
100
AcDbEntity
  8
0
100
AcDbLine
 10
-47.38564064605509
 20
21.8
 30
0.0
 11
-47.5454813220625
 21
21.41411047216403
 31
0.0
  0
LINE
  5
62
330
1F
100
AcDbEntity
  8
0
100
AcDbLine
 10
-47.5454813220625
 20
21.41411047216403
 30
0.0
 11
-47.59999999999999
 21
21.0
 31
0.0
  0
LINE
  5
63
330
1F
100
AcDbEntity
  8
0
100
AcDbLine
 10
-47.59999999999999
 20
21.0
 30
0.0
 11
-47.5454813220625
 21
20.58588952783596
 31
0.0
  0
LINE
  5
64
330
1F
100
AcDbEntity
  8
0
100
AcDbLine
 10
-47.5454813220625
 20
20.58588952783596
 30
0.0
 11
-47.38564064605509
 21
20.2
 31
0.0
  0
LINE
  5
65
330
1F
100
AcDbEntity
  8
0
100
AcDbLine
 10
-47.38564064605509
 20
20.2
 30
0.0
 11
-47.13137084989847
 21
19.86862915010152
 31
0.0
  0
LINE
  5
66
330
1F
100
AcDbEntity
  8
0
100
AcDbLine
 10
-47.13137084989847
 20
19.86862915010152
 30
0.0
 11
-46.79999999999999
 21
19.61435935394489
 31
0.0
  0
LINE
  5
67
330
1F
100
AcDbEntity
  8
0
100
AcDbLine
 10
-46.79999999999999
 20
19.61435935394489
 30
0.0
 11
-46.41411047216401
 21
19.45451867793749
 31
0.0
  0
LINE
  5
68
330
1F
100
AcDbEntity
  8
0
100
AcDbLine
 10
-46.41411047216401
 20
19.45451867793749
 30
0.0
 11
-45.99999999999999
 21
19.4
 31
0.0
  0
LINE
  5
69
330
1F
100
AcDbEntity
  8
0
100
AcDbLine
 10
-45.99999999999999
 20
19.4
 30
0.0
 11
-45.58588952783595
 21
19.45451867793749
 31
0.0
  0
LINE
  5
6A
330
1F
100
AcDbEntity
  8
0
100
AcDbLine
 10
-45.58588952783595
 20
19.45451867793749
 30
0.0
 11
-45.19999999999998
 21
19.6143593539449
 31
0.0
  0
LINE
  5
6B
330
1F
100
AcDbEntity
  8
0
100
AcDbLine
 10
-45.19999999999998
 20
19.6143593539449
 30
0.0
 11
-44.8686291501015
 21
19.86862915010152
 31
0.0
  0
LINE
  5
6C
330
1F
100
AcDbEntity
  8
0
100
AcDbLine
 10
-44.8686291501015
 20
19.86862915010152
 30
0.0
 11
-44.61435935394488
 21
20.2
 31
0.0
  0
LINE
  5
6D
330
1F
100
AcDbEntity
  8
0
100
AcDbLine
 10
-44.61435935394488
 20
20.2
 30
0.0
 11
-44.45451867793747
 21
20.58588952783597
 31
0.0
  0
LINE
  5
6E
330
1F
100
AcDbEntity
  8
0
100
AcDbLine
 10
-44.45451867793747
 20
20.58588952783597
 30
0.0
 11
-44.39999999999998
 21
21.0
 31
0.0
  0
LINE
  5
6F
330
1F
100
AcDbEntity
  8
0
100
AcDbLine
 10
-44.39999999999998
 20
21.0
 30
0.0
 11
-44.45451867793748
 21
21.41411047216403
 31
0.0
  0
LINE
  5
70
330
1F
100
AcDbEntity
  8
0
100
AcDbLine
 10
-44.45451867793748
 20
21.41411047216403
 30
0.0
 11
-44.61435935394488
 21
21.8
 31
0.0
  0
LINE
  5
71
330
1F
100
AcDbEntity
  8
0
100
AcDbLine
 10
-44.61435935394488
 20
21.8
 30
0.0
 11
-44.8686291501015
 21
22.13137084989848
 31
0.0
  0
LINE
  5
72
330
1F
100
AcDbEntity
  8
0
100
AcDbLine
 10
-44.8686291501015
 20
22.13137084989848
 30
0.0
 11
-45.19999999999998
 21
22.3856406460551
 31
0.0
  0
LINE
  5
73
330
1F
100
AcDbEntity
  8
0
100
AcDbLine
 10
-45.19999999999998
 20
22.3856406460551
 30
0.0
 11
-45.58588952783595
 21
22.54548132206251
 31
0.0
  0
LINE
  5
74
330
1F
100
AcDbEntity
  8
0
100
AcDbLine
 10
-45.58588952783595
 20
22.54548132206251
 30
0.0
 11
-45.99999999999999
 21
22.6
 31
0.0
  0
LINE
  5
75
330
1F
100
AcDbEntity
  8
0
100
AcDbLine
 10
-44.75207082756181
 20
-19.99866450148926
 30
0.0
 11
-45.05375768051422
 21
-19.70979634444241
 31
0.0
  0
LINE
  5
76
330
1F
100
AcDbEntity
  8
0
100
AcDbLine
 10
-45.05375768051422
 20
-19.70979634444241
 30
0.0
 11
-45.41992938380021
 21
-19.50885343435946
 31
0.0
  0
LINE
  5
77
330
1F
100
AcDbEntity
  8
0
100
AcDbLine
 10
-45.41992938380021
 20
-19.50885343435946
 30
0.0
 11
-45.82563194096819
 21
-19.40952969848869
 31
0.0
  0
LINE
  5
78
330
1F
100
AcDbEntity
  8
0
100
AcDbLine
 10
-45.82563194096819
 20
-19.40952969848869
 30
0.0
 11
-46.24321739320236
 21
-19.41859388528948
 31
0.0
  0
LINE
  5
79
330
1F
100
AcDbEntity
  8
0
100
AcDbLine
 10
-46.24321739320236
 20
-19.41859388528948
 30
0.0
 11
-46.64422798202553
 21
-19.53542828541061
 31
0.0
  0
LINE
  5
7A
330
1F
100
AcDbEntity
  8
0
100
AcDbLine
 10
-46.64422798202553
 20
-19.53542828541061
 30
0.0
 11
-47.00133549851073
 21
-19.75207082756183
 31
0.0
  0
LINE
  5
7B
330
1F
100
AcDbEntity
  8
0
100
AcDbLine
 10
-47.00133549851073
 20
-19.75207082756183
 30
0.0
 11
-47.29020365555758
 21
-20.05375768051423
 31
0.0
  0
LINE
  5
7C
330
1F
100
AcDbEntity
  8
0
100
AcDbLine
 10
-47.29020365555758
 20
-20.05375768051423
 30
0.0
 11
-47.49114656564053
 21
-20.41992938380022
 31
0.0
  0
LINE
  5
7D
330
1F
100
AcDbEntity
  8
0
100
AcDbLine
 10
-47.49114656564053
 20
-20.41992938380022
 30
0.0
 11
-47.5904703015113
 21
-20.82563194096821
 31
0.0
  0
LINE
  5
7E
330
1F
100
AcDbEntity
  8
0
100
AcDbLine
 10
-47.5904703015113
 20
-20.82563194096821
 30
0.0
 11
-47.58140611471052
 21
-21.24321739320237
 31
0.0
  0
LINE
  5
7F
330
1F
100
AcDbEntity
  8
0
100
AcDbLine
 10
-47.58140611471052
 20
-21.24321739320237
 30
0.0
 11
-47.46457171458938
 21
-21.64422798202554
 31
0.0
  0
LINE
  5
80
330
1F
100
AcDbEntity
  8
0
100
AcDbLine
 10
-47.46457171458938
 20
-21.64422798202554
 30
0.0
 11
-47.24792917243816
 21
-22.00133549851075
 31
0.0
  0
LINE
  5
81
330
1F
100
AcDbEntity
  8
0
100
AcDbLine
 10
-47.24792917243816
 20
-22.00133549851075
 30
0.0
 11
-46.94624231948576
 21
-22.2902036555576
 31
0.0
  0
LINE
  5
82
330
1F
100
AcDbEntity
  8
0
100
AcDbLine
 10
-46.94624231948576
 20
-22.2902036555576
 30
0.0
 11
-46.58007061619977
 21
-22.49114656564056
 31
0.0
  0
LINE
  5
83
330
1F
100
AcDbEntity
  8
0
100
AcDbLine
 10
-46.58007061619977
 20
-22.49114656564056
 30
0.0
 11
-46.17436805903179
 21
-22.59047030151132
 31
0.0
  0
LINE
  5
84
330
1F
100
AcDbEntity
  8
0
100
AcDbLine
 10
-46.17436805903179
 20
-22.59047030151132
 30
0.0
 11
-45.75678260679761
 21
-22.58140611471053
 31
0.0
  0
LINE
  5
85
330
1F
100
AcDbEntity
  8
0
100
AcDbLine
 10
-45.75678260679761
 20
-22.58140611471053
 30
0.0
 11
-45.35577201797445
 21
-22.46457171458939
 31
0.0
  0
LINE
  5
86
330
1F
100
AcDbEntity
  8
0
100
AcDbLine
 10
-45.35577201797445
 20
-22.46457171458939
 30
0.0
 11
-44.99866450148924
 21
-22.24792917243818
 31
0.0
  0
LINE
  5
87
330
1F
100
AcDbEntity
  8
0
100
AcDbLine
 10
-44.99866450148924
 20
-22.24792917243818
 30
0.0
 11
-44.70979634444239
 21
-21.94624231948578
 31
0.0
  0
LINE
  5
88
330
1F
100
AcDbEntity
  8
0
100
AcDbLine
 10
-44.70979634444239
 20
-21.94624231948578
 30
0.0
 11
-44.50885343435944
 21
-21.58007061619979
 31
0.0
  0
LINE
  5
89
330
1F
100
AcDbEntity
  8
0
100
AcDbLine
 10
-44.50885343435944
 20
-21.58007061619979
 30
0.0
 11
-44.40952969848868
 21
-21.1743680590318
 31
0.0
  0
LINE
  5
8A
330
1F
100
AcDbEntity
  8
0
100
AcDbLine
 10
-44.40952969848868
 20
-21.1743680590318
 30
0.0
 11
-44.41859388528946
 21
-20.75678260679764
 31
0.0
  0
LINE
  5
8B
330
1F
100
AcDbEntity
  8
0
100
AcDbLine
 10
-44.41859388528946
 20
-20.75678260679764
 30
0.0
 11
-44.5354282854106
 21
-20.35577201797447
 31
0.0
  0
LINE
  5
8C
330
1F
100
AcDbEntity
  8
0
100
AcDbLine
 10
-44.5354282854106
 20
-20.35577201797447
 30
0.0
 11
-44.75207082756181
 21
-19.99866450148926
 31
0.0
  0
LINE
  5
8D
330
1F
100
AcDbEntity
  8
0
100
AcDbLine
 10
44.58221737884733
 20
-20.25845267234148
 30
0.0
 11
44.43860057892191
 21
-20.65066942896868
 31
0.0
  0
LINE
  5
8E
330
1F
100
AcDbEntity
  8
0
100
AcDbLine
 10
44.43860057892191
 20
-20.65066942896868
 30
0.0
 11
44.40139056920844
 21
-21.06669248671559
 31
0.0
  0
LINE
  5
8F
330
1F
100
AcDbEntity
  8
0
100
AcDbLine
 10
44.40139056920844
 20
-21.06669248671559
 30
0.0
 11
44.4731231503764
 21
-21.47817056170739
 31
0.0
  0
LINE
  5
90
330
1F
100
AcDbEntity
  8
0
100
AcDbLine
 10
44.4731231503764
 20
-21.47817056170739
 30
0.0
 11
44.64890986556291
 21
-21.85706210313304
 31
0.0
  0
LINE
  5
91
330
1F
100
AcDbEntity
  8
0
100
AcDbLine
 10
44.64890986556291
 20
-21.85706210313304
 30
0.0
 11
44.91677114062931
 21
-22.17754627859227
 31
0.0
  0
LINE
  5
92
330
1F
100
AcDbEntity
  8
0
100
AcDbLine
 10
44.91677114062931
 20
-22.17754627859227
 30
0.0
 11
45.25845267234147
 21
-22.41778262115267
 31
0.0
  0
LINE
  5
93
330
1F
100
AcDbEntity
  8
0
100
AcDbLine
 10
45.25845267234147
 20
-22.41778262115267
 30
0.0
 11
45.65066942896867
 21
-22.56139942107808
 31
0.0
  0
LINE
  5
94
330
1F
100
AcDbEntity
  8
0
100
AcDbLine
 10
45.65066942896867
 20
-22.56139942107808
 30
0.0
 11
46.06669248671558
 21
-22.59860943079156
 31
0.0
  0
LINE
  5
95
330
1F
100
AcDbEntity
  8
0
100
AcDbLine
 10
46.06669248671558
 20
-22.59860943079156
 30
0.0
 11
46.47817056170738
 21
-22.52687684962359
 31
0.0
  0
LINE
  5
96
330
1F
100
AcDbEntity
  8
0
100
AcDbLine
 10
46.47817056170738
 20
-22.52687684962359
 30
0.0
 11
46.85706210313303
 21
-22.35109013443708
 31
0.0
  0
LINE
  5
97
330
1F
100
AcDbEntity
  8
0
100
AcDbLine
 10
46.85706210313303
 20
-22.35109013443708
 30
0.0
 11
47.17754627859225
 21
-22.08322885937069
 31
0.0
  0
LINE
  5
98
330
1F
100
AcDbEntity
  8
0
100
AcDbLine
 10
47.17754627859225
 20
-22.08322885937069
 30
0.0
 11
47.41778262115266
 21
-21.74154732765853
 31
0.0
  0
LINE
  5
99
330
1F
100
AcDbEntity
  8
0
100
AcDbLine
 10
47.41778262115266
 20
-21.74154732765853
 30
0.0
 11
47.56139942107807
 21
-21.34933057103133
 31
0.0
  0
LINE
  5
9A
330
1F
100
AcDbEntity
  8
0
100
AcDbLine
 10
47.56139942107807
 20
-21.34933057103133
 30
0.0
 11
47.59860943079155
 21
-20.93330751328442
 31
0.0
  0
LINE
  5
9B
330
1F
100
AcDbEntity
  8
0
100
AcDbLine
 10
47.59860943079155
 20
-20.93330751328442
 30
0.0
 11
47.52687684962359
 21
-20.52182943829262
 31
0.0
  0
LINE
  5
9C
330
1F
100
AcDbEntity
  8
0
100
AcDbLine
 10
47.52687684962359
 20
-20.52182943829262
 30
0.0
 11
47.35109013443707
 21
-20.14293789686697
 31
0.0
  0
LINE
  5
9D
330
1F
100
AcDbEntity
  8
0
100
AcDbLine
 10
47.35109013443707
 20
-20.14293789686697
 30
0.0
 11
47.08322885937069
 21
-19.82245372140774
 31
0.0
  0
LINE
  5
9E
330
1F
100
AcDbEntity
  8
0
100
AcDbLine
 10
47.08322885937069
 20
-19.82245372140774
 30
0.0
 11
46.74154732765852
 21
-19.58221737884734
 31
0.0
  0
LINE
  5
9F
330
1F
100
AcDbEntity
  8
0
100
AcDbLine
 10
46.74154732765852
 20
-19.58221737884734
 30
0.0
 11
46.34933057103132
 21
-19.43860057892193
 31
0.0
  0
LINE
  5
A0
330
1F
100
AcDbEntity
  8
0
100
AcDbLine
 10
46.34933057103132
 20
-19.43860057892193
 30
0.0
 11
45.93330751328441
 21
-19.40139056920844
 31
0.0
  0
LINE
  5
A1
330
1F
100
AcDbEntity
  8
0
100
AcDbLine
 10
45.93330751328441
 20
-19.40139056920844
 30
0.0
 11
45.52182943829261
 21
-19.47312315037641
 31
0.0
  0
LINE
  5
A2
330
1F
100
AcDbEntity
  8
0
100
AcDbLine
 10
45.52182943829261
 20
-19.47312315037641
 30
0.0
 11
45.14293789686695
 21
-19.64890986556293
 31
0.0
  0
LINE
  5
A3
330
1F
100
AcDbEntity
  8
0
100
AcDbLine
 10
45.14293789686695
 20
-19.64890986556293
 30
0.0
 11
44.82245372140773
 21
-19.91677114062931
 31
0.0
  0
LINE
  5
A4
330
1F
100
AcDbEntity
  8
0
100
AcDbLine
 10
44.82245372140773
 20
-19.91677114062931
 30
0.0
 11
44.58221737884733
 21
-20.25845267234148
 31
0.0
  0
LINE
  5
A5
330
1F
100
AcDbEntity
  8
0
100
AcDbLine
 10
44.67811423917713
 20
20.09854670928897
 30
0.0
 11
44.95646968412377
 21
19.78713377495815
 31
0.0
  0
LINE
  5
A6
330
1F
100
AcDbEntity
  8
0
100
AcDbLine
 10
44.95646968412377
 20
19.78713377495815
 30
0.0
 11
45.30593999558198
 21
19.55837566950773
 31
0.0
  0
LINE
  5
A7
330
1F
100
AcDbEntity
  8
0
100
AcDbLine
 10
45.30593999558198
 20
19.55837566950773
 30
0.0
 11
45.7027093493529
 21
19.42786187978351
 31
0.0
  0
LINE
  5
A8
330
1F
100
AcDbEntity
  8
0
100
AcDbLine
 10
45.7027093493529
 20
19.42786187978351
 30
0.0
 11
46.11973856966939
 21
19.40448670487096
 31
0.0
  0
LINE
  5
A9
330
1F
100
AcDbEntity
  8
0
100
AcDbLine
 10
46.11973856966939
 20
19.40448670487096
 30
0.0
 11
46.52860780434025
 21
19.48984312431106
 31
0.0
  0
LINE
  5
AA
330
1F
100
AcDbEntity
  8
0
100
AcDbLine
 10
46.52860780434025
 20
19.48984312431106
 30
0.0
 11
46.90145329071103
 21
19.67811423917713
 31
0.0
  0
LINE
  5
AB
330
1F
100
AcDbEntity
  8
0
100
AcDbLine
 10
46.90145329071103
 20
19.67811423917713
 30
0.0
 11
47.21286622504184
 21
19.95646968412377
 31
0.0
  0
LINE
  5
AC
330
1F
100
AcDbEntity
  8
0
100
AcDbLine
 10
47.21286622504184
 20
19.95646968412377
 30
0.0
 11
47.44162433049226
 21
20.30593999558199
 31
0.0
  0
LINE
  5
AD
330
1F
100
AcDbEntity
  8
0
100
AcDbLine
 10
47.44162433049226
 20
20.30593999558199
 30
0.0
 11
47.57213812021648
 21
20.70270934935291
 31
0.0
  0
LINE
  5
AE
330
1F
100
AcDbEntity
  8
0
100
AcDbLine
 10
47.57213812021648
 20
20.70270934935291
 30
0.0
 11
47.59551329512904
 21
21.11973856966939
 31
0.0
  0
LINE
  5
AF
330
1F
100
AcDbEntity
  8
0
100
AcDbLine
 10
47.59551329512904
 20
21.11973856966939
 30
0.0
 11
47.51015687568893
 21
21.52860780434025
 31
0.0
  0
LINE
  5
B0
330
1F
100
AcDbEntity
  8
0
100
AcDbLine
 10
47.51015687568893
 20
21.52860780434025
 30
0.0
 11
47.32188576082287
 21
21.90145329071103
 31
0.0
  0
LINE
  5
B1
330
1F
100
AcDbEntity
  8
0
100
AcDbLine
 10
47.32188576082287
 20
21.90145329071103
 30
0.0
 11
47.04353031587623
 21
22.21286622504184
 31
0.0
  0
LINE
  5
B2
330
1F
100
AcDbEntity
  8
0
100
AcDbLine
 10
47.04353031587623
 20
22.21286622504184
 30
0.0
 11
46.69406000441801
 21
22.44162433049226
 31
0.0
  0
LINE
  5
B3
330
1F
100
AcDbEntity
  8
0
100
AcDbLine
 10
46.69406000441801
 20
22.44162433049226
 30
0.0
 11
46.29729065064709
 21
22.57213812021649
 31
0.0
  0
LINE
  5
B4
330
1F
100
AcDbEntity
  8
0
100
AcDbLine
 10
46.29729065064709
 20
22.57213812021649
 30
0.0
 11
45.8802614303306
 21
22.59551329512904
 31
0.0
  0
LINE
  5
B5
330
1F
100
AcDbEntity
  8
0
100
AcDbLine
 10
45.8802614303306
 20
22.59551329512904
 30
0.0
 11
45.47139219565974
 21
22.51015687568893
 31
0.0
  0
LINE
  5
B6
330
1F
100
AcDbEntity
  8
0
100
AcDbLine
 10
45.47139219565974
 20
22.51015687568893
 30
0.0
 11
45.09854670928897
 21
22.32188576082287
 31
0.0
  0
LINE
  5
B7
330
1F
100
AcDbEntity
  8
0
100
AcDbLine
 10
45.09854670928897
 20
22.32188576082287
 30
0.0
 11
44.78713377495816
 21
22.04353031587623
 31
0.0
  0
LINE
  5
B8
330
1F
100
AcDbEntity
  8
0
100
AcDbLine
 10
44.78713377495816
 20
22.04353031587623
 30
0.0
 11
44.55837566950773
 21
21.69406000441801
 31
0.0
  0
LINE
  5
B9
330
1F
100
AcDbEntity
  8
0
100
AcDbLine
 10
44.55837566950773
 20
21.69406000441801
 30
0.0
 11
44.42786187978351
 21
21.29729065064709
 31
0.0
  0
LINE
  5
BA
330
1F
100
AcDbEntity
  8
0
100
AcDbLine
 10
44.42786187978351
 20
21.29729065064709
 30
0.0
 11
44.40448670487095
 21
20.8802614303306
 31
0.0
  0
LINE
  5
BB
330
1F
100
AcDbEntity
  8
0
100
AcDbLine
 10
44.40448670487095
 20
20.8802614303306
 30
0.0
 11
44.48984312431106
 21
20.47139219565974
 31
0.0
  0
LINE
  5
BC
330
1F
100
AcDbEntity
  8
0
100
AcDbLine
 10
44.48984312431106
 20
20.47139219565974
 30
0.0
 11
44.67811423917713
 21
20.09854670928897
 31
0.0
  0
ENDSEC
  0
SECTION
  2
OBJECTS
  0
DICTIONARY
  5
C
330
0
100
AcDbDictionary
  3
ACAD_GROUP
350
D
  3
ACAD_LAYOUT
350
1A
  3
ACAD_MATERIAL
350
3B
  3
ACAD_MLEADERSTYLE
350
DF
  3
ACAD_MLINESTYLE
350
17
  3
ACAD_PLOTSETTINGS
350
19
  3
ACAD_VISUALSTYLE
350
2A
  3
ACDBHEADERROUNDTRIPXREC
350
BD
  3
ACDBVARIABLEDICTIONARY
350
DD
  0
DICTIONARY
  5
D
102
{ACAD_REACTORS
330
C
102
}
330
C
100
AcDbDictionary
  0
DICTIONARY
  5
1A
102
{ACAD_REACTORS
330
C
102
}
330
C
100
AcDbDictionary
  0
DICTIONARY
  5
3B
102
{ACAD_REACTORS
330
C
102
}
330
C
100
AcDbDictionary
  3
BYBLOCK
350
3D
  3
BYLAYER
350
3C
  3
GLOBAL
350
3E
  0
DICTIONARY
  5
DF
102
{ACAD_REACTORS
330
C
102
}
330
C
100
AcDbDictionary
  0
DICTIONARY
  5
17
102
{ACAD_REACTORS
330
C
102
}
330
C
100
AcDbDictionary
  3
STANDARD
350
18
  0
DICTIONARY
  5
19
102
{ACAD_REACTORS
330
C
102
}
330
C
100
AcDbDictionary
  0
DICTIONARY
  5
2A
102
{ACAD_REACTORS
330
C
102
}
330
C
100
AcDbDictionary
  3
2DWIREFRAME
350
2F
  3
3DWIREFRAME
350
30
  3
3D_HIDDEN
350
31
  3
BASIC
350
32
  3
BRIGHTEN
350
36
  3
COLORCHANGE
350
3A
  3
CONCEPTUAL
350
34
  3
DIM
350
35
  3
FACEPATTERN
350
39
  3
FLAT
350
2B
  3
FLATWITHEDGES
350
2C
  3
GOURAUD
350
2D
  3
GOURAUDWITHEDGES
350
2E
  3
LINEPATTERN
350
38
  3
REALISTIC
350
33
  3
THICKEN
350
37
  0
DICTIONARY
  5
BD
102
{ACAD_REACTORS
330
C
102
}
330
C
100
AcDbDictionary
  3
CEPSNTYPE
350
C6
  3
DIMSTYLEDATA
350
DC
  3
FINGERPRINTGUID
350
C7
  3
HYPERLINKBASE
350
C0
  3
INSUNITS
350
C5
  3
LAYOUTDICT
350
C2
  3
LWETCUNION
350
C4
  3
PLOTSETDICT
350
C3
  3
PSVPSCALE
350
C9
  3
PUCSBASE
350
CC
  3
PUCSORGBACK
350
D2
  3
PUCSORGBOTTOM
350
CE
  3
PUCSORGFRONT
350
D1
  3
PUCSORGLEFT
350
CF
  3
PUCSORGRIGHT
350
D0
  3
PUCSORGTOP
350
CD
  3
PUCSORTHOREF
350
CA
  3
PUCSORTHOVIEW
350
CB
  3
STYLESHEET
350
C1
  3
TSTACKALIGN
350
BE
  3
TSTACKSIZE
350
BF
  3
UCSBASE
350
D5
  3
UCSORGBACK
350
DB
  3
UCSORGBOTTOM
350
D7
  3
UCSORGFRONT
350
DA
  3
UCSORGLEFT
350
D8
  3
UCSORGRIGHT
350
D9
  3
UCSORGTOP
350
D6
  3
UCSORTHOREF
350
D3
  3
UCSORTHOVIEW
350
D4
  3
VERSIONGUID
350
C8
  0
DICTIONARY
  5
DD
102
{ACAD_REACTORS
330
C
102
}
330
C
100
AcDbDictionary
  3
DIMASSOC
350
E0
  3
HIDETEXT
350
E1
  0
MATERIAL
  5
3D
102
{ACAD_REACTORS
330
3B
102
}
102
{ACAD_XDICTIONARY
360
E4
102
}
330
3B
100
AcDbMaterial
  1
ByBlock
  0
MATERIAL
  5
3C
102
{ACAD_REACTORS
330
3B
102
}
102
{ACAD_XDICTIONARY
360
E2
102
}
330
3B
100
AcDbMaterial
  1
ByLayer
  0
MATERIAL
  5
3E
102
{ACAD_REACTORS
330
3B
102
}
102
{ACAD_XDICTIONARY
360
E6
102
}
330
3B
100
AcDbMaterial
  1
Global
  0
MLINESTYLE
  5
18
102
{ACAD_REACTORS
330
17
102
}
330
17
100
AcDbMlineStyle
  2
Standard
 70
     0
  3

 62
   256
 51
90.0
 52
90.0
 71
     2
 49
0.5
 62
   256
  6
BYLAYER
 49
-0.5
 62
   256
  6
BYLAYER
  0
ACAD_PROXY_OBJECT
  5
2F
102
{ACAD_REACTORS
330
2A
102
}
330
2A
100
AcDbProxyObject
 90
      499
 91
      501
 93
      436
310
42CC9915DA5C99599C985B595049028333333333333E3BF0000000000000FB0107901411070040501600405405064090741402480A0340
1001
ACAD
1000
AcDbSavedByObjectVersion
1070
     0
  0
ACAD_PROXY_OBJECT
  5
30
102
{ACAD_REACTORS
330
2A
102
}
330
2A
100
AcDbProxyObject
 90
      499
 91
      501
 93
      436
310
42CCD915DA5C99599C985B595059028333333333333E3BF0000000000000FB0107901411070040501600405405064090741402480A0340
1001
ACAD
1000
AcDbSavedByObjectVersion
1070
     0
  0
ACAD_PROXY_OBJECT
  5
31
102
{ACAD_REACTORS
330
2A
102
}
330
2A
100
AcDbProxyObject
 90
      499
 91
      501
 93
      500
310
424CD108121A5919195B90640502408333333333333E3BF0000000000000FB01079024090700405020000000000001110200405405064090740C02480A0340
1001
ACAD
1000
AcDbSavedByObjectVersion
1070
     0
  0
ACAD_PROXY_OBJECT
  5
32
102
{ACAD_REACTORS
330
2A
102
}
330
2A
100
AcDbProxyObject
 90
      499
 91
      501
 93
      388
310
4150985CDA58D07406404333333333333E3BF0000000000000FB0107A41107004050150841D405064090741402480A0350
1001
ACAD
1000
AcDbSavedByObjectVersion
1070
     0
  0
ACAD_PROXY_OBJECT
  5
36
102
{ACAD_REACTORS
330
2A
102
}
330
2A
100
AcDbProxyObject
 90
      499
 91
      501
 93
      428
310
42109C9A59DA1D195B90C409028333333333333E3BF0000000000000FB010790141107004050150841D405064090741402480A029950
1001
ACAD
1000
AcDbSavedByObjectVersion
1070
     0
  0
ACAD_PROXY_OBJECT
  5
3A
102
{ACAD_REACTORS
330
2A
102
}
330
2A
100
AcDbProxyObject
 90
      499
 91
      501
 93
      452
310
42D0DBDB1BDC90DA185B99D95104090240C333333333333E3BF0000000000000FB0108901411070040501508421405064090741402480A0350
1001
ACAD
1000
AcDbSavedByObjectVersion
1070
     0
  0
ACAD_PROXY_OBJECT
  5
34
102
{ACAD_REACTORS
330
2A
102
}
330
2A
100
AcDbProxyObject
 90
      499
 91
      501
 93
      500
310
4290DBDB98D95C1D1D585B10940D028333333333333E3BF0000000000000FB0107902409070040501000000000000111010841D405064090740C02480A0340
1001
ACAD
1000
AcDbSavedByObjectVersion
1070
     0
  0
ACAD_PROXY_OBJECT
  5
35
102
{ACAD_REACTORS
330
2A
102
}
330
2A
100
AcDbProxyObject
 90
      499
 91
      501
 93
      412
310
40D11A5B50B409028333333333333E3BF0000000000000FB010790141107004050150841D405064090741402480A02677FFFFFD0
1001
ACAD
1000
AcDbSavedByObjectVersion
1070
     0
  0
ACAD_PROXY_OBJECT
  5
39
102
{ACAD_REACTORS
330
2A
102
}
330
2A
100
AcDbProxyObject
 90
      499
 91
      501
 93
      444
310
42D19858D95C185D1D195C9B90F409028333333333333E3BF0000000000000FB010790141107004050150841D405064090741402480A0350
1001
ACAD
1000
AcDbSavedByObjectVersion
1070
     0
  0
ACAD_PROXY_OBJECT
  5
2B
102
{ACAD_REACTORS
330
2A
102
}
330
2A
100
AcDbProxyObject
 90
      499
 91
      501
 93
      388
310
41119B185D240901404333333333333E3BF0000000000000F9010740A41107004050150841D405064090741402480A1B50
1001
ACAD
1000
AcDbSavedByObjectVersion
1070
     0
  0
ACAD_PROXY_OBJECT
  5
2C
102
{ACAD_REACTORS
330
2A
102
}
330
2A
100
AcDbProxyObject
 90
      499
 91
      501
 93
      476
310
43519B185D15DA5D1A115919D95CD0140901404333333333333E3BF0000000000000F9010740901411070040501600405405064090741402480A1B50
1001
ACAD
1000
AcDbSavedByObjectVersion
1070
     0
  0
ACAD_PROXY_OBJECT
  5
2D
102
{ACAD_REACTORS
330
2A
102
}
330
2A
100
AcDbProxyObject
 90
      499
 91
      501
 93
      412
310
41D1DBDD5C985D5910240902404333333333333E3BF0000000000000F9010740A411070040501641D405064090741402480A1B50
1001
ACAD
1000
AcDbSavedByObjectVersion
1070
     0
  0
ACAD_PROXY_OBJECT
  5
2E
102
{ACAD_REACTORS
330
2A
102
}
330
2A
100
AcDbProxyObject
 90
      499
 91
      501
 93
      500
310
4411DBDD5C985D5915DA5D1A115919D95CD0340902404333333333333E3BF0000000000000F9010740901411070040501600405405064090741402480A1B50
1001
ACAD
1000
AcDbSavedByObjectVersion
1070
     0
  0
ACAD_PROXY_OBJECT
  5
38
102
{ACAD_REACTORS
330
2A
102
}
330
2A
100
AcDbProxyObject
 90
      499
 91
      501
 93
      444
310
42D31A5B995C185D1D195C9B90E409028333333333333E3BF0000000000000FB010790141107004050750841D405064090741402483A0350
1001
ACAD
1000
AcDbSavedByObjectVersion
1070
     0
  0
ACAD_PROXY_OBJECT
  5
33
102
{ACAD_REACTORS
330
2A
102
}
330
2A
100
AcDbProxyObject
 90
      499
 91
      501
 93
      420
310
425499585B1A5CDD1A58D08409028333333333333E3BF0000000000000FB01079019070040501508421405064090741402480A1B40
1001
ACAD
1000
AcDbSavedByObjectVersion
1070
     0
  0
ACAD_PROXY_OBJECT
  5
37
102
{ACAD_REACTORS
330
2A
102
}
330
2A
100
AcDbProxyObject
 90
      499
 91
      501
 93
      412
310
41D51A1A58DAD95B90D409028333333333333E3BF0000000000000FB010790141107004050150C41D405064090741402480A0350
1001
ACAD
1000
AcDbSavedByObjectVersion
1070
     0
  0
XRECORD
  5
C6
102
{ACAD_REACTORS
330
BD
102
}
330
BD
100
AcDbXrecord
 90
        0
  0
XRECORD
  5
DC
102
{ACAD_REACTORS
330
BD
102
}
330
BD
100
AcDbXrecord
1000
DSTYLE
1002
{
1070
   340
340
11
1002
}
  0
XRECORD
  5
C7
102
{ACAD_REACTORS
330
BD
102
}
330
BD
100
AcDbXrecord
  1
{8CA1ACEA-16FE-C931-BB73-6466892205F2}
  0
XRECORD
  5
C0
102
{ACAD_REACTORS
330
BD
102
}
330
BD
100
AcDbXrecord
  1

  0
XRECORD
  5
C5
102
{ACAD_REACTORS
330
BD
102
}
330
BD
100
AcDbXrecord
 90
        1
  0
XRECORD
  5
C2
102
{ACAD_REACTORS
330
BD
102
}
330
BD
100
AcDbXrecord
340
1A
  0
XRECORD
  5
C4
102
{ACAD_REACTORS
330
BD
102
}
330
BD
100
AcDbXrecord
 90
    10781
  0
XRECORD
  5
C3
102
{ACAD_REACTORS
330
BD
102
}
330
BD
100
AcDbXrecord
340
19
  0
XRECORD
  5
C9
102
{ACAD_REACTORS
330
BD
102
}
330
BD
100
AcDbXrecord
 40
0.0
  0
XRECORD
  5
CC
102
{ACAD_REACTORS
330
BD
102
}
330
BD
100
AcDbXrecord
340
0
  0
XRECORD
  5
D2
102
{ACAD_REACTORS
330
BD
102
}
330
BD
100
AcDbXrecord
 10
0.0
 20
0.0
 30
0.0
  0
XRECORD
  5
CE
102
{ACAD_REACTORS
330
BD
102
}
330
BD
100
AcDbXrecord
 10
0.0
 20
0.0
 30
0.0
  0
XRECORD
  5
D1
102
{ACAD_REACTORS
330
BD
102
}
330
BD
100
AcDbXrecord
 10
0.0
 20
0.0
 30
0.0
  0
XRECORD
  5
CF
102
{ACAD_REACTORS
330
BD
102
}
330
BD
100
AcDbXrecord
 10
0.0
 20
0.0
 30
0.0
  0
XRECORD
  5
D0
102
{ACAD_REACTORS
330
BD
102
}
330
BD
100
AcDbXrecord
 10
0.0
 20
0.0
 30
0.0
  0
XRECORD
  5
CD
102
{ACAD_REACTORS
330
BD
102
}
330
BD
100
AcDbXrecord
 10
0.0
 20
0.0
 30
0.0
  0
XRECORD
  5
CA
102
{ACAD_REACTORS
330
BD
102
}
330
BD
100
AcDbXrecord
340
0
  0
XRECORD
  5
CB
102
{ACAD_REACTORS
330
BD
102
}
330
BD
100
AcDbXrecord
 70
     0
  0
XRECORD
  5
C1
102
{ACAD_REACTORS
330
BD
102
}
330
BD
100
AcDbXrecord
  1

  0
XRECORD
  5
BE
102
{ACAD_REACTORS
330
BD
102
}
330
BD
100
AcDbXrecord
 90
        1
  0
XRECORD
  5
BF
102
{ACAD_REACTORS
330
BD
102
}
330
BD
100
AcDbXrecord
 90
       70
  0
XRECORD
  5
D5
102
{ACAD_REACTORS
330
BD
102
}
330
BD
100
AcDbXrecord
340
0
  0
XRECORD
  5
DB
102
{ACAD_REACTORS
330
BD
102
}
330
BD
100
AcDbXrecord
 10
0.0
 20
0.0
 30
0.0
  0
XRECORD
  5
D7
102
{ACAD_REACTORS
330
BD
102
}
330
BD
100
AcDbXrecord
 10
0.0
 20
0.0
 30
0.0
  0
XRECORD
  5
DA
102
{ACAD_REACTORS
330
BD
102
}
330
BD
100
AcDbXrecord
 10
0.0
 20
0.0
 30
0.0
  0
XRECORD
  5
D8
102
{ACAD_REACTORS
330
BD
102
}
330
BD
100
AcDbXrecord
 10
0.0
 20
0.0
 30
0.0
  0
XRECORD
  5
D9
102
{ACAD_REACTORS
330
BD
102
}
330
BD
100
AcDbXrecord
 10
0.0
 20
0.0
 30
0.0
  0
XRECORD
  5
D6
102
{ACAD_REACTORS
330
BD
102
}
330
BD
100
AcDbXrecord
 10
0.0
 20
0.0
 30
0.0
  0
XRECORD
  5
D3
102
{ACAD_REACTORS
330
BD
102
}
330
BD
100
AcDbXrecord
340
0
  0
XRECORD
  5
D4
102
{ACAD_REACTORS
330
BD
102
}
330
BD
100
AcDbXrecord
 70
     0
  0
XRECORD
  5
C8
102
{ACAD_REACTORS
330
BD
102
}
330
BD
100
AcDbXrecord
  1
{FAEB1C32-E019-11D5-929B-00C0DF256EC4}
  0
DICTIONARYVAR
  5
E0
102
{ACAD_REACTORS
330
DD
102
}
330
DD
100
DictionaryVariables
280
     0
  1
2
  0
DICTIONARYVAR
  5
E1
102
{ACAD_REACTORS
330
DD
102
}
330
DD
100
DictionaryVariables
280
     0
  1
1
  0
DICTIONARY
  5
E4
330
3D
100
AcDbDictionary
280
     1
  3
ACAD_XREC_ROUNDTRIP
360
E5
  0
DICTIONARY
  5
E2
330
3C
100
AcDbDictionary
280
     1
  3
ACAD_XREC_ROUNDTRIP
360
E3
  0
DICTIONARY
  5
E6
330
3E
100
AcDbDictionary
280
     1
  3
ACAD_XREC_ROUNDTRIP
360
E7
  0
XRECORD
  5
E5
102
{ACAD_REACTORS
330
E4
102
}
330
E4
100
AcDbXrecord
102
MATERIAL
148
0.0
149
0.0
149
0.0
 93
        0
 94
      127
282
     0
 72
     1
 77
     1
171
     1
175
     1
179
     1
273
     0
  0
XRECORD
  5
E3
102
{ACAD_REACTORS
330
E2
102
}
330
E2
100
AcDbXrecord
102
MATERIAL
148
0.0
149
0.0
149
0.0
 93
        0
 94
      127
282
     0
 72
     1
 77
     1
171
     1
175
     1
179
     1
273
     0
  0
XRECORD
  5
E7
102
{ACAD_REACTORS
330
E6
102
}
330
E6
100
AcDbXrecord
102
MATERIAL
148
0.0
149
0.0
149
0.0
 93
        0
 94
      127
282
     0
 72
     1
 77
     1
171
     1
175
     1
179
     1
273
     0
  0
ENDSEC
  0
EOF
